<svg width="14" height="21" viewBox="0 0 14 21" xmlns="http://www.w3.org/2000/svg"><title>any_questions_ico</title><path d="M5.07 20.624h2.56V17.7H5.07v2.924zm.585-5.513l-.418-4.51.14-.139c1.781-.037 3.15-.408 4.106-1.113.955-.706 1.434-1.662 1.434-2.868 0-1.02-.373-1.879-1.114-2.576C9.06 3.21 8.076 2.86 6.85 2.86c-1.874 0-3.563.873-5.067 2.618L.364 4.114C2.147 1.962 4.328.885 6.908.885c1.856 0 3.358.52 4.51 1.559 1.15 1.04 1.727 2.376 1.727 4.01 0 1.65-.54 2.945-1.615 3.883-1.077.937-2.47 1.527-4.177 1.767l-.278 3.007h-1.42z" fill="#393939" fill-rule="evenodd"/></svg>