<svg width="64" height="64" viewBox="0 0 64 64" xmlns="http://www.w3.org/2000/svg"><title>any_questions_round_ico</title><g fill="none" fill-rule="evenodd"><path d="M63.14 31.754c0 17.334-14.051 31.387-31.386 31.387C14.42 63.14.368 49.088.368 31.754.368 14.421 14.42.368 31.754.368c17.335 0 31.387 14.053 31.387 31.386z" stroke="#E2E2E2"/><path d="M30.07 41.624h2.561V38.7H30.07v2.924zm.585-5.513l-.418-4.51.14-.139c1.781-.037 3.15-.408 4.106-1.113.955-.706 1.434-1.662 1.434-2.868 0-1.02-.373-1.879-1.114-2.576-.743-.695-1.727-1.044-2.952-1.044-1.874 0-3.563.873-5.067 2.618l-1.42-1.365c1.782-2.152 3.963-3.229 6.543-3.229 1.856 0 3.358.52 4.51 1.559 1.15 1.04 1.727 2.376 1.727 4.01 0 1.65-.54 2.945-1.615 3.883-1.077.937-2.47 1.527-4.177 1.767l-.278 3.007h-1.42z" fill="#393939"/></g></svg>