<svg width="21" height="14" viewBox="0 0 21 14" xmlns="http://www.w3.org/2000/svg" xmlns:xlink="http://www.w3.org/1999/xlink"><title>back_arrow</title><defs><path id="a" d="M20.975 0H0v13.361h20.975V0z"/></defs><g fill="none" fill-rule="evenodd"><mask id="b" fill="#fff"><use xlink:href="#a"/></mask><path d="M15.432 13.361h-4.944a.6.6 0 0 1 0-1.2h4.944a4.35 4.35 0 0 0 4.345-4.344 4.35 4.35 0 0 0-4.345-4.345H2.047l1.25 1.25a.599.599 0 1 1-.846.848L.176 3.297H.175v-.002H.172l-.001-.002H.17v-.001L.168 3.29a.598.598 0 0 1-.15-.267.62.62 0 0 1-.014-.073v-.002a.604.604 0 0 1 .175-.503L2.45.176a.6.6 0 0 1 .848.847L2.047 2.274h13.385a5.55 5.55 0 0 1 5.543 5.543 5.55 5.55 0 0 1-5.543 5.544" fill="#010002" mask="url(#b)"/></g></svg>