<svg width="64" height="64" viewBox="0 0 64 64" xmlns="http://www.w3.org/2000/svg"><title>call_round_ico</title><g fill="none" fill-rule="evenodd"><path d="M63.875 32.124c0 17.535-14.215 31.751-31.751 31.751S.372 49.659.372 32.124C.372 14.588 14.588.372 32.124.372s31.751 14.216 31.751 31.752z" stroke="#E2E2E2"/><path d="M22.592 21.155c-.364 0-.556.192-.556.556 0 10.974 8.928 19.901 19.901 19.901.364 0 .556-.192.556-.555v-4.111c0-.365-.192-.556-.556-.556-1.64 0-3.18-.258-4.576-.766l-.138-.07c-.042-.028-.2-.026-.385.16l-3.004 3.003-.427-.229c-3.633-1.945-6.564-4.88-8.256-8.263l-.215-.432 3.071-2.936c.131-.225.171-.468.132-.586a14.411 14.411 0 0 1-.76-4.56c0-.364-.191-.556-.555-.556h-4.232zm19.345 21.763c-11.694 0-21.207-9.513-21.207-21.207 0-1.08.782-1.862 1.862-1.862h4.232c1.078 0 1.86.783 1.86 1.862 0 1.373.235 2.769.694 4.146.178.535.056 1.216-.319 1.778l-.092.11-2.426 2.322c1.53 2.833 4.011 5.307 7.06 7.037l2.312-2.314c.563-.561 1.362-.712 1.955-.37 1.236.44 2.606.664 4.07.664 1.078 0 1.861.783 1.861 1.862v4.11c0 1.08-.783 1.862-1.862 1.862z" fill="#393939"/></g></svg>