<svg width="64" height="64" viewBox="0 0 64 64" xmlns="http://www.w3.org/2000/svg"><title>card_ico</title><g fill="none" fill-rule="evenodd"><path d="M63.875 32.124c0 17.535-14.215 31.751-31.751 31.751S.372 49.659.372 32.124C.372 14.588 14.588.372 32.124.372s31.751 14.216 31.751 31.752" fill="#FFF"/><path d="M63.875 32.124c0 17.535-14.215 31.751-31.751 31.751S.372 49.659.372 32.124C.372 14.588 14.588.372 32.124.372s31.751 14.216 31.751 31.752z" stroke="#E2E2E2"/><path d="M45.65 43.057H24.613c-.64 0-1.162-.521-1.162-1.163V29.73c0-.61.47-1.11 1.068-1.159H41.57c.029 0 .056 0 .084-.004h3.995c.641 0 1.163.521 1.163 1.163v12.164c0 .642-.522 1.163-1.163 1.163zM17.435 27.022v-2.038h23.361v2.034H24.613c-.052 0-.104.002-.156.004h-7.022zm4.467 2.708v5.95h-3.306c-.64 0-1.161-.521-1.161-1.163v-5.946h4.727c-.166.351-.26.744-.26 1.159zm-4.467-7.377c0-.64.52-1.162 1.161-1.162h21.038c.641 0 1.162.522 1.162 1.162v1.082H17.435v-1.082zm28.215 4.665h-3.304v-4.665a2.714 2.714 0 0 0-2.712-2.711H18.596a2.714 2.714 0 0 0-2.71 2.711v12.164a2.714 2.714 0 0 0 2.71 2.712h3.306v4.665a2.714 2.714 0 0 0 2.711 2.711H45.65a2.714 2.714 0 0 0 2.712-2.71V29.73a2.714 2.714 0 0 0-2.712-2.712z" fill="#393939"/><path d="M37.465 37.996a2.187 2.187 0 0 1-2.185-2.185c0-1.204.98-2.185 2.185-2.185 1.204 0 2.185.98 2.185 2.185 0 1.206-.98 2.185-2.185 2.185m-3.314-.468c-.381.3-.854.47-1.353.47a2.188 2.188 0 0 1-2.185-2.187 2.187 2.187 0 0 1 3.538-1.716 3.71 3.71 0 0 0 0 3.433m3.314-5.45c-.882 0-1.691.307-2.33.82a3.706 3.706 0 0 0-2.337-.82 3.739 3.739 0 0 0-3.734 3.733 3.74 3.74 0 0 0 3.734 3.735 3.71 3.71 0 0 0 2.336-.82c.64.512 1.45.82 2.331.82A3.739 3.739 0 0 0 41.2 35.81a3.739 3.739 0 0 0-3.734-3.734" fill="#393939"/></g></svg>