<svg width="34" height="26" viewBox="0 0 34 26" xmlns="http://www.w3.org/2000/svg"><title>card_ico copy</title><g fill="#393939" fill-rule="evenodd"><path d="M30.65 24.057H9.613c-.64 0-1.162-.521-1.162-1.163V10.73c0-.61.47-1.11 1.068-1.159H26.57c.029 0 .056 0 .084-.004h3.995c.641 0 1.163.521 1.163 1.163v12.164c0 .642-.522 1.163-1.163 1.163zM2.435 8.022V5.984h23.361v2.034H9.613c-.052 0-.104.002-.156.004H2.435zm4.467 2.708v5.95H3.596c-.64 0-1.161-.521-1.161-1.163V9.571h4.727c-.166.351-.26.744-.26 1.159zM2.435 3.353c0-.64.52-1.162 1.161-1.162h21.038c.641 0 1.162.522 1.162 1.162v1.082H2.435V3.353zM30.65 8.018h-3.304V3.353A2.714 2.714 0 0 0 24.634.642H3.596a2.714 2.714 0 0 0-2.71 2.711v12.164a2.714 2.714 0 0 0 2.71 2.712h3.306v4.665a2.714 2.714 0 0 0 2.711 2.711H30.65a2.714 2.714 0 0 0 2.712-2.71V10.73a2.714 2.714 0 0 0-2.712-2.712z"/><path d="M22.465 18.996a2.187 2.187 0 0 1-2.185-2.185c0-1.204.98-2.185 2.185-2.185 1.204 0 2.185.98 2.185 2.185 0 1.206-.98 2.185-2.185 2.185m-3.314-.468c-.381.3-.854.47-1.353.47a2.188 2.188 0 0 1-2.185-2.187 2.187 2.187 0 0 1 3.538-1.716 3.71 3.71 0 0 0 0 3.433m3.314-5.45c-.882 0-1.691.307-2.33.82a3.706 3.706 0 0 0-2.337-.82 3.739 3.739 0 0 0-3.734 3.733 3.74 3.74 0 0 0 3.734 3.735 3.71 3.71 0 0 0 2.336-.82c.64.512 1.45.82 2.331.82A3.739 3.739 0 0 0 26.2 16.81a3.739 3.739 0 0 0-3.734-3.734"/></g></svg>