<svg width="38" height="38" viewBox="0 0 38 38" xmlns="http://www.w3.org/2000/svg"><title>day_product_ico</title><g fill="none" fill-rule="evenodd"><path d="M37.808 19c0 10.387-8.42 18.808-18.808 18.808C8.613 37.808.192 29.388.192 19 .192 8.613 8.612.192 19 .192 29.387.192 37.808 8.612 37.808 19" fill="#FFF"/><path d="M37.808 19c0 10.387-8.42 18.808-18.808 18.808C8.613 37.808.192 29.388.192 19 .192 8.613 8.612.192 19 .192 29.387.192 37.808 8.612 37.808 19z" stroke="#E2E2E2"/><path d="M19.352 12.141l1.892 4.478 4.843.416a.382.382 0 0 1 .217.67l-3.673 3.182 1.1 4.736a.381.381 0 0 1-.568.413L19 23.525l-4.162 2.51a.382.382 0 0 1-.569-.412l1.1-4.736-3.673-3.184a.381.381 0 0 1 .217-.668l4.843-.416 1.892-4.478a.381.381 0 0 1 .704 0" fill="#393939"/></g></svg>