<svg width="34" height="24" viewBox="0 0 34 24" xmlns="http://www.w3.org/2000/svg"><title>delivery_ico</title><path d="M33.398 8.1L28.58 4.11a.66.66 0 0 0-.43-.156h-5.667V1.532a.674.674 0 0 0-.672-.673H4.671a.674.674 0 0 0-.673.673v4.925c0 .37.303.674.672.674a.675.675 0 0 0 .674-.674V2.204h15.8V18.16h-5.518a.675.675 0 0 0-.673.673c0 .37.303.673.673.673h8.216c.37 0 .674-.303.674-.673a.675.675 0 0 0-.674-.673h-1.351V5.3h5.423l4.387 3.634-.047 9.213h-.7a.674.674 0 0 0-.673.672c0 .37.303.673.673.673h1.366a.67.67 0 0 0 .674-.666l.054-10.201a.711.711 0 0 0-.25-.525zm-29.386.908h8.162c.37 0 .674-.303.674-.673a.676.676 0 0 0-.674-.674H4.012a.676.676 0 0 0-.674.674c0 .37.304.673.674.673zm-1.373 3.054l8.162.049a.68.68 0 0 0 .68-.667.667.667 0 0 0-.666-.68l-8.163-.047h-.006a.67.67 0 0 0-.674.666.667.667 0 0 0 .667.68zm7.47 2.43a.674.674 0 0 0-.674-.672H1.273a.674.674 0 0 0-.673.672c0 .37.303.674.673.674h8.162a.67.67 0 0 0 .673-.674zM6.696 18.16H5.344v-1.79a.674.674 0 0 0-1.345 0v2.463c0 .37.302.673.671.673h2.027a.675.675 0 0 0 .672-.673.674.674 0 0 0-.672-.673zm4.487 3.883c-.928 0-1.708-.768-1.708-1.683s.78-1.683 1.708-1.683c.916 0 1.657.755 1.657 1.683 0 .93-.74 1.683-1.657 1.683zm0-4.711c-.807 0-1.574.316-2.153.89a3 3 0 0 0-.902 2.138c0 .808.317 1.561.902 2.14a3.064 3.064 0 0 0 2.153.888c1.657 0 3.002-1.359 3.002-3.028 0-1.67-1.345-3.028-3.002-3.028zM29.3 12.588h-4.133V8.409h2.517L29.3 9.863v2.725zm-.903-5.343a.65.65 0 0 0-.45-.175h-3.453a.675.675 0 0 0-.672.673v5.519c0 .37.303.671.672.671h5.478a.674.674 0 0 0 .673-.671V9.566a.674.674 0 0 0-.222-.497l-2.026-1.824zm-.78 14.798c-.93 0-1.71-.768-1.71-1.683s.78-1.683 1.71-1.683c.915 0 1.655.755 1.655 1.683 0 .93-.74 1.683-1.656 1.683zm0-4.711c-.808 0-1.575.316-2.153.89a3.003 3.003 0 0 0-.902 2.138c0 .808.316 1.561.902 2.14a3.064 3.064 0 0 0 2.152.888c1.656 0 3.002-1.359 3.002-3.028 0-1.67-1.346-3.028-3.002-3.028z" fill="#393939" fill-rule="evenodd"/></svg>