<svg width="64" height="64" viewBox="0 0 64 64" xmlns="http://www.w3.org/2000/svg"><title>delivery_round_ico</title><g fill="none" fill-rule="evenodd"><path d="M63.875 32.124c0 17.535-14.215 31.751-31.751 31.751S.372 49.659.372 32.124C.372 14.588 14.588.372 32.124.372s31.751 14.216 31.751 31.752z" stroke="#E2E2E2"/><path d="M48.398 28.1l-4.818-3.99a.66.66 0 0 0-.43-.156h-5.667v-2.422a.674.674 0 0 0-.672-.673h-17.14a.674.674 0 0 0-.673.673v4.925c0 .37.303.674.672.674a.675.675 0 0 0 .674-.674v-4.253h15.8V38.16h-5.518a.675.675 0 0 0-.673.673c0 .37.303.673.673.673h8.216c.37 0 .674-.303.674-.673a.675.675 0 0 0-.674-.673h-1.351V25.3h5.423l4.387 3.634-.047 9.213h-.7a.674.674 0 0 0-.673.672c0 .37.303.673.673.673h1.366a.67.67 0 0 0 .674-.666l.054-10.201a.711.711 0 0 0-.25-.525zm-29.386.908h8.162c.37 0 .674-.303.674-.673a.676.676 0 0 0-.674-.674h-8.162a.676.676 0 0 0-.674.674c0 .37.304.673.674.673zm-1.373 3.054l8.162.049a.68.68 0 0 0 .68-.667.667.667 0 0 0-.666-.68l-8.163-.047h-.006a.67.67 0 0 0-.674.666.667.667 0 0 0 .667.68zm7.47 2.43a.674.674 0 0 0-.674-.672h-8.162a.674.674 0 0 0-.673.672c0 .37.303.674.673.674h8.162a.67.67 0 0 0 .673-.674zm-3.412 3.668h-1.353v-1.79a.674.674 0 0 0-1.345 0v2.463c0 .37.302.673.671.673h2.027a.675.675 0 0 0 .672-.673.674.674 0 0 0-.672-.673zm4.487 3.883c-.928 0-1.708-.768-1.708-1.683s.78-1.683 1.708-1.683c.916 0 1.657.755 1.657 1.683 0 .93-.74 1.683-1.657 1.683zm0-4.711c-.807 0-1.574.316-2.153.89a3 3 0 0 0-.902 2.138c0 .808.317 1.561.902 2.14a3.064 3.064 0 0 0 2.153.888c1.657 0 3.002-1.359 3.002-3.028 0-1.67-1.345-3.028-3.002-3.028zm18.117-4.744h-4.133v-4.179h2.517l1.616 1.454v2.725zm-.903-5.343a.65.65 0 0 0-.45-.175h-3.453a.675.675 0 0 0-.672.673v5.519c0 .37.303.671.672.671h5.478a.674.674 0 0 0 .673-.671v-3.696a.674.674 0 0 0-.222-.497l-2.026-1.824zm-.78 14.798c-.93 0-1.71-.768-1.71-1.683s.78-1.683 1.71-1.683c.915 0 1.655.755 1.655 1.683 0 .93-.74 1.683-1.656 1.683zm0-4.711c-.808 0-1.575.316-2.153.89a3.003 3.003 0 0 0-.902 2.138c0 .808.316 1.561.902 2.14a3.064 3.064 0 0 0 2.152.888c1.656 0 3.002-1.359 3.002-3.028 0-1.67-1.346-3.028-3.002-3.028z" fill="#393939"/></g></svg>