<svg width="20" height="15" viewBox="0 0 20 15" xmlns="http://www.w3.org/2000/svg"><title>email_ico</title><path d="M18.196 12.411c0 .424-.388.768-.863.768H2.08c-.475 0-.862-.344-.862-.768V2.106l7.723 6.52a.283.283 0 0 0 .183.067h1.166a.283.283 0 0 0 .183-.067l7.724-6.52V12.41zm-.413-11.4L9.706 7.853 1.63 1.01h16.154zm1.423.768c0-.98-.84-1.779-1.873-1.779H2.08C1.046 0 .206.798.206 1.779V12.41c0 .981.84 1.779 1.873 1.779h15.254c1.033 0 1.873-.798 1.873-1.779V1.78z" fill="#FFF" fill-rule="evenodd"/></svg>