<svg width="41" height="41" viewBox="0 0 41 41" xmlns="http://www.w3.org/2000/svg"><title>fb_round_ico</title><g fill="none" fill-rule="evenodd"><path d="M40.5 20.5c0 11.046-8.954 20-20 20s-20-8.954-20-20 8.954-20 20-20 20 8.954 20 20" fill="#FFF"/><path d="M40.5 20.5c0 11.046-8.954 20-20 20s-20-8.954-20-20 8.954-20 20-20 20 8.954 20 20z" stroke="#C6C6C6"/><path d="M24.266 12.972l-1.953-.004c-2.195 0-3.613 1.456-3.613 3.708v1.709h-1.965a.308.308 0 0 0-.307.308v2.475c0 .17.138.307.307.307H18.7v6.25c0 .17.137.308.307.308h2.563a.308.308 0 0 0 .306-.308v-6.25h2.296a.307.307 0 0 0 .309-.307v-2.475a.305.305 0 0 0-.307-.308h-2.298v-1.45c0-.695.166-1.05 1.074-1.05h1.316a.308.308 0 0 0 .307-.307v-2.3a.308.308 0 0 0-.307-.306" fill="#393939"/></g></svg>