<svg width="16" height="12" viewBox="0 0 16 12" xmlns="http://www.w3.org/2000/svg" xmlns:xlink="http://www.w3.org/1999/xlink"><title>gamburger_menu_ico</title><defs><path id="a" d="M0 .121h15.973v1.37H0V.12z"/><path id="c" d="M15.973.05v1.37H0V.05z"/><path id="e" d="M15.973.173v1.37H0V.172h15.973z"/></defs><g fill="none" fill-rule="evenodd"><g transform="translate(0 .072)"><mask id="b" fill="#fff"><use xlink:href="#a"/></mask><path d="M.685 1.49h14.604a.687.687 0 0 0 .684-.684.687.687 0 0 0-.684-.685H.685A.687.687 0 0 0 0 .806c0 .376.308.684.685.684" fill="#FFF" mask="url(#b)"/></g><g transform="translate(0 5.276)"><mask id="d" fill="#fff"><use xlink:href="#c"/></mask><path d="M.685 1.42h14.604a.687.687 0 0 0 .684-.685.687.687 0 0 0-.684-.684H.685A.687.687 0 0 0 0 .735c0 .377.308.685.685.685" fill="#FFF" mask="url(#d)"/></g><g transform="translate(0 10.288)"><mask id="f" fill="#fff"><use xlink:href="#e"/></mask><path d="M.685 1.542h14.604a.687.687 0 0 0 .684-.684.687.687 0 0 0-.684-.685H.685A.687.687 0 0 0 0 .858c0 .376.308.684.685.684" fill="#FFF" mask="url(#f)"/></g></g></svg>