<svg width="20" height="13" viewBox="0 0 20 13" xmlns="http://www.w3.org/2000/svg" xmlns:xlink="http://www.w3.org/1999/xlink"><title>google_account_ico</title><defs><path id="a" d="M12.277 12.73H0V.197h19.718V12.73h-7.44V.2H0v12.53h12.277z"/><path id="c" d="M5.634.259v5.384H.251V.259h5.383z"/></defs><g fill="none" fill-rule="evenodd"><g transform="translate(0 .072)"><mask id="b" fill="#fff"><use xlink:href="#a"/></mask><path d="M.004 6.472C-.12 3.242 2.71.257 5.944.218c1.648-.14 3.251.499 4.499 1.543A28.517 28.517 0 0 1 8.855 3.4c-1.099-.667-2.42-1.176-3.703-.724-2.07.59-3.324 3.033-2.558 5.058.634 2.115 3.206 3.275 5.223 2.387C8.86 9.747 9.548 8.784 9.85 7.749c-1.196-.024-2.393-.009-3.589-.042-.003-.712-.006-1.42-.003-2.133 1.995-.002 3.993-.009 5.991.01.123 1.743-.134 3.61-1.268 5.01-1.552 1.997-4.42 2.584-6.754 1.8C1.751 11.58-.05 9.086.004 6.472" fill="#FFF" mask="url(#b)"/></g><g transform="translate(14.083 3.593)"><mask id="d" fill="#fff"><use xlink:href="#c"/></mask><path d="M2.054.259h1.78l.012 1.789c.595.005 1.193.008 1.789.011v1.783l-1.79.009c-.005.598-.008 1.193-.011 1.792-.595-.003-1.19 0-1.783 0-.006-.599-.006-1.194-.012-1.79-.595-.005-1.193-.008-1.788-.011V2.059c.595-.003 1.19-.006 1.788-.012.003-.594.01-1.193.015-1.788" fill="#FFF" mask="url(#d)"/></g></g></svg>