<svg width="29" height="29" viewBox="0 0 29 29" xmlns="http://www.w3.org/2000/svg"><title>heart_round_blue_ico</title><g fill="none" fill-rule="evenodd"><path d="M14.373 19.777h-5.92V9.181h11.84v10.596h-5.92 5.92V9.181H8.453v10.596z"/><path d="M14.372 19.777c-11.55-6.3-3.196-14.134 0-8.858 3.197-5.276 11.551 2.557 0 8.858" fill="#00CDBC"/><path d="M28.927 14.5c0 7.968-6.46 14.427-14.427 14.427C6.532 28.927.073 22.467.073 14.5.073 6.532 6.533.073 14.5.073c7.968 0 14.427 6.46 14.427 14.427" fill="#FFF"/><path d="M28.927 14.5c0 7.968-6.46 14.427-14.427 14.427C6.532 28.927.073 22.467.073 14.5.073 6.532 6.533.073 14.5.073c7.968 0 14.427 6.46 14.427 14.427z" stroke="#B7B7B7"/><path d="M14.5 19.798c-11.55-6.3-3.197-14.133 0-8.858 3.197-5.275 11.55 2.557 0 8.858" fill="#00CDBC"/></g></svg>