<svg width="38" height="38" viewBox="0 0 38 38" xmlns="http://www.w3.org/2000/svg"><title>hot_product_ico</title><g fill="none" fill-rule="evenodd"><path d="M37.808 19c0 10.387-8.42 18.808-18.808 18.808C8.613 37.808.192 29.388.192 19 .192 8.613 8.612.192 19 .192 29.387.192 37.808 8.612 37.808 19" fill="#FFF"/><path d="M37.808 19c0 10.387-8.42 18.808-18.808 18.808C8.613 37.808.192 29.388.192 19 .192 8.613 8.612.192 19 .192 29.387.192 37.808 8.612 37.808 19z" stroke="#E2E2E2"/><path d="M23.606 14.793c-2.039.581-2.412 2.23-2.28 3.277-1.455-1.71-1.396-3.677-1.396-6.51-4.666 1.759-3.58 6.83-3.72 8.37-1.174-.96-1.395-3.255-1.395-3.255-1.239.637-1.86 2.34-1.86 3.72a6.045 6.045 0 1 0 12.09 0c0-1.984-1.457-2.9-1.439-5.602" fill="#FF3939"/></g></svg>