<svg width="38" height="38" viewBox="0 0 38 38" xmlns="http://www.w3.org/2000/svg"><title>insta_photo_fallinlove_ico</title><g fill="none" fill-rule="evenodd"><path d="M37.905 19c0 10.44-8.464 18.905-18.905 18.905C8.56 37.905.095 29.44.095 19 .095 8.56 8.56.095 19 .095 29.44.095 37.905 8.56 37.905 19" fill="#FFF"/><path d="M37.905 19c0 10.44-8.464 18.905-18.905 18.905C8.56 37.905.095 29.44.095 19 .095 8.56 8.56.095 19 .095 29.44.095 37.905 8.56 37.905 19z" stroke="#B7B7B7"/><path d="M25.458 22.267a3.19 3.19 0 0 1-3.19 3.191h-6.536a3.19 3.19 0 0 1-3.19-3.19v-6.536a3.19 3.19 0 0 1 3.19-3.19h6.536a3.19 3.19 0 0 1 3.19 3.19v6.535zm-3.19-11.352h-6.536a4.822 4.822 0 0 0-4.817 4.817v6.535a4.823 4.823 0 0 0 4.817 4.818h6.536a4.823 4.823 0 0 0 4.817-4.818v-6.535a4.822 4.822 0 0 0-4.817-4.817z" fill="#393939"/><path d="M19 21.556a2.556 2.556 0 1 1 0-5.112 2.556 2.556 0 0 1 0 5.112m0-6.739A4.188 4.188 0 0 0 14.818 19 4.187 4.187 0 0 0 19 23.182 4.187 4.187 0 0 0 23.182 19 4.187 4.187 0 0 0 19 14.817m4.19-.97a1.002 1.002 0 1 1 0 2.004 1.002 1.002 0 0 1 0-2.004" fill="#393939"/></g></svg>