<svg width="41" height="41" viewBox="0 0 41 41" xmlns="http://www.w3.org/2000/svg"><title>instagram_round_hover_ico</title><g fill="none" fill-rule="evenodd"><path d="M40.5 20.5c0 11.046-8.954 20-20 20s-20-8.954-20-20 8.954-20 20-20 20 8.954 20 20" fill="#FFF"/><path d="M40.5 20.5c0 11.046-8.954 20-20 20s-20-8.954-20-20 8.954-20 20-20 20 8.954 20 20z" stroke="#00CDBC"/><path d="M27.783 24.186a3.598 3.598 0 0 1-3.598 3.598h-7.37a3.597 3.597 0 0 1-3.598-3.598v-7.37a3.598 3.598 0 0 1 3.597-3.6h7.371a3.598 3.598 0 0 1 3.598 3.6v7.37zm-3.598-12.804h-7.37a5.438 5.438 0 0 0-5.433 5.434v7.37a5.439 5.439 0 0 0 5.432 5.433h7.371a5.44 5.44 0 0 0 5.433-5.433v-7.37a5.44 5.44 0 0 0-5.433-5.434z" fill="#2CD7C8"/><path d="M20.5 23.382a2.882 2.882 0 1 1 0-5.763 2.882 2.882 0 0 1 0 5.763m0-7.6a4.723 4.723 0 0 0-4.717 4.718 4.722 4.722 0 0 0 4.717 4.717 4.722 4.722 0 0 0 4.717-4.717c0-2.6-2.116-4.717-4.717-4.717m4.726-1.095a1.13 1.13 0 1 1-.001 2.261 1.13 1.13 0 0 1 0-2.26" fill="#2CD7C8"/></g></svg>