<svg width="18" height="18" viewBox="0 0 18 18" xmlns="http://www.w3.org/2000/svg"><title>insta_photo_falllove_ico</title><g fill="#393939" fill-rule="evenodd"><path d="M15.458 12.267a3.19 3.19 0 0 1-3.19 3.191H5.732a3.19 3.19 0 0 1-3.19-3.19V5.731a3.19 3.19 0 0 1 3.19-3.19h6.536a3.19 3.19 0 0 1 3.19 3.19v6.535zM12.268.915H5.732A4.822 4.822 0 0 0 .915 5.732v6.535a4.823 4.823 0 0 0 4.817 4.818h6.536a4.823 4.823 0 0 0 4.817-4.818V5.732A4.822 4.822 0 0 0 12.268.915z"/><path d="M9 11.556a2.556 2.556 0 1 1 0-5.112 2.556 2.556 0 0 1 0 5.112m0-6.739A4.188 4.188 0 0 0 4.818 9 4.187 4.187 0 0 0 9 13.182 4.187 4.187 0 0 0 13.182 9 4.187 4.187 0 0 0 9 4.817m4.19-.97a1.002 1.002 0 1 1 0 2.004 1.002 1.002 0 0 1 0-2.004"/></g></svg>