<svg xmlns="http://www.w3.org/2000/svg" width="12" height="15.905" viewBox="0 0 12 15.905"><path fill="#393939" d="M11.423 5.424H10.29V3.078A3.08 3.08 0 0 0 7.213 0H4.787A3.08 3.08 0 0 0 1.71 3.078v2.347H.577A.576.576 0 0 0 0 6.001v5.637a4.272 4.272 0 0 0 4.267 4.267h3.467a4.272 4.272 0 0 0 4.267-4.267V6.001a.58.58 0 0 0-.578-.577zm-4.846 5.103v2.308a.577.577 0 0 1-1.154 0v-2.308a.577.577 0 0 1 .468-.915h.219a.577.577 0 0 1 .467.915zm2.559-5.103H2.864V3.078c0-1.061.862-1.923 1.923-1.923h2.426c1.061 0 1.923.863 1.923 1.923v2.346z"/></svg>