<svg width="12" height="16" viewBox="0 0 12 16" xmlns="http://www.w3.org/2000/svg" xmlns:xlink="http://www.w3.org/1999/xlink"><title>lock_ico</title><defs><path id="a" d="M0 15.775h11.902V0H0z"/></defs><g fill="none" fill-rule="evenodd"><mask id="b" fill="#fff"><use xlink:href="#a"/></mask><path d="M9.061 5.38h-6.22V3.052a1.91 1.91 0 0 1 1.907-1.907h2.406A1.91 1.91 0 0 1 9.06 3.052V5.38zm-2.538 5.06v2.29a.573.573 0 0 1-1.144 0v-2.29a.57.57 0 0 1 .463-.907h.218a.572.572 0 0 1 .463.908zm4.807-5.06h-1.124V3.052A3.056 3.056 0 0 0 7.154 0H4.748a3.056 3.056 0 0 0-3.052 3.052V5.38H.572A.573.573 0 0 0 0 5.952v5.591a4.236 4.236 0 0 0 4.231 4.232h3.44a4.236 4.236 0 0 0 4.231-4.232v-5.59a.573.573 0 0 0-.572-.573z" fill="#FFF" mask="url(#b)"/></g></svg>