<svg width="64" height="64" viewBox="0 0 64 64" xmlns="http://www.w3.org/2000/svg"><title>mail_us_ico</title><g fill="none" fill-rule="evenodd"><path d="M63.875 32.124c0 17.535-14.215 31.751-31.751 31.751S.372 49.659.372 32.124C.372 14.588 14.588.372 32.124.372s31.751 14.216 31.751 31.752z" stroke="#E2E2E2"/><path d="M23.395 28.788l4.963 3.468-4.963 5.93v-9.398zm0-4.012H40.94v2.27l-8.763 6.107-8.782-6.107v-2.27zm17.545 13.41l-4.98-5.93 4.963-3.468v9.399h.017zm-16.736 1.267l5.332-6.37 2.217 1.548a.682.682 0 0 0 .405.124.68.68 0 0 0 .405-.124l2.218-1.548 5.332 6.37h-15.91zm-2.252.826c0 .019 0 .037.017.072 0 .018.018.052.018.07 0 .018.017.036.017.071.018.017.018.035.035.07.018.018.018.035.036.053.017.017.034.035.034.053l.054.053.017.017s.018 0 .018.018a.425.425 0 0 0 .193.105c.018 0 .018 0 .035.018a.878.878 0 0 0 .211.035h18.99c.07 0 .14-.017.21-.035.019 0 .019 0 .036-.018.07-.035.141-.07.194-.105 0 0 .017 0 .017-.018l.018-.017.053-.053c.017-.018.035-.036.035-.053.017-.018.017-.035.035-.053.018-.018.018-.035.035-.07.018-.018.018-.035.018-.07 0-.019.017-.053.017-.071 0-.017.018-.035.018-.072V24.055a.714.714 0 0 0-.722-.722H22.656a.714.714 0 0 0-.722.722V40.21c.018.018.018.036.018.07z" fill="#393939"/></g></svg>