<svg width="64" height="64" viewBox="0 0 64 64" xmlns="http://www.w3.org/2000/svg"><title>money_cash</title><g fill="none" fill-rule="evenodd"><path d="M63.875 32.124c0 17.535-14.215 31.751-31.751 31.751S.372 49.659.372 32.124C.372 14.588 14.588.372 32.124.372s31.751 14.216 31.751 31.752" fill="#FFF"/><path d="M63.875 32.124c0 17.535-14.215 31.751-31.751 31.751S.372 49.659.372 32.124C.372 14.588 14.588.372 32.124.372s31.751 14.216 31.751 31.752z" stroke="#E2E2E2"/><path d="M41.343 40.781a13.902 13.902 0 0 0-2.852-1.96c.534-1.843.84-3.918.89-6.074h5.387a12.65 12.65 0 0 1-3.425 8.034zm-5.795 3.517c.675-.67 1.287-1.548 1.826-2.615a15.64 15.64 0 0 0 .72-1.666c.834.447 1.621.991 2.348 1.626a12.527 12.527 0 0 1-4.894 2.655zm-2.795.278v-6.028c1.462.074 2.887.39 4.213.941-.21.584-.442 1.134-.703 1.65-.987 1.951-2.212 3.147-3.51 3.437zm-5.84-6.277c-.47-1.69-.743-3.58-.789-5.552h5.382v4.554c-1.594.067-3.14.408-4.593.998zm4.593 6.277c-1.299-.29-2.524-1.486-3.51-3.438a14.801 14.801 0 0 1-.704-1.649c1.328-.55 2.75-.873 4.214-.941v6.028zm-7.69-2.926a12.673 12.673 0 0 1 2.349-1.629c.215.585.453 1.147.72 1.668.538 1.065 1.15 1.939 1.825 2.614a12.665 12.665 0 0 1-4.893-2.653zm-4.32-8.903h5.387c.05 2.16.357 4.23.89 6.073a13.696 13.696 0 0 0-2.852 1.961 12.592 12.592 0 0 1-3.424-8.034zm3.402-9.258c.88.782 1.838 1.44 2.864 1.972-.528 1.837-.834 3.896-.879 6.039h-5.386a12.608 12.608 0 0 1 3.401-8.011zm5.812-3.538c-.675.668-1.287 1.547-1.826 2.607-.266.533-.51 1.1-.731 1.7a12.817 12.817 0 0 1-2.359-1.638 12.586 12.586 0 0 1 4.916-2.67zm2.796-.279v6.067a12.698 12.698 0 0 1-4.225-.947c.21-.595.448-1.157.714-1.684.987-1.95 2.212-3.147 3.51-3.436zM31.5 31.5h-5.38c.045-1.962.311-3.839.775-5.518 1.452.59 3.006.93 4.6 1V31.5h.005zm5.845-5.51c.466 1.676.732 3.553.778 5.515h-5.376v-4.513c1.6-.074 3.148-.42 4.598-1.003zm-4.598-6.318c1.299.29 2.523 1.485 3.51 3.436.267.527.505 1.09.715 1.684-1.332.55-2.757.873-4.225.947v-6.067zm7.712 2.948a12.6 12.6 0 0 1-2.36 1.639 14.468 14.468 0 0 0-.73-1.7c-.539-1.066-1.152-1.94-1.826-2.608a12.578 12.578 0 0 1 4.916 2.67zm-7.712 10.127h5.381c-.045 1.973-.317 3.862-.788 5.552-1.452-.585-3-.925-4.593-.998v-4.554zm12.01-1.247H39.37c-.051-2.143-.352-4.208-.879-6.039a13.823 13.823 0 0 0 2.864-1.972 12.616 12.616 0 0 1 3.402 8.01zm-2.813-9.197a13.794 13.794 0 0 0-9.82-4.072c-3.708 0-7.2 1.447-9.821 4.072a13.824 13.824 0 0 0-4.071 9.821c0 3.708 1.446 7.2 4.071 9.82a13.82 13.82 0 0 0 9.82 4.072 13.79 13.79 0 0 0 9.821-4.072 13.82 13.82 0 0 0 4.071-9.82 13.79 13.79 0 0 0-4.07-9.82z" fill="#393939"/></g></svg>