<svg width="33" height="33" viewBox="0 0 33 33" xmlns="http://www.w3.org/2000/svg"><title>my_bascket_active_ico</title><g fill="none" fill-rule="evenodd"><path d="M32.833 16.5c0 9.02-7.312 16.333-16.333 16.333C7.48 32.833.167 25.521.167 16.5.167 7.48 7.479.167 16.5.167c9.02 0 16.333 7.312 16.333 16.333" fill="#FFF"/><path d="M32.833 16.5c0 9.02-7.312 16.333-16.333 16.333C7.48 32.833.167 25.521.167 16.5.167 7.48 7.479.167 16.5.167c9.02 0 16.333 7.312 16.333 16.333z" stroke="#BCBCBC"/><path d="M17.482 13.008h-2v-.857a1 1 0 1 1 2 0v.857zm5.247 9.153l-1.44-8.711c-.033-.215-.216-.442-.43-.442h-2.377v-.857c0-1.043-.957-1.893-2-1.893-1.042 0-2 .85-2 1.893v.857h-2.355c-.215 0-.397.227-.43.442l-1.441 8.748a.398.398 0 0 0 .096.34.43.43 0 0 0 .334.136H22.31c.248 0 .441-.16.441-.407 0-.053-.01-.063-.021-.106z" fill="#00CDBC"/></g></svg>