<svg width="32" height="32" viewBox="0 0 32 32" xmlns="http://www.w3.org/2000/svg"><title>preview_ico</title><g fill="none" fill-rule="evenodd"><path d="M31.852 15.926c0 8.795-7.13 15.926-15.926 15.926S0 24.722 0 15.926 7.13 0 15.926 0s15.926 7.13 15.926 15.926" fill="#393939"/><path d="M20.47 17.494c-1.052.837-2.709 1.835-4.644 1.835-2.09 0-4.127-1.146-6.063-3.408.306-.36.865-.961 1.615-1.56 1.052-.837 2.71-1.835 4.645-1.835 2.09 0 4.127 1.146 6.062 3.407-.305.36-.864.965-1.614 1.56m2.742-1.91c-2.237-2.752-4.653-4.149-7.187-4.149-1.004 0-2.02.224-3.024.662-.79.348-1.573.829-2.326 1.43-1.272 1.02-2.022 2.036-2.053 2.078a.55.55 0 0 0 .015.665c2.235 2.755 4.654 4.149 7.188 4.149 1.004 0 2.02-.224 3.024-.662a10.607 10.607 0 0 0 2.325-1.43c1.274-1.02 2.023-2.036 2.054-2.078a.55.55 0 0 0-.016-.665" fill="#FFF"/><path d="M17.93 15.383a.545.545 0 0 0-.543.544 1.465 1.465 0 0 1-2.928 0c0-.807.656-1.463 1.464-1.463a.546.546 0 0 0 .544-.544c0-.3-.245-.545-.544-.545a2.555 2.555 0 0 0-2.552 2.552 2.554 2.554 0 0 0 2.552 2.552 2.554 2.554 0 0 0 2.552-2.552.546.546 0 0 0-.544-.544" fill="#FFF"/></g></svg>