<svg width="18" height="19" viewBox="0 0 18 19" xmlns="http://www.w3.org/2000/svg" xmlns:xlink="http://www.w3.org/1999/xlink"><title>print_ico</title><defs><path id="a" d="M0 18h17.464V.536H0z"/></defs><g fill="none" fill-rule="evenodd"><g transform="translate(0 .064)"><mask id="b" fill="#fff"><use xlink:href="#a"/></mask><path d="M16.51 14.356h-3.173v-2.777h1.266c.267 0 .477-.21.477-.476a.472.472 0 0 0-.477-.477H2.877a.472.472 0 0 0-.477.477c0 .267.21.476.477.476h1.266v2.777H.953V4.18h15.558v10.176zm-11.429 2.69h7.302V11.58H5.081v5.467zm0-13.82h7.302V1.49H5.081v1.737zm12.384.477a.472.472 0 0 0-.477-.477h-3.651V1.012a.472.472 0 0 0-.477-.477H4.604a.472.472 0 0 0-.476.477v2.214H.477A.472.472 0 0 0 0 3.703v11.13a.49.49 0 0 0 .477.476h3.65v2.214c0 .268.21.477.477.477h8.256c.267 0 .477-.21.477-.477V15.31h3.65c.268 0 .478-.21.478-.476V3.703z" fill="#393939" mask="url(#b)"/></g><path d="M13.67 6.516h-1.62a.472.472 0 0 0-.477.477c0 .267.21.477.477.477h1.62c.267 0 .477-.21.477-.477a.472.472 0 0 0-.477-.477" fill="#393939"/></g></svg>