<svg width="34" height="29" viewBox="0 0 34 29" xmlns="http://www.w3.org/2000/svg"><title>receipt_ico copy</title><g fill="#393939" fill-rule="evenodd"><path d="M32.262 26.546a.813.813 0 0 1-.812.813H2.596a.813.813 0 0 1-.812-.813v-13.31c0-.447.364-.812.812-.812h16.082l-4.72 4.72a.68.68 0 0 0-.161.259l-1.165 3.5a.66.66 0 0 0 .63.873c.07 0 .14-.01.21-.033l3.498-1.167a.668.668 0 0 0 .261-.16l7.99-7.992h6.229c.448 0 .812.365.812.811v13.311zM28.285 4.694l1.394 1.393-13.277 13.278-2.09.697.696-2.09L28.285 4.693zm2.64-2.64a.49.49 0 0 1 .694 0l.7.7a.488.488 0 0 1 .144.347.485.485 0 0 1-.144.347l-1.7 1.7-1.193-1.194-.2-.2 1.7-1.7zm.525 9.04h-4.9l6.709-6.706c.344-.344.533-.801.533-1.287 0-.485-.19-.942-.533-1.285l-.7-.7a1.819 1.819 0 0 0-2.573 0l-9.981 9.979H2.596c-1.18 0-2.14.96-2.14 2.14v13.311c0 1.18.96 2.14 2.14 2.14H31.45c1.18 0 2.14-.96 2.14-2.14v-13.31c0-1.181-.96-2.141-2.14-2.141z"/><path d="M29.824 24.538h-.395a.665.665 0 1 0 0 1.33h.395a.665.665 0 0 0 0-1.33m-3.035 0H11.678a.664.664 0 1 0 0 1.33h15.11a.664.664 0 1 0 0-1.33m3.036-3.825h-9.898a.663.663 0 0 0 0 1.327h9.898a.665.665 0 0 0 .665-.664.665.665 0 0 0-.665-.663M7.388 22.46v-2.559c.595.255 1.068.594 1.068 1.359 0 .691-.414 1.079-1.068 1.2zm-.57-4.135c-.643-.244-1.165-.498-1.165-1.189 0-.631.486-.934 1.165-1.019v2.208zm.643.231v-2.463c.848.06 1.163.45 1.456.45.364 0 .533-.461.533-.692 0-.595-1.164-.85-1.989-.873v-.328c0-.146-.182-.28-.365-.28-.205 0-.35.134-.35.28V15c-1.153.121-2.306.729-2.306 2.256 0 1.553 1.213 1.99 2.305 2.378v2.85c-1.237-.097-1.565-.946-1.965-.946-.302 0-.557.4-.557.691 0 .594 1.018 1.407 2.522 1.432v.375c0 .146.146.279.352.279.182 0 .364-.133.364-.28v-.412c1.309-.182 2.207-1.006 2.207-2.498 0-1.65-1.152-2.183-2.207-2.57z"/></g></svg>