<svg width="20" height="21" viewBox="0 0 20 21" xmlns="http://www.w3.org/2000/svg"><title>search_ico</title><path d="M8.291 15.196a6.913 6.913 0 0 1-6.906-6.905 6.913 6.913 0 0 1 6.906-6.906 6.913 6.913 0 0 1 6.905 6.906 6.913 6.913 0 0 1-6.905 6.905zm6.086-1.268l.26-.308a8.293 8.293 0 0 0 1.945-5.33c0-4.57-3.72-8.29-8.291-8.29C3.719 0 0 3.72 0 8.29c0 4.572 3.72 8.291 8.291 8.291 1.71 0 3.353-.518 4.749-1.5l.313-.22 5.456 5.674a.71.71 0 0 0 .98.019.693.693 0 0 0 .018-.979l-5.43-5.647z" fill="#00CDBC" fill-rule="evenodd"/></svg>