<svg width="33" height="33" viewBox="0 0 33 33" xmlns="http://www.w3.org/2000/svg"><title>share_round</title><g fill="none" fill-rule="evenodd"><path d="M32.833 16.5c0 9.02-7.312 16.333-16.333 16.333C7.48 32.833.167 25.521.167 16.5.167 7.48 7.479.167 16.5.167c9.02 0 16.333 7.312 16.333 16.333" fill="#FFF"/><path d="M32.833 16.5c0 9.02-7.312 16.333-16.333 16.333C7.48 32.833.167 25.521.167 16.5.167 7.48 7.479.167 16.5.167c9.02 0 16.333 7.312 16.333 16.333z" stroke="#BCBCBC"/><path d="M13.21 15.198c.584 0 1.054.47 1.054 1.054 0 .585-.47 1.055-1.055 1.055-.584 0-1.055-.47-1.055-1.055 0-.584.485-1.054 1.055-1.054m6.072-6.058c.584 0 1.054.47 1.054 1.055 0 .584-.47 1.055-1.054 1.055-.584 0-1.054-.47-1.054-1.055 0-.584.47-1.055 1.054-1.055m0 12.13c.584 0 1.054.47 1.054 1.054 0 .584-.47 1.055-1.054 1.055-.584 0-1.054-.47-1.054-1.055 0-.584.47-1.055 1.054-1.055m-6.072-2.807c.399 0 .77-.114 1.098-.3l3.05 3.05a2.22 2.22 0 0 0-.3 1.098c0 1.225.998 2.209 2.21 2.209a2.22 2.22 0 0 0 2.209-2.209c0-1.226-.998-2.21-2.21-2.21-.398 0-.77.115-1.097.3l-3.036-3.05c.185-.328.3-.699.3-1.098 0-.399-.115-.77-.3-1.097l3.036-3.036c.328.185.699.3 1.098.3a2.211 2.211 0 0 0 2.209-2.21A2.22 2.22 0 0 0 19.266 8a2.22 2.22 0 0 0-2.208 2.209c0 .4.113.77.299 1.098l-3.05 3.021a2.171 2.171 0 0 0-1.098-.285A2.211 2.211 0 0 0 11 16.253a2.22 2.22 0 0 0 2.21 2.209" fill="#393939"/></g></svg>