<svg width="11" height="17" viewBox="0 0 11 17" xmlns="http://www.w3.org/2000/svg"><title>share_ico</title><path d="M2.21 7.198c.584 0 1.054.47 1.054 1.054 0 .585-.47 1.055-1.055 1.055-.584 0-1.055-.47-1.055-1.055 0-.584.485-1.054 1.055-1.054M8.281 1.14c.584 0 1.054.47 1.054 1.055 0 .584-.47 1.055-1.054 1.055-.584 0-1.054-.47-1.054-1.055 0-.584.47-1.055 1.054-1.055m0 12.13c.584 0 1.054.47 1.054 1.054 0 .584-.47 1.055-1.054 1.055-.584 0-1.054-.47-1.054-1.055 0-.584.47-1.055 1.054-1.055m-6.072-2.807c.399 0 .77-.114 1.098-.3l3.05 3.05a2.22 2.22 0 0 0-.3 1.098c0 1.225.998 2.209 2.21 2.209a2.22 2.22 0 0 0 2.209-2.209c0-1.226-.998-2.21-2.21-2.21-.398 0-.77.115-1.097.3L4.133 9.35c.185-.328.3-.699.3-1.098 0-.399-.115-.77-.3-1.097L7.17 4.119c.328.185.699.3 1.098.3a2.211 2.211 0 0 0 2.209-2.21A2.22 2.22 0 0 0 8.266 0a2.22 2.22 0 0 0-2.208 2.209c0 .4.113.77.299 1.098l-3.05 3.021a2.171 2.171 0 0 0-1.098-.285A2.211 2.211 0 0 0 0 8.253a2.22 2.22 0 0 0 2.21 2.209" fill="#393939" fill-rule="evenodd"/></svg>