<svg xmlns="http://www.w3.org/2000/svg" width="512" height="512" viewBox="0 0 114.498 114.497"><path d="M4.215 109.997a7.311 7.311 0 0 0 6.748 4.5h92.571a7.308 7.308 0 0 0 7.309-7.31V85.264c0-4.037-3.271-7.309-7.309-7.309s-7.31 3.271-7.31 7.309v14.615H28.525L62 66.182a7.308 7.308 0 0 0 .373-9.896L26.81 14.617h69.416v4.872c0 4.037 3.271 7.308 7.31 7.308s7.309-3.271 7.309-7.308V7.309A7.308 7.308 0 0 0 103.536 0H10.963a7.308 7.308 0 0 0-5.559 12.054l41.484 48.604-41.109 41.38a7.31 7.31 0 0 0-1.564 7.959z" fill="#c3c3c3"/></svg>