<svg width="20" height="26" viewBox="0 0 20 26" xmlns="http://www.w3.org/2000/svg" xmlns:xlink="http://www.w3.org/1999/xlink"><title>wo_profile_ico</title><defs><path id="a" d="M9.98 24.855h9.98V0H0v24.855z"/></defs><g fill="none" fill-rule="evenodd"><mask id="b" fill="#fff"><use xlink:href="#a"/></mask><path d="M10.051 24.855H0c0-7.246 6.364-7.245 7.778-9.14l.247-1.323a4.957 4.957 0 0 1-1.153-.85c-2.63-.356-5.633-.918-5.633-.918C7.618 9.62.622.374 9.95.004V0l.03.002.027-.002v.004c9.33.37 2.334 9.615 8.714 12.62 0 0-3.003.562-5.633.919a5 5 0 0 1-1.102.821l.271 1.446c1.55 1.802 7.703 1.92 7.703 9.045h-9.91z" fill="#FFF" mask="url(#b)"/></g></svg>