<svg width="41" height="41" viewBox="0 0 41 41" xmlns="http://www.w3.org/2000/svg"><title>youtube_round_ico</title><g fill="none" fill-rule="evenodd"><path d="M40.5 20.5c0 11.046-8.954 20-20 20s-20-8.954-20-20 8.954-20 20-20 20 8.954 20 20" fill="#FFF"/><path d="M40.5 20.5c0 11.046-8.954 20-20 20s-20-8.954-20-20 8.954-20 20-20 20 8.954 20 20z" stroke="#C6C6C6"/><path d="M16.318 18.387h1.187l.001-4.104 1.403-3.517H17.61l-.745 2.61-.757-2.618h-1.285l1.492 3.526.003 4.103zm3.481-1.44c0 .305.226.552.502.552.275 0 .5-.247.5-.551v-2.85c0-.301-.225-.55-.5-.55-.276 0-.502.249-.502.55v2.85zm-.985-2.125c0-.513.043-.914.128-1.204.086-.288.24-.52.463-.694.223-.177.507-.265.853-.265.291 0 .541.058.75.169.208.114.371.26.482.44.114.182.191.367.232.557.043.194.064.484.064.876v1.354c0 .497-.02.86-.059 1.093-.038.233-.12.449-.248.65a1.18 1.18 0 0 1-.484.446 1.55 1.55 0 0 1-.684.144c-.286 0-.527-.04-.726-.123a.992.992 0 0 1-.465-.371 1.633 1.633 0 0 1-.237-.6c-.047-.234-.07-.586-.07-1.055l.001-1.417zm3.815 3.022a.757.757 0 0 0 .271.345.79.79 0 0 0 .462.127.716.716 0 0 0 .432-.135c.125-.09.23-.226.316-.405l-.02.443h1.258v-5.352h-.99v4.166a.412.412 0 0 1-.826 0v-4.166H22.5v3.61c0 .46.007.766.021.922.015.154.05.3.11.445zm4.341 8.709l-.846.005c0 .034 0 .072-.002.115v.472a.462.462 0 0 1-.463.459h-.166a.462.462 0 0 1-.463-.46v-1.242h1.94v-.73c0-.532-.014-1.065-.059-1.37-.139-.964-1.49-1.117-2.177-.623a1.27 1.27 0 0 0-.473.637c-.095.277-.144.656-.144 1.136v1.605c.001 2.667 3.24 2.29 2.853-.004zm-3.533.357l-.003-2.69c0-1.025-.767-1.64-1.808-.81l.004-2.001-1.127.003-.005 6.904.926-.014.085-.43c1.185 1.087 1.93.342 1.928-.962zm-3.61-3.702h-1.13v3.233c0 .467.028.702-.002.784-.092.25-.505.516-.666.027-.026-.087-.002-.344-.003-.79l-.004-3.254H16.9l.003 3.203c.002.493-.01.858.004 1.025.028.294.017.637.29.832.508.365 1.481-.055 1.726-.578l-.003.668h.907v-5.15zm-4.06 5.152l-.002-6.052h1.355v-.898l-3.61-.004v.88l1.127.004v6.07h1.13zm12.851-6.37v5.747c0 1.377-1.196 2.505-2.656 2.505H15.038c-1.462 0-2.657-1.128-2.657-2.505V21.99c0-1.38 1.195-2.508 2.657-2.508h10.924c1.46 0 2.656 1.129 2.656 2.508zm-6.514 1.69c-.27 0-.493.182-.493.404v3.022c0 .22.222.403.493.403.273 0 .495-.182.495-.403v-3.022c0-.222-.222-.404-.495-.404zm4.011 1.33h-1.069l.004-.62c0-.276.227-.502.504-.502h.07c.276 0 .504.226.504.502l-.013.62z" fill="#393939"/></g></svg>