<svg width="16" height="16" viewBox="0 0 16 16" xmlns="http://www.w3.org/2000/svg"><title>zoom_ico copy</title><g fill="#393939" fill-rule="evenodd"><path d="M4.724 6.88h1.553v1.552a.442.442 0 0 0 .883 0V6.88h1.552a.442.442 0 0 0 0-.883H7.16V4.444a.442.442 0 0 0-.883 0v1.553H4.724a.442.442 0 0 0 0 .883"/><path d="M6.718 1.183a5.26 5.26 0 0 1 5.255 5.255 5.26 5.26 0 0 1-5.255 5.255 5.26 5.26 0 0 1-5.255-5.255 5.26 5.26 0 0 1 5.255-5.255m8.579 13.77l-4.128-4.293a6.095 6.095 0 0 0 1.688-4.222A6.145 6.145 0 0 0 6.718.3 6.145 6.145 0 0 0 .58 6.438a6.145 6.145 0 0 0 6.138 6.139 6.143 6.143 0 0 0 3.799-1.321l4.143 4.309a.441.441 0 1 0 .637-.612"/></g></svg>