<svg width="36" height="36" viewBox="0 0 36 36" xmlns="http://www.w3.org/2000/svg"><title>zoom_ico</title><g fill="none" fill-rule="evenodd"><path d="M35.818 18c0 9.84-7.977 17.818-17.818 17.818C8.159 35.818.182 27.841.182 18 .182 8.16 8.159.182 18 .182 27.841.182 35.818 8.159 35.818 18" fill="#FFF"/><path d="M35.818 18c0 9.84-7.977 17.818-17.818 17.818C8.159 35.818.182 27.841.182 18 .182 8.16 8.159.182 18 .182 27.841.182 35.818 8.159 35.818 18z" stroke="#E2E2E2"/><path d="M14.724 16.88h1.553v1.552a.442.442 0 0 0 .883 0V16.88h1.552a.442.442 0 0 0 0-.883H17.16v-1.553a.442.442 0 0 0-.883 0v1.553h-1.553a.442.442 0 0 0 0 .883" fill="#393939"/><path d="M16.718 11.183a5.26 5.26 0 0 1 5.255 5.255 5.26 5.26 0 0 1-5.255 5.255 5.26 5.26 0 0 1-5.255-5.255 5.26 5.26 0 0 1 5.255-5.255m8.579 13.77l-4.128-4.293a6.095 6.095 0 0 0 1.688-4.222 6.145 6.145 0 0 0-6.139-6.138 6.145 6.145 0 0 0-6.138 6.138 6.145 6.145 0 0 0 6.138 6.139 6.143 6.143 0 0 0 3.799-1.321l4.143 4.309a.441.441 0 1 0 .637-.612" fill="#393939"/></g></svg>