<?xml version="1.0" encoding="utf-8"?>
<!-- Generator: Adobe Illustrator 16.0.0, SVG Export Plug-In . SVG Version: 6.00 Build 0)  -->
<!DOCTYPE svg PUBLIC "-//W3C//DTD SVG 1.1//EN" "http://www.w3.org/Graphics/SVG/1.1/DTD/svg11.dtd">
<svg version="1.1" id="Шар_1" xmlns="http://www.w3.org/2000/svg" xmlns:xlink="http://www.w3.org/1999/xlink" x="0px" y="0px"
	 width="12px" height="15.905px" viewBox="0 0 12 15.905" enable-background="new 0 0 12 15.905" xml:space="preserve">
<path fill="#393939" d="M11.423,5.424H10.29V3.078C10.29,1.38,8.909,0,7.213,0H4.787C3.091,0,1.71,1.38,1.71,3.078v2.347H0.577
	C0.259,5.424,0,5.683,0,6.001v5.637c0,2.353,1.914,4.267,4.267,4.267h3.467c2.353,0,4.267-1.914,4.267-4.267V6.001
	C12,5.683,11.741,5.424,11.423,5.424z M6.577,10.527v2.308c0,0.318-0.259,0.576-0.577,0.576s-0.577-0.258-0.577-0.576v-2.308
	c-0.068-0.095-0.109-0.212-0.109-0.338c0-0.318,0.258-0.577,0.577-0.577h0.219c0.319,0,0.577,0.259,0.577,0.577
	C6.687,10.315,6.646,10.432,6.577,10.527z M9.136,5.424H2.864V3.078c0-1.061,0.862-1.923,1.923-1.923h2.426
	c1.061,0,1.923,0.863,1.923,1.923V5.424z"/>
</svg>
