<?xml version="1.0" encoding="UTF-8"?>
<svg width="64px" height="64px" viewBox="0 0 64 64" version="1.1" xmlns="http://www.w3.org/2000/svg" xmlns:xlink="http://www.w3.org/1999/xlink">
    <!-- Generator: Sketch 43.2 (39069) - http://www.bohemiancoding.com/sketch -->
    <title>any_questions_round_ico</title>
    <desc>Created with Sketch.</desc>
    <defs></defs>
    <g id="Symbols" stroke="none" stroke-width="1" fill="none" fill-rule="evenodd">
        <g id="any_questions_round_ico">
            <g id="Group">
                <g id="Page-1">
                    <path d="M63.1407816,31.7542989 C63.1407816,49.088 49.0887356,63.1407816 31.7542989,63.1407816 C14.4198621,63.1407816 0.367816092,49.088 0.367816092,31.7542989 C0.367816092,14.4205977 14.4198621,0.367816092 31.7542989,0.367816092 C49.0887356,0.367816092 63.1407816,14.4205977 63.1407816,31.7542989 Z" id="Stroke-3" stroke="#E2E2E2"></path>
                    <path d="M30.0697011,41.6235402 L32.6311724,41.6235402 L32.6311724,38.7001379 L30.0697011,38.7001379 L30.0697011,41.6235402 Z M30.6545287,36.1114483 L30.2374253,31.6012874 L30.3764598,31.4622529 C32.1581609,31.4254713 33.5264368,31.053977 34.4827586,30.3485057 C35.4383448,29.6430345 35.9165057,28.6874483 35.9165057,27.4810115 C35.9165057,26.4606897 35.5442759,25.6022069 34.8027586,24.9048276 C34.0597701,24.2096552 33.0762299,23.8609655 31.8514023,23.8609655 C29.9770115,23.8609655 28.288,24.7341609 26.7843678,26.4790805 L25.3645977,25.1144828 C27.1462989,22.962023 29.3267126,21.8850575 31.9073103,21.8850575 C33.7625747,21.8850575 35.2654713,22.4051494 36.4174713,23.4438621 C37.5672644,24.484046 38.144,25.819954 38.144,27.4530575 C38.144,29.1045517 37.6047816,30.3992644 36.5285517,31.3371954 C35.4523218,32.2743908 34.0597701,32.8636322 32.3523678,33.1041839 L32.0742989,36.1114483 L30.6545287,36.1114483 Z" id="Fill-5" fill="#393939"></path>
                </g>
            </g>
        </g>
    </g>
</svg>