<?xml version="1.0" encoding="UTF-8"?>
<svg width="14px" height="21px" viewBox="0 0 14 21" version="1.1" xmlns="http://www.w3.org/2000/svg" xmlns:xlink="http://www.w3.org/1999/xlink">
    <!-- Generator: Sketch 43.2 (39069) - http://www.bohemiancoding.com/sketch -->
    <title>any_questions_ico</title>
    <desc>Created with Sketch.</desc>
    <defs></defs>
    <g id="Symbols" stroke="none" stroke-width="1" fill="none" fill-rule="evenodd">
        <g id="any_questions_ico" fill="#393939">
            <g id="Group">
                <g id="Page-1">
                    <path d="M5.06970115,20.6235402 L7.63117241,20.6235402 L7.63117241,17.7001379 L5.06970115,17.7001379 L5.06970115,20.6235402 Z M5.65452874,15.1114483 L5.23742529,10.6012874 L5.37645977,10.4622529 C7.15816092,10.4254713 8.52643678,10.053977 9.48275862,9.34850575 C10.4383448,8.64303448 10.9165057,7.68744828 10.9165057,6.48101149 C10.9165057,5.46068966 10.5442759,4.6022069 9.80275862,3.90482759 C9.05977011,3.20965517 8.07622989,2.86096552 6.8514023,2.86096552 C4.97701149,2.86096552 3.288,3.73416092 1.78436782,5.47908046 L0.364597701,4.11448276 C2.14629885,1.96202299 4.32671264,0.885057471 6.90731034,0.885057471 C8.76257471,0.885057471 10.2654713,1.40514943 11.4174713,2.44386207 C12.5672644,3.48404598 13.144,4.81995402 13.144,6.45305747 C13.144,8.10455172 12.6047816,9.39926437 11.5285517,10.3371954 C10.4523218,11.2743908 9.05977011,11.8636322 7.35236782,12.1041839 L7.07429885,15.1114483 L5.65452874,15.1114483 Z" id="Fill-5"></path>
                </g>
            </g>
        </g>
    </g>
</svg>