<?xml version="1.0" encoding="UTF-8"?>
<svg width="21px" height="14px" viewBox="0 0 21 14" version="1.1" xmlns="http://www.w3.org/2000/svg" xmlns:xlink="http://www.w3.org/1999/xlink">
    <!-- Generator: Sketch 43.2 (39069) - http://www.bohemiancoding.com/sketch -->
    <title>back_arrow</title>
    <desc>Created with Sketch.</desc>
    <defs>
        <polygon id="path-1" points="20.975318 0 0 0 0 13.3612148 10.487659 13.3612148 20.975318 13.3612148 20.975318 0"></polygon>
    </defs>
    <g id="Symbols" stroke="none" stroke-width="1" fill="none" fill-rule="evenodd">
        <g id="back_arrow">
            <g id="Page-1">
                <mask id="mask-2" fill="white">
                    <use xlink:href="#path-1"></use>
                </mask>
                <g id="Clip-2"></g>
                <path d="M15.4321636,13.3612148 L10.4880378,13.3612148 C10.1571116,13.3612148 9.88900923,13.0931124 9.88900923,12.7614815 C9.88900923,12.4305906 10.1578163,12.1617836 10.4880378,12.1617836 L15.4321636,12.1617836 C17.827573,12.1617836 19.7766267,10.2128003 19.7766267,7.81668624 C19.7766267,5.42124161 17.827573,3.47155369 15.4321636,3.47155369 L2.04698909,3.47155369 L3.29768708,4.72225168 C3.41456124,4.83976007 3.47329782,4.99239765 3.47329782,5.14637416 C3.47329782,5.29968121 3.41456124,5.45298826 3.29768708,5.56982718 C3.06404446,5.80413926 2.68449413,5.80413926 2.45085151,5.56982718 L0.176297819,3.29731711 L0.174923658,3.29661242 C0.174923658,3.29661242 0.174923658,3.29597819 0.17428943,3.29527349 C0.17428943,3.29527349 0.173584732,3.29527349 0.172950503,3.29460403 C0.172950503,3.29460403 0.172245805,3.29393456 0.171576342,3.2932651 C0.172245805,3.2932651 0.170906879,3.2925604 0.170906879,3.2925604 L0.170237416,3.29192617 C0.169532718,3.29192617 0.168863255,3.29122148 0.168863255,3.29058725 C0.0952575503,3.21490268 0.0445897651,3.12241107 0.0189739933,3.02378859 L0.0189739933,3.02311913 C0.0128783557,2.99947651 0.00815687919,2.97583389 0.00477432886,2.95085235 L0.00477432886,2.94951342 L0.00477432886,2.94880872 C-0.0080511745,2.84750839 0.00477432886,2.74219128 0.0452944631,2.64356879 C0.0777105705,2.56862416 0.122952181,2.50178356 0.179680369,2.4463943 L2.45085151,0.175223154 C2.68519883,-0.0584194631 3.06404446,-0.0584194631 3.29768708,0.175223154 C3.53206963,0.40957047 3.53206963,0.788451342 3.29768708,1.02276342 L2.04698909,2.27416611 L15.4321636,2.27416611 C18.4887559,2.27416611 20.975318,4.76146812 20.975318,7.8173557 C20.975318,10.8746174 18.4887559,13.3612148 15.4321636,13.3612148" id="Fill-1" fill="#010002" mask="url(#mask-2)"></path>
            </g>
        </g>
    </g>
</svg>