<?xml version="1.0" encoding="UTF-8"?>
<svg width="18px" height="18px" viewBox="0 0 18 18" version="1.1" xmlns="http://www.w3.org/2000/svg" xmlns:xlink="http://www.w3.org/1999/xlink">
    <!-- Generator: Sketch 43.2 (39069) - http://www.bohemiancoding.com/sketch -->
    <title>bascket_ico</title>
    <desc>Created with Sketch.</desc>
    <defs></defs>
    <g id="Symbols" stroke="none" stroke-width="1" fill="none" fill-rule="evenodd">
        <g id="bascket_ico" fill="#393939">
            <g id="Page-1">
                <path d="M7.23257143,2.61574286 C7.23257143,1.84345714 7.85742857,1.2186 8.62971429,1.2186 C9.40285714,1.2186 10.0268571,1.84345714 10.0268571,2.61574286 L10.0268571,4.01288571 L7.23257143,4.01288571 L7.23257143,2.61574286 Z M17.2508571,16.4543143 L15.2588571,4.5186 C15.2142857,4.22117143 14.9622857,4.01288571 14.664,4.01288571 L11.2457143,4.01288571 L11.2457143,2.61574286 C11.2457143,1.17402857 10.0722857,-0.000257142857 8.62971429,-0.000257142857 C7.188,-0.000257142857 6.01371429,1.17402857 6.01371429,2.61574286 L6.01371429,4.01288571 L2.59542857,4.01288571 C2.298,4.01288571 2.04514286,4.22117143 2.00057143,4.5186 L0.00857142857,16.5580286 C-0.0205714286,16.7363143 0.024,16.9146 0.143142857,17.0483143 C0.261428571,17.1820286 0.425142857,17.2566 0.603428571,17.2566 L16.656,17.2566 L16.6714286,17.2566 C17.0134286,17.2566 17.2808571,16.9891714 17.2808571,16.6471714 C17.2808571,16.5726 17.2654286,16.5134571 17.2508571,16.4543143 L17.2508571,16.4543143 Z" id="Fill-1"></path>
            </g>
        </g>
    </g>
</svg>