<?xml version="1.0" encoding="UTF-8"?>
<svg width="24px" height="24px" viewBox="0 0 24 24" version="1.1" xmlns="http://www.w3.org/2000/svg" xmlns:xlink="http://www.w3.org/1999/xlink">
    <!-- Generator: Sketch 43.2 (39069) - http://www.bohemiancoding.com/sketch -->
    <title>call_ico</title>
    <desc>Created with Sketch.</desc>
    <defs></defs>
    <g id="Symbols" stroke="none" stroke-width="1" fill="none" fill-rule="evenodd">
        <g id="call_ico" fill="#393939">
            <g id="Group">
                <g id="Page-1">
                    <path d="M2.59155349,2.15475349 C2.2283907,2.15475349 2.03564651,2.34749767 2.03564651,2.71140465 C2.03564651,13.6851721 10.9636465,22.6124279 21.937414,22.6124279 C22.3005767,22.6124279 22.4933209,22.4196837 22.4933209,22.0565209 L22.4933209,17.9456372 C22.4933209,17.580986 22.3005767,17.3897302 21.937414,17.3897302 C20.2964837,17.3897302 18.7567628,17.1322419 17.361414,16.6239628 L17.2229953,16.5547535 C17.1805767,16.5264744 17.0235535,16.5279628 16.837507,16.7140093 L13.8339721,19.7168 L13.4068093,19.4883349 C9.77443721,17.5430326 6.84308837,14.6072186 5.1508093,11.224893 L4.93573953,10.7932651 L8.00699535,7.85670698 C8.13797209,7.63196279 8.17815814,7.38861395 8.13871628,7.27103256 C7.63490233,5.7595907 7.37964651,4.22507907 7.37964651,2.71140465 C7.37964651,2.34749767 7.18764651,2.15475349 6.82373953,2.15475349 L2.59155349,2.15475349 Z M21.937414,23.9184744 C10.2432744,23.9184744 0.7296,14.4048 0.7296,2.71140465 C0.7296,1.6315907 1.51248372,0.848706977 2.59155349,0.848706977 L6.82373953,0.848706977 C7.90206512,0.848706977 8.68494884,1.6315907 8.68494884,2.71140465 C8.68494884,4.08442791 8.91862326,5.47977674 9.37778605,6.85726512 C9.55564651,7.3915907 9.4336,8.07252093 9.05927442,8.63512558 L8.96699535,8.74452093 L6.54094884,11.0671256 C8.07025116,13.9002419 10.5521116,16.3739163 13.6002977,18.1041488 L15.9132279,15.7904744 C16.4758326,15.228614 17.2750884,15.0775442 17.8682047,15.4191256 C19.1042977,15.8604279 20.4736,16.0836837 21.937414,16.0836837 C23.0164837,16.0836837 23.7993674,16.8673116 23.7993674,17.9456372 L23.7993674,22.0565209 C23.7993674,23.1355907 23.0164837,23.9184744 21.937414,23.9184744 L21.937414,23.9184744 Z" id="Fill-5"></path>
                </g>
            </g>
        </g>
    </g>
</svg>