<?xml version="1.0" encoding="UTF-8"?>
<svg width="64px" height="64px" viewBox="0 0 64 64" version="1.1" xmlns="http://www.w3.org/2000/svg" xmlns:xlink="http://www.w3.org/1999/xlink">
    <!-- Generator: Sketch 43.2 (39069) - http://www.bohemiancoding.com/sketch -->
    <title>call_round_ico</title>
    <desc>Created with Sketch.</desc>
    <defs></defs>
    <g id="Symbols" stroke="none" stroke-width="1" fill="none" fill-rule="evenodd">
        <g id="call_round_ico">
            <g id="Group">
                <g id="Page-1">
                    <path d="M63.8749767,32.1235349 C63.8749767,49.6587907 49.6595349,63.8749767 32.1235349,63.8749767 C14.5875349,63.8749767 0.372093023,49.6587907 0.372093023,32.1235349 C0.372093023,14.5882791 14.5875349,0.372093023 32.1235349,0.372093023 C49.6595349,0.372093023 63.8749767,14.5882791 63.8749767,32.1235349 Z" id="Stroke-3" stroke="#E2E2E2"></path>
                    <path d="M22.5915535,21.1547535 C22.2283907,21.1547535 22.0356465,21.3474977 22.0356465,21.7114047 C22.0356465,32.6851721 30.9636465,41.6124279 41.937414,41.6124279 C42.3005767,41.6124279 42.4933209,41.4196837 42.4933209,41.0565209 L42.4933209,36.9456372 C42.4933209,36.580986 42.3005767,36.3897302 41.937414,36.3897302 C40.2964837,36.3897302 38.7567628,36.1322419 37.361414,35.6239628 L37.2229953,35.5547535 C37.1805767,35.5264744 37.0235535,35.5279628 36.837507,35.7140093 L33.8339721,38.7168 L33.4068093,38.4883349 C29.7744372,36.5430326 26.8430884,33.6072186 25.1508093,30.224893 L24.9357395,29.7932651 L28.0069953,26.856707 C28.1379721,26.6319628 28.1781581,26.388614 28.1387163,26.2710326 C27.6349023,24.7595907 27.3796465,23.2250791 27.3796465,21.7114047 C27.3796465,21.3474977 27.1876465,21.1547535 26.8237395,21.1547535 L22.5915535,21.1547535 Z M41.937414,42.9184744 C30.2432744,42.9184744 20.7296,33.4048 20.7296,21.7114047 C20.7296,20.6315907 21.5124837,19.848707 22.5915535,19.848707 L26.8237395,19.848707 C27.9020651,19.848707 28.6849488,20.6315907 28.6849488,21.7114047 C28.6849488,23.0844279 28.9186233,24.4797767 29.377786,25.8572651 C29.5556465,26.3915907 29.4336,27.0725209 29.0592744,27.6351256 L28.9669953,27.7445209 L26.5409488,30.0671256 C28.0702512,32.9002419 30.5521116,35.3739163 33.6002977,37.1041488 L35.9132279,34.7904744 C36.4758326,34.228614 37.2750884,34.0775442 37.8682047,34.4191256 C39.1042977,34.8604279 40.4736,35.0836837 41.937414,35.0836837 C43.0164837,35.0836837 43.7993674,35.8673116 43.7993674,36.9456372 L43.7993674,41.0565209 C43.7993674,42.1355907 43.0164837,42.9184744 41.937414,42.9184744 L41.937414,42.9184744 Z" id="Fill-5" fill="#393939"></path>
                </g>
            </g>
        </g>
    </g>
</svg>