<?xml version="1.0" encoding="UTF-8"?>
<svg width="34px" height="26px" viewBox="0 0 34 26" version="1.1" xmlns="http://www.w3.org/2000/svg" xmlns:xlink="http://www.w3.org/1999/xlink">
    <!-- Generator: Sketch 43.2 (39069) - http://www.bohemiancoding.com/sketch -->
    <title>card_ico copy</title>
    <desc>Created with Sketch.</desc>
    <defs></defs>
    <g id="Symbols" stroke="none" stroke-width="1" fill="none" fill-rule="evenodd">
        <g id="card_ico-copy" fill="#393939">
            <g id="Page-1">
                <path d="M30.6504558,24.0566698 L9.61306047,24.0566698 C8.97231628,24.0566698 8.45138605,23.5357395 8.45138605,22.8942512 L8.45138605,10.729786 C8.45138605,10.1202977 8.92171163,9.62094884 9.51854884,9.57108837 L26.5708279,9.57108837 C26.5998512,9.57108837 26.627386,9.57034419 26.6549209,9.56662326 L30.6497116,9.56662326 C31.2912,9.56662326 31.8128744,10.0882977 31.8128744,10.729786 L31.8128744,22.8942512 C31.8128744,23.5357395 31.2912,24.0566698 30.6504558,24.0566698 L30.6504558,24.0566698 Z M2.43464186,8.02243721 L2.43464186,5.98411163 L25.7961302,5.98411163 L25.7961302,8.01797209 L9.61306047,8.01797209 C9.56096744,8.01797209 9.50887442,8.02020465 9.4567814,8.02243721 L2.43464186,8.02243721 Z M6.9019907,10.729786 L6.9019907,16.6795535 L3.59631628,16.6795535 C2.95557209,16.6795535 2.43464186,16.1586233 2.43464186,15.5171349 L2.43464186,9.57108837 L7.16245581,9.57108837 C6.99575814,9.92234419 6.9019907,10.3152744 6.9019907,10.729786 L6.9019907,10.729786 Z M2.43464186,3.35341395 C2.43464186,2.71266977 2.95557209,2.19099535 3.59631628,2.19099535 L24.6337116,2.19099535 C25.2752,2.19099535 25.7961302,2.71266977 25.7961302,3.35341395 L25.7961302,4.43471628 L2.43464186,4.43471628 L2.43464186,3.35341395 Z M30.6504558,8.01797209 L27.3455256,8.01797209 L27.3455256,3.35341395 C27.3455256,1.8576 26.1295256,0.6416 24.6337116,0.6416 L3.59631628,0.6416 C2.1019907,0.6416 0.885990698,1.85834419 0.885990698,3.35341395 L0.885990698,15.5171349 C0.885990698,17.0122047 2.1019907,18.2289488 3.59631628,18.2289488 L6.9019907,18.2289488 L6.9019907,22.8942512 C6.9019907,24.3893209 8.11873488,25.6053209 9.61306047,25.6053209 L30.6504558,25.6053209 C32.1455256,25.6053209 33.3615256,24.3893209 33.3615256,22.8942512 L33.3615256,10.729786 C33.3615256,9.23397209 32.1455256,8.01797209 30.6504558,8.01797209 L30.6504558,8.01797209 Z" id="Fill-5"></path>
                <path d="M22.4651535,18.9963535 C21.2603163,18.9963535 20.2802233,18.0170047 20.2802233,16.8106791 C20.2802233,15.606586 21.2603163,14.626493 22.4651535,14.626493 C23.6692465,14.626493 24.6500837,15.606586 24.6500837,16.8106791 C24.6500837,18.0170047 23.6692465,18.9963535 22.4651535,18.9963535 M19.1505488,18.5275163 C18.7695256,18.8289116 18.2969674,18.9970977 17.7983628,18.9970977 C16.5935256,18.9970977 15.6134326,18.0170047 15.6134326,16.8106791 C15.6134326,15.606586 16.5935256,14.626493 17.7983628,14.626493 C18.2969674,14.626493 18.7695256,14.7931907 19.1505488,15.0953302 C18.883386,15.6095628 18.7308279,16.1922605 18.7308279,16.8106791 C18.7308279,17.4298419 18.883386,18.0132837 19.1505488,18.5275163 M22.4651535,13.0770977 C21.583293,13.0770977 20.7736186,13.3851907 20.1343628,13.8971907 C19.4787349,13.3688186 18.6623628,13.0770977 17.7983628,13.0770977 C15.7399442,13.0770977 14.0640372,14.7522605 14.0640372,16.8106791 C14.0640372,18.870586 15.7399442,20.5457488 17.7983628,20.5457488 C18.6623628,20.5457488 19.4787349,20.2532837 20.1343628,19.7256558 C20.7736186,20.2376558 21.583293,20.5457488 22.4651535,20.5457488 C24.5243163,20.5457488 26.1994791,18.870586 26.1994791,16.8106791 C26.1994791,14.7530047 24.5243163,13.0770977 22.4651535,13.0770977" id="Fill-7"></path>
            </g>
        </g>
    </g>
</svg>