<?xml version="1.0" encoding="UTF-8"?>
<svg width="64px" height="64px" viewBox="0 0 64 64" version="1.1" xmlns="http://www.w3.org/2000/svg" xmlns:xlink="http://www.w3.org/1999/xlink">
    <!-- Generator: Sketch 43.2 (39069) - http://www.bohemiancoding.com/sketch -->
    <title>card_ico</title>
    <desc>Created with Sketch.</desc>
    <defs></defs>
    <g id="Symbols" stroke="none" stroke-width="1" fill="none" fill-rule="evenodd">
        <g id="card_ico">
            <g id="Page-1">
                <path d="M63.8749767,32.1235349 C63.8749767,49.6587907 49.6595349,63.8749767 32.1235349,63.8749767 C14.5875349,63.8749767 0.372093023,49.6587907 0.372093023,32.1235349 C0.372093023,14.5882791 14.5875349,0.372093023 32.1235349,0.372093023 C49.6595349,0.372093023 63.8749767,14.5882791 63.8749767,32.1235349" id="Fill-1" fill="#FFFFFF"></path>
                <path d="M63.8749767,32.1235349 C63.8749767,49.6587907 49.6595349,63.8749767 32.1235349,63.8749767 C14.5875349,63.8749767 0.372093023,49.6587907 0.372093023,32.1235349 C0.372093023,14.5882791 14.5875349,0.372093023 32.1235349,0.372093023 C49.6595349,0.372093023 63.8749767,14.5882791 63.8749767,32.1235349 Z" id="Stroke-3" stroke="#E2E2E2"></path>
                <path d="M45.6504558,43.0566698 L24.6130605,43.0566698 C23.9723163,43.0566698 23.451386,42.5357395 23.451386,41.8942512 L23.451386,29.729786 C23.451386,29.1202977 23.9217116,28.6209488 24.5185488,28.5710884 L41.5708279,28.5710884 C41.5998512,28.5710884 41.627386,28.5703442 41.6549209,28.5666233 L45.6497116,28.5666233 C46.2912,28.5666233 46.8128744,29.0882977 46.8128744,29.729786 L46.8128744,41.8942512 C46.8128744,42.5357395 46.2912,43.0566698 45.6504558,43.0566698 L45.6504558,43.0566698 Z M17.4346419,27.0224372 L17.4346419,24.9841116 L40.7961302,24.9841116 L40.7961302,27.0179721 L24.6130605,27.0179721 C24.5609674,27.0179721 24.5088744,27.0202047 24.4567814,27.0224372 L17.4346419,27.0224372 Z M21.9019907,29.729786 L21.9019907,35.6795535 L18.5963163,35.6795535 C17.9555721,35.6795535 17.4346419,35.1586233 17.4346419,34.5171349 L17.4346419,28.5710884 L22.1624558,28.5710884 C21.9957581,28.9223442 21.9019907,29.3152744 21.9019907,29.729786 L21.9019907,29.729786 Z M17.4346419,22.353414 C17.4346419,21.7126698 17.9555721,21.1909953 18.5963163,21.1909953 L39.6337116,21.1909953 C40.2752,21.1909953 40.7961302,21.7126698 40.7961302,22.353414 L40.7961302,23.4347163 L17.4346419,23.4347163 L17.4346419,22.353414 Z M45.6504558,27.0179721 L42.3455256,27.0179721 L42.3455256,22.353414 C42.3455256,20.8576 41.1295256,19.6416 39.6337116,19.6416 L18.5963163,19.6416 C17.1019907,19.6416 15.8859907,20.8583442 15.8859907,22.353414 L15.8859907,34.5171349 C15.8859907,36.0122047 17.1019907,37.2289488 18.5963163,37.2289488 L21.9019907,37.2289488 L21.9019907,41.8942512 C21.9019907,43.3893209 23.1187349,44.6053209 24.6130605,44.6053209 L45.6504558,44.6053209 C47.1455256,44.6053209 48.3615256,43.3893209 48.3615256,41.8942512 L48.3615256,29.729786 C48.3615256,28.2339721 47.1455256,27.0179721 45.6504558,27.0179721 L45.6504558,27.0179721 Z" id="Fill-5" fill="#393939"></path>
                <path d="M37.4651535,37.9963535 C36.2603163,37.9963535 35.2802233,37.0170047 35.2802233,35.8106791 C35.2802233,34.606586 36.2603163,33.626493 37.4651535,33.626493 C38.6692465,33.626493 39.6500837,34.606586 39.6500837,35.8106791 C39.6500837,37.0170047 38.6692465,37.9963535 37.4651535,37.9963535 M34.1505488,37.5275163 C33.7695256,37.8289116 33.2969674,37.9970977 32.7983628,37.9970977 C31.5935256,37.9970977 30.6134326,37.0170047 30.6134326,35.8106791 C30.6134326,34.606586 31.5935256,33.626493 32.7983628,33.626493 C33.2969674,33.626493 33.7695256,33.7931907 34.1505488,34.0953302 C33.883386,34.6095628 33.7308279,35.1922605 33.7308279,35.8106791 C33.7308279,36.4298419 33.883386,37.0132837 34.1505488,37.5275163 M37.4651535,32.0770977 C36.583293,32.0770977 35.7736186,32.3851907 35.1343628,32.8971907 C34.4787349,32.3688186 33.6623628,32.0770977 32.7983628,32.0770977 C30.7399442,32.0770977 29.0640372,33.7522605 29.0640372,35.8106791 C29.0640372,37.870586 30.7399442,39.5457488 32.7983628,39.5457488 C33.6623628,39.5457488 34.4787349,39.2532837 35.1343628,38.7256558 C35.7736186,39.2376558 36.583293,39.5457488 37.4651535,39.5457488 C39.5243163,39.5457488 41.1994791,37.870586 41.1994791,35.8106791 C41.1994791,33.7530047 39.5243163,32.0770977 37.4651535,32.0770977" id="Fill-7" fill="#393939"></path>
            </g>
        </g>
    </g>
</svg>