<?xml version="1.0" encoding="UTF-8"?>
<svg width="38px" height="38px" viewBox="0 0 38 38" version="1.1" xmlns="http://www.w3.org/2000/svg" xmlns:xlink="http://www.w3.org/1999/xlink">
    <!-- Generator: Sketch 43.2 (39069) - http://www.bohemiancoding.com/sketch -->
    <title>day_product_ico</title>
    <desc>Created with Sketch.</desc>
    <defs></defs>
    <g id="Symbols" stroke="none" stroke-width="1" fill="none" fill-rule="evenodd">
        <g id="day_product_ico">
            <g id="Page-1">
                <path d="M37.8080808,19 C37.8080808,29.3874343 29.3874343,37.8080808 19,37.8080808 C8.61256566,37.8080808 0.191919192,29.3874343 0.191919192,19 C0.191919192,8.61256566 8.61256566,0.191919192 19,0.191919192 C29.3874343,0.191919192 37.8080808,8.61256566 37.8080808,19" id="Fill-1" fill="#FFFFFF"></path>
                <path d="M37.8080808,19 C37.8080808,29.3874343 29.3874343,37.8080808 19,37.8080808 C8.61256566,37.8080808 0.191919192,29.3874343 0.191919192,19 C0.191919192,8.61256566 8.61256566,0.191919192 19,0.191919192 C29.3874343,0.191919192 37.8080808,8.61256566 37.8080808,19 Z" id="Stroke-3" stroke="#E2E2E2"></path>
                <path d="M19.351596,12.141499 L21.2435354,16.6193576 L26.0871919,17.0354384 C26.4230505,17.0642263 26.559697,17.4837616 26.3044444,17.7040848 L22.6307273,20.8872566 L23.7315758,25.6226707 C23.8079596,25.9516202 23.4513737,26.2099434 23.1631111,26.0356808 L19.0003838,23.5249939 L14.8376566,26.0356808 C14.5486263,26.2091758 14.1928081,25.9508525 14.2691919,25.6226707 L15.3696566,20.8872566 L11.6955556,17.7033172 C11.440303,17.4826101 11.5761818,17.0638424 11.9128081,17.0346707 L16.7564646,16.6185899 L18.648404,12.141499 C18.7800606,11.8298222 19.2199394,11.8298222 19.351596,12.141499" id="Fill-5" fill="#393939"></path>
            </g>
        </g>
    </g>
</svg>