<?xml version="1.0" encoding="UTF-8"?>
<svg width="64px" height="64px" viewBox="0 0 64 64" version="1.1" xmlns="http://www.w3.org/2000/svg" xmlns:xlink="http://www.w3.org/1999/xlink">
    <!-- Generator: Sketch 43.2 (39069) - http://www.bohemiancoding.com/sketch -->
    <title>delivery_round_ico</title>
    <desc>Created with Sketch.</desc>
    <defs></defs>
    <g id="Symbols" stroke="none" stroke-width="1" fill="none" fill-rule="evenodd">
        <g id="delivery_round_ico">
            <g id="Group">
                <g id="Page-1">
                    <path d="M63.8749767,32.1235349 C63.8749767,49.6587907 49.6595349,63.8749767 32.1235349,63.8749767 C14.5875349,63.8749767 0.372093023,49.6587907 0.372093023,32.1235349 C0.372093023,14.5882791 14.5875349,0.372093023 32.1235349,0.372093023 C49.6595349,0.372093023 63.8749767,14.5882791 63.8749767,32.1235349 Z" id="Stroke-3" stroke="#E2E2E2"></path>
                    <path d="M48.3982884,28.0995721 L48.3982884,28.0995721 L43.5796837,24.1092465 C43.4583814,24.0080372 43.3110326,23.9544558 43.1495442,23.9544558 L37.4833116,23.9544558 L37.4833116,21.5321302 C37.4833116,21.1615256 37.1804279,20.859386 36.8113116,20.859386 L19.6704744,20.859386 C19.300614,20.859386 18.9984744,21.1615256 18.9984744,21.5321302 L18.9984744,26.4571535 C18.9984744,26.8277581 19.300614,27.1306419 19.6704744,27.1306419 C20.0418233,27.1306419 20.3439628,26.8277581 20.3439628,26.4571535 L20.3439628,22.2041302 L36.1445209,22.2041302 L36.1445209,38.1602233 L30.6263814,38.1602233 C30.2557767,38.1602233 29.952893,38.4623628 29.952893,38.8329674 C29.952893,39.2028279 30.2557767,39.5057116 30.6263814,39.5057116 L38.8421953,39.5057116 C39.2128,39.5057116 39.5156837,39.2028279 39.5156837,38.8329674 C39.5156837,38.4623628 39.2128,38.1602233 38.8421953,38.1602233 L37.4907535,38.1602233 L37.4907535,25.2999442 L42.9143814,25.2999442 L47.3013581,28.9338047 L47.2544744,38.1468279 L46.5541953,38.1468279 C46.1843349,38.1468279 45.8814512,38.4489674 45.8814512,38.8188279 C45.8814512,39.1894326 46.1843349,39.4923163 46.5541953,39.4923163 L47.9197767,39.4923163 C48.2903814,39.4923163 48.5940093,39.195386 48.5940093,38.8262698 L48.6475907,28.6249674 C48.640893,28.4225488 48.5530791,28.2275721 48.3982884,28.0995721 L48.3982884,28.0995721 Z M19.0118698,29.0082233 L27.1741023,29.0082233 C27.5439628,29.0082233 27.8475907,28.7045953 27.8475907,28.3347349 C27.8475907,27.9648744 27.5439628,27.6612465 27.1741023,27.6612465 L19.0118698,27.6612465 C18.6420093,27.6612465 18.3383814,27.9648744 18.3383814,28.3347349 C18.3383814,28.7045953 18.6420093,29.0082233 19.0118698,29.0082233 L19.0118698,29.0082233 Z M17.6388465,32.0623628 L25.8010791,32.1107349 C26.1724279,32.1107349 26.4745674,31.8138047 26.4812651,31.4439442 C26.4879628,31.0666419 26.1843349,30.7645023 25.8152186,30.7645023 L17.6522419,30.7168744 L17.6455442,30.7168744 C17.2756837,30.7168744 16.9720558,31.0130605 16.9720558,31.3829209 C16.9661023,31.7602233 17.268986,32.0623628 17.6388465,32.0623628 L17.6388465,32.0623628 Z M25.1082419,34.4921302 C25.1082419,34.1222698 24.8061023,33.8201302 24.4354977,33.8201302 L16.2732651,33.8201302 C15.9026605,33.8201302 15.5997767,34.1222698 15.5997767,34.4921302 C15.5997767,34.8627349 15.9026605,35.1656186 16.2732651,35.1656186 L24.4354977,35.1656186 C24.8061023,35.1656186 25.1082419,34.8694326 25.1082419,34.4921302 L25.1082419,34.4921302 Z M21.696893,38.1602233 L20.3439628,38.1602233 L20.3439628,36.3697116 C20.3439628,35.999107 20.0418233,35.6969674 19.6704744,35.6969674 C19.300614,35.6969674 18.9984744,35.999107 18.9984744,36.3697116 L18.9984744,38.8329674 C18.9984744,39.2028279 19.300614,39.5057116 19.6704744,39.5057116 L21.696893,39.5057116 C22.0660093,39.5057116 22.368893,39.2028279 22.368893,38.8329674 C22.368893,38.4623628 22.0660093,38.1602233 21.696893,38.1602233 L21.696893,38.1602233 Z M26.1843349,42.0426419 C25.2563349,42.0426419 24.4756837,41.275386 24.4756837,40.3600372 C24.4756837,39.4446884 25.2563349,38.6774326 26.1843349,38.6774326 C27.1004279,38.6774326 27.840893,39.4320372 27.840893,40.3600372 C27.840893,41.2895256 27.1004279,42.0426419 26.1843349,42.0426419 L26.1843349,42.0426419 Z M26.1843349,37.3319442 C25.376893,37.3319442 24.6103814,37.6482233 24.0314047,38.2212465 C23.4524279,38.7987349 23.1294512,39.5525953 23.1294512,40.3600372 C23.1294512,41.1682233 23.4464744,41.9213395 24.0314047,42.5003163 C24.6170791,43.0718512 25.376893,43.3881302 26.1843349,43.3881302 C27.840893,43.3881302 29.1863814,42.0292465 29.1863814,40.3600372 C29.1863814,38.6908279 27.840893,37.3319442 26.1843349,37.3319442 L26.1843349,37.3319442 Z M44.3008,32.5877581 L40.1683349,32.5877581 L40.1683349,28.4091535 L42.6851721,28.4091535 L44.3008,29.8625488 L44.3008,32.5877581 Z M43.3981023,27.2452465 C43.2775442,27.1306419 43.1160558,27.0696186 42.9478698,27.0696186 L39.4948465,27.0696186 C39.1257302,27.0696186 38.8228465,27.3725023 38.8228465,27.743107 L38.8228465,33.2619907 C38.8228465,33.631107 39.1257302,33.9332465 39.4948465,33.9332465 L44.9728,33.9332465 C45.3441488,33.9332465 45.6462884,33.631107 45.6462884,33.2619907 L45.6462884,29.5663628 C45.6462884,29.3780837 45.5651721,29.1965023 45.4237767,29.0685023 L43.3981023,27.2452465 Z M42.6174512,42.0426419 C41.688707,42.0426419 40.9088,41.275386 40.9088,40.3600372 C40.9088,39.4446884 41.688707,38.6774326 42.6174512,38.6774326 C43.5328,38.6774326 44.2732651,39.4320372 44.2732651,40.3600372 C44.2732651,41.2895256 43.5328,42.0426419 42.6174512,42.0426419 L42.6174512,42.0426419 Z M42.6174512,37.3319442 C41.8100093,37.3319442 41.0427535,37.6482233 40.4645209,38.2212465 C39.8862884,38.7987349 39.5625674,39.5525953 39.5625674,40.3600372 C39.5625674,41.1682233 39.8788465,41.9213395 40.4645209,42.5003163 C41.0501953,43.0718512 41.8100093,43.3881302 42.6174512,43.3881302 C44.2732651,43.3881302 45.6194977,42.0292465 45.6194977,40.3600372 C45.6194977,38.6908279 44.2732651,37.3319442 42.6174512,37.3319442 L42.6174512,37.3319442 Z" id="Fill-5" fill="#393939"></path>
                </g>
            </g>
        </g>
    </g>
</svg>