<?xml version="1.0" encoding="UTF-8"?>
<svg width="34px" height="24px" viewBox="0 0 34 24" version="1.1" xmlns="http://www.w3.org/2000/svg" xmlns:xlink="http://www.w3.org/1999/xlink">
    <!-- Generator: Sketch 43.2 (39069) - http://www.bohemiancoding.com/sketch -->
    <title>delivery_ico</title>
    <desc>Created with Sketch.</desc>
    <defs></defs>
    <g id="Symbols" stroke="none" stroke-width="1" fill="none" fill-rule="evenodd">
        <g id="delivery_ico" fill="#393939">
            <g id="Group">
                <g id="Page-1">
                    <path d="M33.3982884,8.09957209 L33.3982884,8.09957209 L28.5796837,4.10924651 C28.4583814,4.00803721 28.3110326,3.95445581 28.1495442,3.95445581 L22.4833116,3.95445581 L22.4833116,1.53213023 C22.4833116,1.16152558 22.1804279,0.859386047 21.8113116,0.859386047 L4.67047442,0.859386047 C4.30061395,0.859386047 3.99847442,1.16152558 3.99847442,1.53213023 L3.99847442,6.45715349 C3.99847442,6.82775814 4.30061395,7.13064186 4.67047442,7.13064186 C5.04182326,7.13064186 5.34396279,6.82775814 5.34396279,6.45715349 L5.34396279,2.20413023 L21.1445209,2.20413023 L21.1445209,18.1602233 L15.6263814,18.1602233 C15.2557767,18.1602233 14.952893,18.4623628 14.952893,18.8329674 C14.952893,19.2028279 15.2557767,19.5057116 15.6263814,19.5057116 L23.8421953,19.5057116 C24.2128,19.5057116 24.5156837,19.2028279 24.5156837,18.8329674 C24.5156837,18.4623628 24.2128,18.1602233 23.8421953,18.1602233 L22.4907535,18.1602233 L22.4907535,5.29994419 L27.9143814,5.29994419 L32.3013581,8.93380465 L32.2544744,18.1468279 L31.5541953,18.1468279 C31.1843349,18.1468279 30.8814512,18.4489674 30.8814512,18.8188279 C30.8814512,19.1894326 31.1843349,19.4923163 31.5541953,19.4923163 L32.9197767,19.4923163 C33.2903814,19.4923163 33.5940093,19.195386 33.5940093,18.8262698 L33.6475907,8.62496744 C33.640893,8.42254884 33.5530791,8.22757209 33.3982884,8.09957209 L33.3982884,8.09957209 Z M4.01186977,9.00822326 L12.1741023,9.00822326 C12.5439628,9.00822326 12.8475907,8.70459535 12.8475907,8.33473488 C12.8475907,7.96487442 12.5439628,7.66124651 12.1741023,7.66124651 L4.01186977,7.66124651 C3.6420093,7.66124651 3.3383814,7.96487442 3.3383814,8.33473488 C3.3383814,8.70459535 3.6420093,9.00822326 4.01186977,9.00822326 L4.01186977,9.00822326 Z M2.63884651,12.0623628 L10.8010791,12.1107349 C11.1724279,12.1107349 11.4745674,11.8138047 11.4812651,11.4439442 C11.4879628,11.0666419 11.1843349,10.7645023 10.8152186,10.7645023 L2.65224186,10.7168744 L2.64554419,10.7168744 C2.27568372,10.7168744 1.97205581,11.0130605 1.97205581,11.3829209 C1.96610233,11.7602233 2.26898605,12.0623628 2.63884651,12.0623628 L2.63884651,12.0623628 Z M10.1082419,14.4921302 C10.1082419,14.1222698 9.80610233,13.8201302 9.43549767,13.8201302 L1.27326512,13.8201302 C0.902660465,13.8201302 0.599776744,14.1222698 0.599776744,14.4921302 C0.599776744,14.8627349 0.902660465,15.1656186 1.27326512,15.1656186 L9.43549767,15.1656186 C9.80610233,15.1656186 10.1082419,14.8694326 10.1082419,14.4921302 L10.1082419,14.4921302 Z M6.69689302,18.1602233 L5.34396279,18.1602233 L5.34396279,16.3697116 C5.34396279,15.999107 5.04182326,15.6969674 4.67047442,15.6969674 C4.30061395,15.6969674 3.99847442,15.999107 3.99847442,16.3697116 L3.99847442,18.8329674 C3.99847442,19.2028279 4.30061395,19.5057116 4.67047442,19.5057116 L6.69689302,19.5057116 C7.0660093,19.5057116 7.36889302,19.2028279 7.36889302,18.8329674 C7.36889302,18.4623628 7.0660093,18.1602233 6.69689302,18.1602233 L6.69689302,18.1602233 Z M11.1843349,22.0426419 C10.2563349,22.0426419 9.47568372,21.275386 9.47568372,20.3600372 C9.47568372,19.4446884 10.2563349,18.6774326 11.1843349,18.6774326 C12.1004279,18.6774326 12.840893,19.4320372 12.840893,20.3600372 C12.840893,21.2895256 12.1004279,22.0426419 11.1843349,22.0426419 L11.1843349,22.0426419 Z M11.1843349,17.3319442 C10.376893,17.3319442 9.6103814,17.6482233 9.03140465,18.2212465 C8.45242791,18.7987349 8.12945116,19.5525953 8.12945116,20.3600372 C8.12945116,21.1682233 8.44647442,21.9213395 9.03140465,22.5003163 C9.61707907,23.0718512 10.376893,23.3881302 11.1843349,23.3881302 C12.840893,23.3881302 14.1863814,22.0292465 14.1863814,20.3600372 C14.1863814,18.6908279 12.840893,17.3319442 11.1843349,17.3319442 L11.1843349,17.3319442 Z M29.3008,12.5877581 L25.1683349,12.5877581 L25.1683349,8.40915349 L27.6851721,8.40915349 L29.3008,9.86254884 L29.3008,12.5877581 Z M28.3981023,7.24524651 C28.2775442,7.13064186 28.1160558,7.0696186 27.9478698,7.0696186 L24.4948465,7.0696186 C24.1257302,7.0696186 23.8228465,7.37250233 23.8228465,7.74310698 L23.8228465,13.2619907 C23.8228465,13.631107 24.1257302,13.9332465 24.4948465,13.9332465 L29.9728,13.9332465 C30.3441488,13.9332465 30.6462884,13.631107 30.6462884,13.2619907 L30.6462884,9.56636279 C30.6462884,9.37808372 30.5651721,9.19650233 30.4237767,9.06850233 L28.3981023,7.24524651 Z M27.6174512,22.0426419 C26.688707,22.0426419 25.9088,21.275386 25.9088,20.3600372 C25.9088,19.4446884 26.688707,18.6774326 27.6174512,18.6774326 C28.5328,18.6774326 29.2732651,19.4320372 29.2732651,20.3600372 C29.2732651,21.2895256 28.5328,22.0426419 27.6174512,22.0426419 L27.6174512,22.0426419 Z M27.6174512,17.3319442 C26.8100093,17.3319442 26.0427535,17.6482233 25.4645209,18.2212465 C24.8862884,18.7987349 24.5625674,19.5525953 24.5625674,20.3600372 C24.5625674,21.1682233 24.8788465,21.9213395 25.4645209,22.5003163 C26.0501953,23.0718512 26.8100093,23.3881302 27.6174512,23.3881302 C29.2732651,23.3881302 30.6194977,22.0292465 30.6194977,20.3600372 C30.6194977,18.6908279 29.2732651,17.3319442 27.6174512,17.3319442 L27.6174512,17.3319442 Z" id="Fill-5"></path>
                </g>
            </g>
        </g>
    </g>
</svg>