<?xml version="1.0" encoding="UTF-8"?>
<svg width="19px" height="13px" viewBox="0 0 19 13" version="1.1" xmlns="http://www.w3.org/2000/svg" xmlns:xlink="http://www.w3.org/1999/xlink">
    <!-- Generator: Sketch 43.2 (39069) - http://www.bohemiancoding.com/sketch -->
    <title>download_photo_ico</title>
    <desc>Created with Sketch.</desc>
    <defs>
        <polygon id="path-1" points="18.8499388 12.5549673 18.8499388 -3.87755102e-05 0 -3.87755102e-05 0 12.5549673 18.8499388 12.5549673"></polygon>
    </defs>
    <g id="Symbols" stroke="none" stroke-width="1" fill="none" fill-rule="evenodd">
        <g id="download_photo_ico">
            <g id="Page-1">
                <mask id="mask-2" fill="white">
                    <use xlink:href="#path-1"></use>
                </mask>
                <g id="Clip-2"></g>
                <path d="M10.8484184,6.14498776 L10.8480306,10.2714776 L8.42029592,10.2714776 L8.42029592,6.14498776 L7.02360204,6.14498776 L9.63435714,3.53423265 L12.2451122,6.14498776 L10.8484184,6.14498776 Z M16.3584184,5.16978367 C16.366949,5.05151837 16.371602,4.93170204 16.371602,4.81149796 C16.371602,2.15382449 14.2176224,-0.000155102041 11.5603367,-0.000155102041 C9.94145918,-0.000155102041 8.50909184,0.799395918 7.63703061,2.02547755 C7.36676531,1.9646 7.08564286,1.93125306 6.79676531,1.93125306 C4.94290816,1.93125306 3.39886735,3.25582449 3.05764286,5.01002857 C1.31390816,5.35939592 -0.000193877551,6.89878367 -0.000193877551,8.74527347 C-0.000193877551,10.8496204 1.70554082,12.5549673 3.80988776,12.5549673 L15.0404388,12.5549673 C17.144398,12.5549673 18.8501327,10.8496204 18.8501327,8.74527347 C18.8501327,7.10468163 17.8128878,5.70643673 16.3584184,5.16978367 L16.3584184,5.16978367 Z" id="Fill-1" fill="#393939" mask="url(#mask-2)"></path>
            </g>
        </g>
    </g>
</svg>