<?xml version="1.0" encoding="UTF-8"?>
<svg width="20px" height="15px" viewBox="0 0 20 15" version="1.1" xmlns="http://www.w3.org/2000/svg" xmlns:xlink="http://www.w3.org/1999/xlink">
    <!-- Generator: Sketch 43.2 (39069) - http://www.bohemiancoding.com/sketch -->
    <title>email_ico</title>
    <desc>Created with Sketch.</desc>
    <defs></defs>
    <g id="Symbols" stroke="none" stroke-width="1" fill="none" fill-rule="evenodd">
        <g id="email_ico" fill="#FFFFFF">
            <path d="M18.1955276,12.411306 C18.1953272,12.8348248 17.8082875,13.1793723 17.3332569,13.1793723 L2.07916356,13.1793723 C1.60373213,13.1793723 1.21689289,12.8346244 1.21689289,12.4111056 L1.21689289,2.1059488 L8.94024851,8.62649495 C8.99135939,8.66978888 9.05630028,8.69344019 9.12344595,8.69344019 L10.2885737,8.69344019 C10.3557193,8.69344019 10.4206602,8.66978888 10.4717711,8.62649495 L18.1955276,2.10574837 L18.1955276,12.411306 Z M17.7830327,1.01057241 L9.70611002,7.85261604 L1.62918735,1.01057241 L17.7830327,1.01057241 Z M19.20612,1.77883914 C19.20612,0.798111482 18.3658972,-2.00434838e-05 17.3332569,-2.00434838e-05 L2.07916356,-2.00434838e-05 C1.04632284,-2.00434838e-05 0.2061,0.798111482 0.2061,1.77883914 L0.2061,12.4111056 C0.2061,13.3920337 1.04632284,14.1899648 2.07916356,14.1899648 L17.3332569,14.1899648 C18.3658972,14.1899648 19.20612,13.3920337 19.20612,12.4111056 L19.20612,1.77883914 Z" id="Page-1"></path>
        </g>
    </g>
</svg>