<?xml version="1.0" encoding="UTF-8"?>
<svg width="8px" height="15px" viewBox="0 0 8 15" version="1.1" xmlns="http://www.w3.org/2000/svg" xmlns:xlink="http://www.w3.org/1999/xlink">
    <!-- Generator: Sketch 43.2 (39069) - http://www.bohemiancoding.com/sketch -->
    <title>facebook_ico</title>
    <desc>Created with Sketch.</desc>
    <defs></defs>
    <g id="Symbols" stroke="none" stroke-width="1" fill="none" fill-rule="evenodd">
        <g id="facebook_ico" fill="#FFFFFF">
            <path d="M7.6985198,0.00334745541 L5.78063706,0 C3.62403891,0 2.23107903,1.42978189 2.23107903,3.64265913 L2.23107903,5.32036194 L0.301689419,5.32036194 C0.135153512,5.32036194 0,5.45635232 0,5.62267901 L0,8.05481458 C0,8.22197814 0.135153512,8.356504 0.301689419,8.356504 L2.23107903,8.356504 L2.23107903,14.495528 C2.23107903,14.6618547 2.36644176,14.7972174 2.53276845,14.7972174 L5.05005492,14.7972174 C5.21638161,14.7972174 5.35153512,14.6610178 5.35153512,14.495528 L5.35153512,8.356504 L7.60709242,8.356504 C7.77425598,8.356504 7.90940949,8.22197814 7.90940949,8.05481458 L7.91024635,5.62267901 C7.91024635,5.54234008 7.87823631,5.46576704 7.82195722,5.40948794 C7.76484126,5.3525812 7.68826821,5.32036194 7.60855693,5.32036194 L5.35153512,5.32036194 L5.35153512,3.89706575 C5.35153512,3.21334798 5.51472357,2.86584026 6.40556514,2.86584026 L7.6985198,2.86584026 C7.8650557,2.86584026 8,2.73047754 8,2.56415084 L8,0.304827658 C8,0.139128616 7.8650557,0.00334745541 7.6985198,0.00334745541" id="Fill-1"></path>
        </g>
    </g>
</svg>