<?xml version="1.0" encoding="UTF-8"?>
<svg width="41px" height="41px" viewBox="0 0 41 41" version="1.1" xmlns="http://www.w3.org/2000/svg" xmlns:xlink="http://www.w3.org/1999/xlink">
    <!-- Generator: Sketch 43.2 (39069) - http://www.bohemiancoding.com/sketch -->
    <title>fb_round_ico</title>
    <desc>Created with Sketch.</desc>
    <defs></defs>
    <g id="Symbols" stroke="none" stroke-width="1" fill="none" fill-rule="evenodd">
        <g id="fb_round_ico">
            <g id="Page-1">
                <path d="M40.5,20.5 C40.5,31.546 31.546,40.5 20.5,40.5 C9.454,40.5 0.5,31.546 0.5,20.5 C0.5,9.454 9.454,0.5 20.5,0.5 C31.546,0.5 40.5,9.454 40.5,20.5" id="Fill-1" fill="#FFFFFF"></path>
                <path d="M40.5,20.5 C40.5,31.546 31.546,40.5 20.5,40.5 C9.454,40.5 0.5,31.546 0.5,20.5 C0.5,9.454 9.454,0.5 20.5,0.5 C31.546,0.5 40.5,9.454 40.5,20.5 Z" id="Stroke-3" stroke="#C6C6C6"></path>
                <path d="M24.2656,12.9717 L22.3126,12.9677 C20.1176,12.9677 18.6996,14.4237 18.6996,16.6757 L18.6996,18.3847 L16.7346,18.3847 C16.5656,18.3847 16.4276,18.5227 16.4276,18.6927 L16.4276,21.1677 C16.4276,21.3377 16.5656,21.4747 16.7346,21.4747 L18.6996,21.4747 L18.6996,27.7247 C18.6996,27.8947 18.8366,28.0327 19.0066,28.0327 L21.5696,28.0327 C21.7386,28.0327 21.8756,27.8937 21.8756,27.7247 L21.8756,21.4747 L24.1716,21.4747 C24.3426,21.4747 24.4806,21.3377 24.4806,21.1677 L24.4806,18.6927 C24.4806,18.6097 24.4486,18.5327 24.3906,18.4747 C24.3326,18.4167 24.2546,18.3847 24.1736,18.3847 L21.8756,18.3847 L21.8756,16.9357 C21.8756,16.2397 22.0416,15.8857 22.9496,15.8857 L24.2656,15.8857 C24.4346,15.8857 24.5726,15.7477 24.5726,15.5777 L24.5726,13.2787 C24.5726,13.1097 24.4346,12.9717 24.2656,12.9717" id="Fill-5" fill="#393939"></path>
            </g>
        </g>
    </g>
</svg>