<?xml version="1.0" encoding="UTF-8"?>
<svg width="16px" height="12px" viewBox="0 0 16 12" version="1.1" xmlns="http://www.w3.org/2000/svg" xmlns:xlink="http://www.w3.org/1999/xlink">
    <!-- Generator: Sketch 43.2 (39069) - http://www.bohemiancoding.com/sketch -->
    <title>gamburger_menu_ico</title>
    <desc>Created with Sketch.</desc>
    <defs>
        <polygon id="path-1" points="5.78313253e-05 0.121253012 15.9733976 0.121253012 15.9733976 1.49039036 5.78313253e-05 1.49039036 5.78313253e-05 0.121253012"></polygon>
        <polygon id="path-3" points="15.9733976 0.0506409639 15.9733976 1.41989398 5.78313253e-05 1.41989398 5.78313253e-05 0.0506409639"></polygon>
        <polygon id="path-5" points="15.9733976 0.172915663 15.9733976 1.54216867 7.98672771 1.54216867 5.78313253e-05 1.54216867 5.78313253e-05 0.172915663 15.9733976 0.172915663"></polygon>
    </defs>
    <g id="Symbols" stroke="none" stroke-width="1" fill="none" fill-rule="evenodd">
        <g id="gamburger_menu_ico">
            <g id="Page-1">
                <g id="Group-3" transform="translate(0.000000, 0.071537)">
                    <mask id="mask-2" fill="white">
                        <use xlink:href="#path-1"></use>
                    </mask>
                    <g id="Clip-2"></g>
                    <path d="M0.684587952,1.49039036 L15.2889253,1.49039036 C15.6654072,1.49039036 15.9734554,1.18234217 15.9734554,0.805860241 C15.9734554,0.429378313 15.6654072,0.121137349 15.2889253,0.121137349 L0.684587952,0.121137349 C0.308106024,0.121137349 5.78313253e-05,0.429378313 5.78313253e-05,0.805860241 C5.78313253e-05,1.18234217 0.308106024,1.49039036 0.684587952,1.49039036" id="Fill-1" fill="#FFFFFF" mask="url(#mask-2)"></path>
                </g>
                <g id="Group-6" transform="translate(0.000000, 5.276357)">
                    <mask id="mask-4" fill="white">
                        <use xlink:href="#path-3"></use>
                    </mask>
                    <g id="Clip-5"></g>
                    <path d="M0.684587952,1.41989398 L15.2889253,1.41989398 C15.6654072,1.41989398 15.9734554,1.11184578 15.9734554,0.735363855 C15.9734554,0.358881928 15.6654072,0.0506409639 15.2889253,0.0506409639 L0.684587952,0.0506409639 C0.308106024,0.0506409639 5.78313253e-05,0.358881928 5.78313253e-05,0.735363855 C5.78313253e-05,1.11184578 0.308106024,1.41989398 0.684587952,1.41989398" id="Fill-4" fill="#FFFFFF" mask="url(#mask-4)"></path>
                </g>
                <g id="Group-9" transform="translate(0.000000, 10.288405)">
                    <mask id="mask-6" fill="white">
                        <use xlink:href="#path-5"></use>
                    </mask>
                    <g id="Clip-8"></g>
                    <path d="M0.684587952,1.54216867 L15.2889253,1.54216867 C15.6654072,1.54216867 15.9734554,1.23412048 15.9734554,0.857638554 C15.9734554,0.481156627 15.6654072,0.172915663 15.2889253,0.172915663 L0.684587952,0.172915663 C0.308106024,0.172915663 5.78313253e-05,0.481156627 5.78313253e-05,0.857638554 C5.78313253e-05,1.23412048 0.308106024,1.54216867 0.684587952,1.54216867" id="Fill-7" fill="#FFFFFF" mask="url(#mask-6)"></path>
                </g>
            </g>
        </g>
    </g>
</svg>