<?xml version="1.0" encoding="UTF-8"?>
<svg width="20px" height="13px" viewBox="0 0 20 13" version="1.1" xmlns="http://www.w3.org/2000/svg" xmlns:xlink="http://www.w3.org/1999/xlink">
    <!-- Generator: Sketch 43.2 (39069) - http://www.bohemiancoding.com/sketch -->
    <title>google_account_ico</title>
    <desc>Created with Sketch.</desc>
    <defs>
        <polygon id="path-1" points="12.2771118 12.7291667 0 12.7291667 0 0.19825 19.71775 0.19825 19.71775 12.7291667 12.2771118 12.7291667 12.2771118 0.198407119 1.48392429e-05 0.198407119 1.48392429e-05 12.7292239 12.2771118 12.7292239"></polygon>
        <polygon id="path-3" points="5.63441667 0.25894375 5.63441667 5.64256875 0.250629167 5.64256875 0.250629167 0.25894375 5.63441667 0.25894375"></polygon>
    </defs>
    <g id="Symbols" stroke="none" stroke-width="1" fill="none" fill-rule="evenodd">
        <g id="google_account_ico">
            <g id="Page-1">
                <g id="Group-3" transform="translate(0.000000, 0.072475)">
                    <mask id="mask-2" fill="white">
                        <use xlink:href="#path-1"></use>
                    </mask>
                    <g id="Clip-2"></g>
                    <path d="M0.00384583333,6.47169792 C-0.118570833,3.24146875 2.71055417,0.256614583 5.94430417,0.217614583 C7.592325,0.0773229167 9.1953875,0.71703125 10.4428458,1.76082292 C9.93097083,2.32361458 9.41042917,2.87936458 8.85467917,3.39990625 C7.75645,2.73284375 6.4345125,2.22448958 5.151575,2.67596875 C3.08159583,3.26530208 1.82817917,5.70930208 2.59409583,7.73378125 C3.2283875,9.84871875 5.80049167,11.0089687 7.816575,10.1209062 C8.86009583,9.74715625 9.54828333,8.78380208 9.8502625,7.74921875 C8.65399167,7.72511458 7.45745,7.74028125 6.26117917,7.70723958 C6.25847083,6.99548958 6.25522083,6.28617708 6.25847083,5.57442708 C8.25342917,5.57171875 10.2513667,5.56548958 12.2493042,5.58363542 C12.3717208,7.32726042 12.1147,9.19384375 10.9807208,10.5935104 C9.428575,12.5914479 6.56017917,13.1778021 4.22722083,12.3937396 C1.75072083,11.5804271 -0.0497791667,9.08578125 0.00384583333,6.47169792" id="Fill-1" fill="#FFFFFF" mask="url(#mask-2)"></path>
                </g>
                <g id="Group-6" transform="translate(14.083333, 3.593308)">
                    <mask id="mask-4" fill="white">
                        <use xlink:href="#path-3"></use>
                    </mask>
                    <g id="Clip-5"></g>
                    <path d="M2.05437917,0.25894375 L3.83375417,0.25894375 C3.83700417,0.853964583 3.8429625,1.45250625 3.84594167,2.04752708 C4.44123333,2.05348542 5.03923333,2.05646458 5.634525,2.05917292 L5.634525,3.84179792 C5.03950417,3.84504792 4.44123333,3.84802708 3.84594167,3.85100625 C3.83998333,4.44927708 3.83700417,5.04429792 3.83375417,5.64256875 C3.23873333,5.63958958 2.64317083,5.64256875 2.05112917,5.64256875 C2.04544167,5.04429792 2.04544167,4.44927708 2.0392125,3.85371458 C1.44419167,3.84775625 0.845920833,3.84504792 0.250629167,3.84179792 L0.250629167,2.05890208 C0.845920833,2.05619375 1.4412125,2.05321458 2.0392125,2.04725625 C2.04219167,1.45250625 2.04842083,0.854235417 2.05437917,0.25894375" id="Fill-4" fill="#FFFFFF" mask="url(#mask-4)"></path>
                </g>
            </g>
        </g>
    </g>
</svg>