<?xml version="1.0" encoding="utf-8"?>
<!-- Generator: Adobe Illustrator 16.0.0, SVG Export Plug-In . SVG Version: 6.00 Build 0)  -->
<!DOCTYPE svg PUBLIC "-//W3C//DTD SVG 1.1//EN" "http://www.w3.org/Graphics/SVG/1.1/DTD/svg11.dtd">
<svg version="1.1" id="Шар_1" xmlns="http://www.w3.org/2000/svg" xmlns:xlink="http://www.w3.org/1999/xlink" x="0px" y="0px"
	 width="21px" height="13.345px" viewBox="0 0 21 13.345" enable-background="new 0 0 21 13.345" xml:space="preserve">
<g id="svg_6_1_">
	<path id="svg_7_1_" fill="#ffffff" d="M0.004,6.681c-0.13-3.44,2.883-6.62,6.327-6.661c1.755-0.15,3.463,0.532,4.791,1.644
		c-0.545,0.599-1.1,1.191-1.691,1.746c-1.17-0.71-2.577-1.252-3.944-0.771c-2.204,0.627-3.539,3.23-2.724,5.387
		c0.676,2.252,3.415,3.488,5.562,2.542c1.111-0.397,1.845-1.424,2.166-2.525c-1.274-0.025-2.549-0.01-3.822-0.045
		C6.666,7.239,6.662,6.483,6.666,5.726c2.124-0.003,4.252-0.01,6.38,0.01c0.131,1.857-0.144,3.845-1.351,5.335
		c-1.653,2.128-4.708,2.752-7.193,1.918C1.865,12.122-0.053,9.465,0.004,6.681z"/>
	<path id="svg_8_1_" fill="#ffffff" d="M17.188,3.814c0.631,0,1.262,0,1.896,0c0.003,0.634,0.009,1.271,0.013,1.905
		c0.634,0.006,1.271,0.01,1.904,0.013c0,0.634,0,1.265,0,1.898c-0.633,0.003-1.271,0.007-1.904,0.01
		c-0.007,0.637-0.01,1.271-0.013,1.908c-0.634-0.003-1.269,0-1.899,0c-0.006-0.637-0.006-1.271-0.013-1.905
		C16.537,7.636,15.9,7.633,15.267,7.63c0-0.634,0-1.265,0-1.899c0.634-0.003,1.268-0.006,1.904-0.013
		C17.175,5.085,17.181,4.448,17.188,3.814z"/>
</g>
</svg>
