<?xml version="1.0" encoding="UTF-8"?>
<svg width="38px" height="38px" viewBox="0 0 38 38" version="1.1" xmlns="http://www.w3.org/2000/svg" xmlns:xlink="http://www.w3.org/1999/xlink">
    <!-- Generator: Sketch 43.2 (39069) - http://www.bohemiancoding.com/sketch -->
    <title>hot_product_ico</title>
    <desc>Created with Sketch.</desc>
    <defs></defs>
    <g id="Symbols" stroke="none" stroke-width="1" fill="none" fill-rule="evenodd">
        <g id="hot_product_ico">
            <g id="Page-1">
                <path d="M37.8080808,19 C37.8080808,29.3874343 29.3874343,37.8080808 19,37.8080808 C8.61256566,37.8080808 0.191919192,29.3874343 0.191919192,19 C0.191919192,8.61256566 8.61256566,0.191919192 19,0.191919192 C29.3874343,0.191919192 37.8080808,8.61256566 37.8080808,19" id="Fill-1" fill="#FFFFFF"></path>
                <path d="M37.8080808,19 C37.8080808,29.3874343 29.3874343,37.8080808 19,37.8080808 C8.61256566,37.8080808 0.191919192,29.3874343 0.191919192,19 C0.191919192,8.61256566 8.61256566,0.191919192 19,0.191919192 C29.3874343,0.191919192 37.8080808,8.61256566 37.8080808,19 Z" id="Stroke-3" stroke="#E2E2E2"></path>
                <path d="M23.6060606,14.7927859 C21.5671111,15.374301 21.1936364,17.0228869 21.3252929,18.0696141 C19.8705455,16.359998 19.9300404,14.3928263 19.9300404,11.5593313 C15.2644848,13.3188465 16.3492121,18.3897354 16.2098788,19.9300788 C15.0364848,18.9693313 14.8146263,16.6747455 14.8146263,16.6747455 C13.5759798,17.312301 12.9545455,19.0142404 12.9545455,20.3952909 C12.9545455,23.734301 15.6609899,26.4407455 19,26.4407455 C22.3390101,26.4407455 25.0454545,23.734301 25.0454545,20.3952909 C25.0454545,18.4108465 23.588404,17.4953919 23.6060606,14.7927859" id="Fill-5" fill="#FF3939"></path>
            </g>
        </g>
    </g>
</svg>