<?xml version="1.0" encoding="UTF-8"?>
<svg width="18px" height="18px" viewBox="0 0 18 18" version="1.1" xmlns="http://www.w3.org/2000/svg" xmlns:xlink="http://www.w3.org/1999/xlink">
    <!-- Generator: Sketch 43.2 (39069) - http://www.bohemiancoding.com/sketch -->
    <title>insta_photo_falllove_ico</title>
    <desc>Created with Sketch.</desc>
    <defs></defs>
    <g id="Symbols" stroke="none" stroke-width="1" fill="none" fill-rule="evenodd">
        <g id="insta_photo_falllove_ico" fill="#393939">
            <g id="Group">
                <g id="Page-1">
                    <path d="M15.4580523,12.2674844 C15.4580523,14.0294241 14.0299015,15.4581477 12.2679618,15.4581477 L5.73215276,15.4581477 C3.97002211,15.4581477 2.54187136,14.0294241 2.54187136,12.2674844 L2.54187136,5.73224824 C2.54187136,3.97011759 3.97002211,2.54139397 5.73215276,2.54139397 L12.2679618,2.54139397 C14.0299015,2.54139397 15.4580523,3.97011759 15.4580523,5.73224824 L15.4580523,12.2674844 Z M12.2679618,0.915032161 L5.73215276,0.915032161 C3.07597186,0.915032161 0.914936683,3.07568543 0.914936683,5.73224824 L0.914936683,12.2674844 C0.914936683,14.9236653 3.07597186,17.0850824 5.73215276,17.0850824 L12.2679618,17.0850824 C14.9239518,17.0850824 17.0849869,14.9236653 17.0849869,12.2674844 L17.0849869,5.73224824 C17.0849869,3.07568543 14.9239518,0.915032161 12.2679618,0.915032161 L12.2679618,0.915032161 Z" id="Fill-5"></path>
                    <path d="M9,11.5555095 C7.58846231,11.5555095 6.44445226,10.4109266 6.44445226,8.99977085 C6.44445226,7.58842412 7.58884422,6.44422312 9,6.44422312 C10.4111558,6.44422312 11.5555477,7.58842412 11.5555477,8.99977085 C11.5555477,10.4109266 10.4111558,11.5555095 9,11.5555095 M9,4.81709749 C6.69403015,4.81709749 4.8178995,6.69399196 4.8178995,8.99977085 C4.8178995,11.3053588 6.69403015,13.1820623 9,13.1820623 C11.3061608,13.1820623 13.1821005,11.3053588 13.1821005,8.99977085 C13.1821005,6.69399196 11.3061608,4.81709749 9,4.81709749" id="Fill-7"></path>
                    <path d="M13.1901015,3.84710452 C13.7434884,3.84710452 14.1920412,4.29584824 14.1920412,4.84923518 C14.1920412,5.40262211 13.7434884,5.85136583 13.1901015,5.85136583 C12.6365236,5.85136583 12.1881618,5.40262211 12.1881618,4.84923518 C12.1881618,4.29584824 12.6365236,3.84710452 13.1901015,3.84710452" id="Fill-9"></path>
                </g>
            </g>
        </g>
    </g>
</svg>