<?xml version="1.0" encoding="UTF-8"?>
<svg width="38px" height="38px" viewBox="0 0 38 38" version="1.1" xmlns="http://www.w3.org/2000/svg" xmlns:xlink="http://www.w3.org/1999/xlink">
    <!-- Generator: Sketch 43.2 (39069) - http://www.bohemiancoding.com/sketch -->
    <title>insta_photo_fallinlove_ico</title>
    <desc>Created with Sketch.</desc>
    <defs></defs>
    <g id="Symbols" stroke="none" stroke-width="1" fill="none" fill-rule="evenodd">
        <g id="insta_photo_fallinlove_ico">
            <g id="Group">
                <g id="Page-1">
                    <path d="M37.9045226,19 C37.9045226,29.4406432 29.4406432,37.9045226 19,37.9045226 C8.55935678,37.9045226 0.0954773869,29.4406432 0.0954773869,19 C0.0954773869,8.55935678 8.55935678,0.0954773869 19,0.0954773869 C29.4406432,0.0954773869 37.9045226,8.55935678 37.9045226,19" id="Fill-1" fill="#FFFFFF"></path>
                    <path d="M37.9045226,19 C37.9045226,29.4406432 29.4406432,37.9045226 19,37.9045226 C8.55935678,37.9045226 0.0954773869,29.4406432 0.0954773869,19 C0.0954773869,8.55935678 8.55935678,0.0954773869 19,0.0954773869 C29.4406432,0.0954773869 37.9045226,8.55935678 37.9045226,19 Z" id="Stroke-3" stroke="#B7B7B7"></path>
                    <path d="M25.4580523,22.2674844 C25.4580523,24.0294241 24.0299015,25.4581477 22.2679618,25.4581477 L15.7321528,25.4581477 C13.9700221,25.4581477 12.5418714,24.0294241 12.5418714,22.2674844 L12.5418714,15.7322482 C12.5418714,13.9701176 13.9700221,12.541394 15.7321528,12.541394 L22.2679618,12.541394 C24.0299015,12.541394 25.4580523,13.9701176 25.4580523,15.7322482 L25.4580523,22.2674844 Z M22.2679618,10.9150322 L15.7321528,10.9150322 C13.0759719,10.9150322 10.9149367,13.0756854 10.9149367,15.7322482 L10.9149367,22.2674844 C10.9149367,24.9236653 13.0759719,27.0850824 15.7321528,27.0850824 L22.2679618,27.0850824 C24.9239518,27.0850824 27.0849869,24.9236653 27.0849869,22.2674844 L27.0849869,15.7322482 C27.0849869,13.0756854 24.9239518,10.9150322 22.2679618,10.9150322 L22.2679618,10.9150322 Z" id="Fill-5" fill="#393939"></path>
                    <path d="M19,21.5555095 C17.5884623,21.5555095 16.4444523,20.4109266 16.4444523,18.9997709 C16.4444523,17.5884241 17.5888442,16.4442231 19,16.4442231 C20.4111558,16.4442231 21.5555477,17.5884241 21.5555477,18.9997709 C21.5555477,20.4109266 20.4111558,21.5555095 19,21.5555095 M19,14.8170975 C16.6940302,14.8170975 14.8178995,16.693992 14.8178995,18.9997709 C14.8178995,21.3053588 16.6940302,23.1820623 19,23.1820623 C21.3061608,23.1820623 23.1821005,21.3053588 23.1821005,18.9997709 C23.1821005,16.693992 21.3061608,14.8170975 19,14.8170975" id="Fill-7" fill="#393939"></path>
                    <path d="M23.1901015,13.8471045 C23.7434884,13.8471045 24.1920412,14.2958482 24.1920412,14.8492352 C24.1920412,15.4026221 23.7434884,15.8513658 23.1901015,15.8513658 C22.6365236,15.8513658 22.1881618,15.4026221 22.1881618,14.8492352 C22.1881618,14.2958482 22.6365236,13.8471045 23.1901015,13.8471045" id="Fill-9" fill="#393939"></path>
                </g>
            </g>
        </g>
    </g>
</svg>