<?xml version="1.0" encoding="UTF-8"?>
<svg width="41px" height="41px" viewBox="0 0 41 41" version="1.1" xmlns="http://www.w3.org/2000/svg" xmlns:xlink="http://www.w3.org/1999/xlink">
    <!-- Generator: Sketch 43.2 (39069) - http://www.bohemiancoding.com/sketch -->
    <title>instagram_round_ico</title>
    <desc>Created with Sketch.</desc>
    <defs></defs>
    <g id="Symbols" stroke="none" stroke-width="1" fill="none" fill-rule="evenodd">
        <g id="instagram_round_ico">
            <g id="Page-1">
                <path d="M40.5,20.5 C40.5,31.546 31.546,40.5 20.5,40.5 C9.454,40.5 0.5,31.546 0.5,20.5 C0.5,9.454 9.454,0.5 20.5,0.5 C31.546,0.5 40.5,9.454 40.5,20.5" id="Fill-1" fill="#FFFFFF"></path>
                <path d="M40.5,20.5 C40.5,31.546 31.546,40.5 20.5,40.5 C9.454,40.5 0.5,31.546 0.5,20.5 C0.5,9.454 9.454,0.5 20.5,0.5 C31.546,0.5 40.5,9.454 40.5,20.5 Z" id="Stroke-3" stroke="#C6C6C6"></path>
                <path d="M27.7832,24.1855 C27.7832,26.1725 26.1732,27.7835 24.1852,27.7835 L16.8142,27.7835 C14.8272,27.7835 13.2172,26.1725 13.2172,24.1855 L13.2172,16.8155 C13.2172,14.8275 14.8272,13.2165 16.8142,13.2165 L24.1852,13.2165 C26.1732,13.2165 27.7832,14.8275 27.7832,16.8155 L27.7832,24.1855 Z M24.1852,11.3815 L16.8142,11.3815 C13.8182,11.3815 11.3822,13.8185 11.3822,16.8155 L11.3822,24.1855 C11.3822,27.1805 13.8182,29.6185 16.8142,29.6185 L24.1852,29.6185 C27.1812,29.6185 29.6182,27.1805 29.6182,24.1855 L29.6182,16.8155 C29.6182,13.8185 27.1812,11.3815 24.1852,11.3815 L24.1852,11.3815 Z" id="Fill-5" fill="#393939"></path>
                <path d="M20.5,23.3818 C18.908,23.3818 17.618,22.0918 17.618,20.4998 C17.618,18.9078 18.908,17.6178 20.5,17.6178 C22.092,17.6178 23.382,18.9078 23.382,20.4998 C23.382,22.0918 22.092,23.3818 20.5,23.3818 M20.5,15.7828 C17.899,15.7828 15.783,17.8998 15.783,20.4998 C15.783,23.1008 17.899,25.2168 20.5,25.2168 C23.101,25.2168 25.217,23.1008 25.217,20.4998 C25.217,17.8998 23.101,15.7828 20.5,15.7828" id="Fill-7" fill="#393939"></path>
                <path d="M25.2256,14.6885 C25.8496,14.6885 26.3556,15.1945 26.3556,15.8195 C26.3556,16.4435 25.8496,16.9495 25.2256,16.9495 C24.6016,16.9495 24.0956,16.4435 24.0956,15.8195 C24.0956,15.1945 24.6016,14.6885 25.2256,14.6885" id="Fill-9" fill="#393939"></path>
            </g>
        </g>
    </g>
</svg>