<?xml version="1.0" encoding="UTF-8"?>
<svg width="12px" height="16px" viewBox="0 0 12 16" version="1.1" xmlns="http://www.w3.org/2000/svg" xmlns:xlink="http://www.w3.org/1999/xlink">
    <!-- Generator: Sketch 43.2 (39069) - http://www.bohemiancoding.com/sketch -->
    <title>lock_ico</title>
    <desc>Created with Sketch.</desc>
    <defs>
        <polygon id="path-1" points="6.54545455e-05 15.7745018 11.9020364 15.7745018 11.9020364 4.36363636e-05 6.54545455e-05 4.36363636e-05"></polygon>
    </defs>
    <g id="Symbols" stroke="none" stroke-width="1" fill="none" fill-rule="evenodd">
        <g id="lock_ico">
            <g id="Page-1">
                <mask id="mask-2" fill="white">
                    <use xlink:href="#path-1"></use>
                </mask>
                <g id="Clip-2"></g>
                <path d="M9.06137455,5.37997091 L2.84079273,5.37997091 L2.84079273,3.05240727 C2.84079273,2.00055273 3.69650182,1.14484364 4.74835636,1.14484364 L7.15381091,1.14484364 C8.20544727,1.14484364 9.06137455,2.00055273 9.06137455,3.05240727 L9.06137455,5.37997091 Z M6.52348364,10.4406982 L6.52348364,12.7294255 C6.52348364,13.0455709 6.26712,13.3019345 5.95097455,13.3019345 C5.63482909,13.3019345 5.37868364,13.0455709 5.37868364,12.7294255 L5.37868364,10.4406982 C5.31061091,10.3464436 5.26981091,10.2308073 5.26981091,10.1057891 C5.26981091,9.78986182 5.52617455,9.53349818 5.84232,9.53349818 L6.05984727,9.53349818 C6.37577455,9.53349818 6.63213818,9.78986182 6.63213818,10.1057891 C6.63213818,10.2310255 6.59155636,10.3464436 6.52348364,10.4406982 L6.52348364,10.4406982 Z M11.3295927,5.37997091 L10.2059564,5.37997091 L10.2059564,3.05240727 C10.2059564,1.36935273 8.83686545,4.36363636e-05 7.15359273,4.36363636e-05 L4.74835636,4.36363636e-05 C3.06530182,4.36363636e-05 1.69599273,1.36935273 1.69599273,3.05240727 L1.69599273,5.37997091 L0.572356364,5.37997091 C0.256429091,5.37997091 6.54545455e-05,5.63633455 6.54545455e-05,5.95248 L6.54545455e-05,11.5431709 C6.54545455e-05,13.8764073 1.89824727,15.7745891 4.23126545,15.7745891 L7.67068364,15.7745891 C10.0037018,15.7745891 11.9021018,13.8761891 11.9021018,11.5431709 L11.9021018,5.95248 C11.9021018,5.63633455 11.6457382,5.37997091 11.3295927,5.37997091 L11.3295927,5.37997091 Z" id="Fill-1" fill="#FFFFFF" mask="url(#mask-2)"></path>
            </g>
        </g>
    </g>
</svg>