<?xml version="1.0" encoding="UTF-8"?>
<svg width="64px" height="64px" viewBox="0 0 64 64" version="1.1" xmlns="http://www.w3.org/2000/svg" xmlns:xlink="http://www.w3.org/1999/xlink">
    <!-- Generator: Sketch 43.2 (39069) - http://www.bohemiancoding.com/sketch -->
    <title>mail_us_ico</title>
    <desc>Created with Sketch.</desc>
    <defs></defs>
    <g id="Symbols" stroke="none" stroke-width="1" fill="none" fill-rule="evenodd">
        <g id="mail_us_ico">
            <g id="Group">
                <g id="Page-1">
                    <path d="M63.8749767,32.1235349 C63.8749767,49.6587907 49.6595349,63.8749767 32.1235349,63.8749767 C14.5875349,63.8749767 0.372093023,49.6587907 0.372093023,32.1235349 C0.372093023,14.5882791 14.5875349,0.372093023 32.1235349,0.372093023 C49.6595349,0.372093023 63.8749767,14.5882791 63.8749767,32.1235349 Z" id="Stroke-3" stroke="#E2E2E2"></path>
                    <path d="M23.3946047,28.7884651 L28.3575814,32.2556279 L23.3946047,38.1867907 L23.3946047,28.7884651 Z M23.3946047,24.775814 L40.9402791,24.775814 L40.9402791,27.0455814 L32.1767442,33.1531163 L23.3946047,27.0455814 L23.3946047,24.775814 Z M40.9402791,38.1867907 L35.9594419,32.2556279 L40.9231628,28.7884651 L40.9231628,38.1867907 L40.9402791,38.1867907 Z M24.2035349,39.4533953 L29.5363721,33.0831628 L31.7533023,34.6310698 C31.8768372,34.7196279 32.0174884,34.7546047 32.1581395,34.7546047 C32.2995349,34.7546047 32.440186,34.7196279 32.5629767,34.6310698 L34.7813953,33.0831628 L40.1134884,39.4533953 L24.2035349,39.4533953 Z M21.9516279,40.2794419 C21.9516279,40.2980465 21.9516279,40.315907 21.9687442,40.3508837 C21.9687442,40.3687442 21.9866047,40.4029767 21.9866047,40.4215814 C21.9866047,40.4386977 22.0044651,40.4565581 22.0044651,40.4922791 C22.0215814,40.5093953 22.0215814,40.5265116 22.0394419,40.5622326 C22.0565581,40.580093 22.0565581,40.5972093 22.0751628,40.6150698 C22.0922791,40.632186 22.1093953,40.6500465 22.1093953,40.667907 L22.1629767,40.7207442 L22.180093,40.7378605 C22.180093,40.7378605 22.1979535,40.7378605 22.1979535,40.7557209 C22.2507907,40.8085581 22.3214884,40.8435349 22.3906977,40.8613953 C22.4093023,40.8613953 22.4093023,40.8613953 22.4264186,40.8785116 C22.4971163,40.8971163 22.567814,40.9142326 22.6370233,40.9142326 L41.6264186,40.9142326 C41.6978605,40.9142326 41.7670698,40.8971163 41.8377674,40.8785116 C41.8556279,40.8785116 41.8556279,40.8785116 41.8727442,40.8613953 C41.9434419,40.8264186 42.0141395,40.7906977 42.0669767,40.7557209 C42.0669767,40.7557209 42.084093,40.7557209 42.084093,40.7378605 L42.1019535,40.7207442 C42.1190698,40.7028837 42.1376744,40.6850233 42.1547907,40.667907 C42.171907,40.6500465 42.1897674,40.632186 42.1897674,40.6150698 C42.2068837,40.5972093 42.2068837,40.580093 42.2254884,40.5622326 C42.2426047,40.5443721 42.2426047,40.5265116 42.2604651,40.4922791 C42.2775814,40.4744186 42.2775814,40.4565581 42.2775814,40.4215814 C42.2775814,40.4029767 42.2954419,40.3687442 42.2954419,40.3508837 C42.2954419,40.3337674 42.3133023,40.315907 42.3133023,40.2794419 L42.3133023,40.2102326 L42.3133023,40.1752558 L42.3133023,24.0546977 C42.3133023,23.6498605 41.9962791,23.3328372 41.5914419,23.3328372 L22.6556279,23.3328372 C22.2507907,23.3328372 21.9337674,23.6498605 21.9337674,24.0546977 L21.9337674,40.1752558 L21.9337674,40.2102326 C21.9516279,40.228093 21.9516279,40.2459535 21.9516279,40.2794419 L21.9516279,40.2794419 Z" id="Fill-5" fill="#393939"></path>
                </g>
            </g>
        </g>
    </g>
</svg>