<?xml version="1.0" encoding="UTF-8"?>
<svg width="29px" height="29px" viewBox="0 0 29 29" version="1.1" xmlns="http://www.w3.org/2000/svg" xmlns:xlink="http://www.w3.org/1999/xlink">
    <!-- Generator: Sketch 43.2 (39069) - http://www.bohemiancoding.com/sketch -->
    <title>money_cash copy</title>
    <desc>Created with Sketch.</desc>
    <defs></defs>
    <g id="Symbols" stroke="none" stroke-width="1" fill="none" fill-rule="evenodd">
        <g id="money_cash-copy" fill="#393939">
            <g id="Page-1">
                <path d="M23.3430326,22.7812465 C22.4701023,22.0050605 21.5115907,21.3479442 20.4913116,20.8203163 C21.024893,18.9777116 21.3307535,16.9029209 21.3813581,14.747014 L26.7677767,14.747014 C26.6092651,17.8487814 25.3389395,20.6558512 23.3430326,22.7812465 L23.3430326,22.7812465 Z M17.5480558,26.2982698 C18.2230326,25.6277581 18.8347535,24.7496186 19.3742884,23.6832 C19.6399628,23.1615256 19.8788465,22.6004093 20.0946605,22.0169674 C20.9281488,22.4642233 21.7154977,23.0082233 22.4418233,23.643014 C21.0464744,24.8686884 19.3794977,25.7862698 17.5480558,26.2982698 L17.5480558,26.2982698 Z M14.752893,26.5758512 L14.752893,20.5479442 C16.2152186,20.6216186 17.6395907,20.9386419 18.9657302,21.4893395 C18.7558698,22.0727814 18.5236837,22.6227349 18.2632186,23.1384558 C17.2756837,25.0904558 16.0514977,26.2856186 14.752893,26.5758512 L14.752893,26.5758512 Z M8.91252093,20.2986419 C8.44219535,18.6085953 8.16982326,16.7198512 8.12442791,14.747014 L13.5056372,14.747014 L13.5056372,19.3006884 C11.9123349,19.3684093 10.3651721,19.7092465 8.91252093,20.2986419 L8.91252093,20.2986419 Z M13.5056372,26.5758512 C12.2070326,26.2856186 10.9821023,25.0904558 9.99531163,23.1384558 C9.7355907,22.6227349 9.50191628,22.0727814 9.29205581,21.4893395 C10.6196837,20.9386419 12.0418233,20.6164093 13.5056372,20.5479442 L13.5056372,26.5758512 Z M5.81670698,23.6497116 C6.54228837,23.0141767 7.3303814,22.4701767 8.16461395,22.0214326 C8.37968372,22.6056186 8.61782326,23.1682233 8.88424186,23.6891535 C9.42303256,24.7540837 10.0354977,25.6277581 10.7097302,26.3027349 C8.87828837,25.7862698 7.21205581,24.8686884 5.81670698,23.6497116 L5.81670698,23.6497116 Z M1.49670698,14.747014 L6.88312558,14.747014 C6.93373023,16.907386 7.2395907,18.9777116 7.77317209,20.8203163 C6.75289302,21.3479442 5.7943814,21.999107 4.92070698,22.7812465 C2.9195907,20.6558512 1.64926512,17.8487814 1.49670698,14.747014 L1.49670698,14.747014 Z M4.8983814,5.48859535 C5.77726512,6.27073488 6.73577674,6.92859535 7.7620093,7.46143256 C7.2343814,9.29808372 6.92777674,11.3565023 6.88312558,13.4997581 L1.49670698,13.4997581 C1.64926512,10.4091535 2.91363721,7.6087814 4.8983814,5.48859535 L4.8983814,5.48859535 Z M10.7097302,1.95073488 C10.0354977,2.61901395 9.42303256,3.49789767 8.88424186,4.55836279 C8.61782326,5.0912 8.37447442,5.65752558 8.15270698,6.25882791 C7.3140093,5.80487442 6.52591628,5.2616186 5.7943814,4.62013023 C7.19493953,3.3899907 8.86786977,2.46571163 10.7097302,1.95073488 L10.7097302,1.95073488 Z M13.5056372,1.6724093 L13.5056372,7.73901395 C12.0373581,7.66533953 10.6077767,7.34236279 9.28089302,6.7924093 C9.49149767,6.19706047 9.72889302,5.6352 9.99531163,5.10831628 C10.9821023,3.15706047 12.2070326,1.96115349 13.5056372,1.6724093 L13.5056372,1.6724093 Z M13.4996837,13.4997581 L8.1192186,13.4997581 C8.16461395,11.5380837 8.43103256,9.66124651 8.89540465,7.98236279 C10.3473116,8.57250233 11.9011721,8.91259535 13.4944744,8.98106047 L13.4944744,13.4997581 L13.4996837,13.4997581 Z M19.3452651,7.98906047 C19.8111256,9.66645581 20.0768,11.543293 20.1229395,13.5049674 L14.7469395,13.5049674 L14.7469395,8.99222326 C16.3461953,8.91780465 17.8948465,8.57250233 19.3452651,7.98906047 L19.3452651,7.98906047 Z M14.7469395,1.6724093 C16.0455442,1.96115349 17.2704744,3.15706047 18.2565209,5.10831628 C18.5236837,5.6352 18.7618233,6.19706047 18.9716837,6.7924093 C17.6395907,7.34236279 16.2152186,7.66533953 14.7469395,7.73901395 L14.7469395,1.6724093 Z M22.4589395,4.62013023 C21.7333581,5.2616186 20.9393116,5.80487442 20.0998698,6.25882791 C19.8848,5.65752558 19.6399628,5.0912 19.3683349,4.55836279 C18.8302884,3.49268837 18.2170791,2.61901395 17.5428465,1.95073488 C19.3861953,2.46571163 21.0583814,3.3899907 22.4589395,4.62013023 L22.4589395,4.62013023 Z M14.7469395,14.747014 L20.1281488,14.747014 C20.0827535,16.7198512 19.8111256,18.6085953 19.3400558,20.2986419 C17.8881488,19.7144558 16.3402419,19.3736186 14.7469395,19.3006884 L14.7469395,14.747014 Z M26.756614,13.4997581 L21.3701953,13.4997581 C21.3188465,11.3565023 21.0181953,9.29213023 20.4913116,7.46143256 C21.5175442,6.93380465 22.4753116,6.27073488 23.3549395,5.48859535 C25.3389395,7.6087814 26.6033116,10.4091535 26.756614,13.4997581 L26.756614,13.4997581 Z M23.9443349,4.30310698 C21.3240558,1.67836279 17.8315907,0.23092093 14.1233116,0.23092093 C10.4157767,0.23092093 6.92331163,1.67836279 4.30303256,4.30310698 C1.68349767,6.92859535 0.231590698,10.4158512 0.231590698,14.1241302 C0.231590698,17.8316651 1.67754419,21.3248744 4.30303256,23.9436651 C6.92777674,26.5639442 10.4157767,28.0158512 14.1233116,28.0158512 C17.8315907,28.0158512 21.3240558,26.5691535 23.9443349,23.9436651 C26.5638698,21.3181767 28.0150326,17.8316651 28.0150326,14.1241302 C28.0150326,10.4158512 26.5690791,6.92189767 23.9443349,4.30310698 L23.9443349,4.30310698 Z" id="Fill-5"></path>
            </g>
        </g>
    </g>
</svg>