<?xml version="1.0" encoding="UTF-8"?>
<svg width="64px" height="64px" viewBox="0 0 64 64" version="1.1" xmlns="http://www.w3.org/2000/svg" xmlns:xlink="http://www.w3.org/1999/xlink">
    <!-- Generator: Sketch 43.2 (39069) - http://www.bohemiancoding.com/sketch -->
    <title>money_cash</title>
    <desc>Created with Sketch.</desc>
    <defs></defs>
    <g id="Symbols" stroke="none" stroke-width="1" fill="none" fill-rule="evenodd">
        <g id="money_cash">
            <g id="Page-1">
                <path d="M63.8749767,32.1235349 C63.8749767,49.6587907 49.6595349,63.8749767 32.1235349,63.8749767 C14.5875349,63.8749767 0.372093023,49.6587907 0.372093023,32.1235349 C0.372093023,14.5882791 14.5875349,0.372093023 32.1235349,0.372093023 C49.6595349,0.372093023 63.8749767,14.5882791 63.8749767,32.1235349" id="Fill-1" fill="#FFFFFF"></path>
                <path d="M63.8749767,32.1235349 C63.8749767,49.6587907 49.6595349,63.8749767 32.1235349,63.8749767 C14.5875349,63.8749767 0.372093023,49.6587907 0.372093023,32.1235349 C0.372093023,14.5882791 14.5875349,0.372093023 32.1235349,0.372093023 C49.6595349,0.372093023 63.8749767,14.5882791 63.8749767,32.1235349 Z" id="Stroke-3" stroke="#E2E2E2"></path>
                <path d="M41.3430326,40.7812465 C40.4701023,40.0050605 39.5115907,39.3479442 38.4913116,38.8203163 C39.024893,36.9777116 39.3307535,34.9029209 39.3813581,32.747014 L44.7677767,32.747014 C44.6092651,35.8487814 43.3389395,38.6558512 41.3430326,40.7812465 L41.3430326,40.7812465 Z M35.5480558,44.2982698 C36.2230326,43.6277581 36.8347535,42.7496186 37.3742884,41.6832 C37.6399628,41.1615256 37.8788465,40.6004093 38.0946605,40.0169674 C38.9281488,40.4642233 39.7154977,41.0082233 40.4418233,41.643014 C39.0464744,42.8686884 37.3794977,43.7862698 35.5480558,44.2982698 L35.5480558,44.2982698 Z M32.752893,44.5758512 L32.752893,38.5479442 C34.2152186,38.6216186 35.6395907,38.9386419 36.9657302,39.4893395 C36.7558698,40.0727814 36.5236837,40.6227349 36.2632186,41.1384558 C35.2756837,43.0904558 34.0514977,44.2856186 32.752893,44.5758512 L32.752893,44.5758512 Z M26.9125209,38.2986419 C26.4421953,36.6085953 26.1698233,34.7198512 26.1244279,32.747014 L31.5056372,32.747014 L31.5056372,37.3006884 C29.9123349,37.3684093 28.3651721,37.7092465 26.9125209,38.2986419 L26.9125209,38.2986419 Z M31.5056372,44.5758512 C30.2070326,44.2856186 28.9821023,43.0904558 27.9953116,41.1384558 C27.7355907,40.6227349 27.5019163,40.0727814 27.2920558,39.4893395 C28.6196837,38.9386419 30.0418233,38.6164093 31.5056372,38.5479442 L31.5056372,44.5758512 Z M23.816707,41.6497116 C24.5422884,41.0141767 25.3303814,40.4701767 26.164614,40.0214326 C26.3796837,40.6056186 26.6178233,41.1682233 26.8842419,41.6891535 C27.4230326,42.7540837 28.0354977,43.6277581 28.7097302,44.3027349 C26.8782884,43.7862698 25.2120558,42.8686884 23.816707,41.6497116 L23.816707,41.6497116 Z M19.496707,32.747014 L24.8831256,32.747014 C24.9337302,34.907386 25.2395907,36.9777116 25.7731721,38.8203163 C24.752893,39.3479442 23.7943814,39.999107 22.920707,40.7812465 C20.9195907,38.6558512 19.6492651,35.8487814 19.496707,32.747014 L19.496707,32.747014 Z M22.8983814,23.4885953 C23.7772651,24.2707349 24.7357767,24.9285953 25.7620093,25.4614326 C25.2343814,27.2980837 24.9277767,29.3565023 24.8831256,31.4997581 L19.496707,31.4997581 C19.6492651,28.4091535 20.9136372,25.6087814 22.8983814,23.4885953 L22.8983814,23.4885953 Z M28.7097302,19.9507349 C28.0354977,20.619014 27.4230326,21.4978977 26.8842419,22.5583628 C26.6178233,23.0912 26.3744744,23.6575256 26.152707,24.2588279 C25.3140093,23.8048744 24.5259163,23.2616186 23.7943814,22.6201302 C25.1949395,21.3899907 26.8678698,20.4657116 28.7097302,19.9507349 L28.7097302,19.9507349 Z M31.5056372,19.6724093 L31.5056372,25.739014 C30.0373581,25.6653395 28.6077767,25.3423628 27.280893,24.7924093 C27.4914977,24.1970605 27.728893,23.6352 27.9953116,23.1083163 C28.9821023,21.1570605 30.2070326,19.9611535 31.5056372,19.6724093 L31.5056372,19.6724093 Z M31.4996837,31.4997581 L26.1192186,31.4997581 C26.164614,29.5380837 26.4310326,27.6612465 26.8954047,25.9823628 C28.3473116,26.5725023 29.9011721,26.9125953 31.4944744,26.9810605 L31.4944744,31.4997581 L31.4996837,31.4997581 Z M37.3452651,25.9890605 C37.8111256,27.6664558 38.0768,29.543293 38.1229395,31.5049674 L32.7469395,31.5049674 L32.7469395,26.9922233 C34.3461953,26.9178047 35.8948465,26.5725023 37.3452651,25.9890605 L37.3452651,25.9890605 Z M32.7469395,19.6724093 C34.0455442,19.9611535 35.2704744,21.1570605 36.2565209,23.1083163 C36.5236837,23.6352 36.7618233,24.1970605 36.9716837,24.7924093 C35.6395907,25.3423628 34.2152186,25.6653395 32.7469395,25.739014 L32.7469395,19.6724093 Z M40.4589395,22.6201302 C39.7333581,23.2616186 38.9393116,23.8048744 38.0998698,24.2588279 C37.8848,23.6575256 37.6399628,23.0912 37.3683349,22.5583628 C36.8302884,21.4926884 36.2170791,20.619014 35.5428465,19.9507349 C37.3861953,20.4657116 39.0583814,21.3899907 40.4589395,22.6201302 L40.4589395,22.6201302 Z M32.7469395,32.747014 L38.1281488,32.747014 C38.0827535,34.7198512 37.8111256,36.6085953 37.3400558,38.2986419 C35.8881488,37.7144558 34.3402419,37.3736186 32.7469395,37.3006884 L32.7469395,32.747014 Z M44.756614,31.4997581 L39.3701953,31.4997581 C39.3188465,29.3565023 39.0181953,27.2921302 38.4913116,25.4614326 C39.5175442,24.9338047 40.4753116,24.2707349 41.3549395,23.4885953 C43.3389395,25.6087814 44.6033116,28.4091535 44.756614,31.4997581 L44.756614,31.4997581 Z M41.9443349,22.303107 C39.3240558,19.6783628 35.8315907,18.2309209 32.1233116,18.2309209 C28.4157767,18.2309209 24.9233116,19.6783628 22.3030326,22.303107 C19.6834977,24.9285953 18.2315907,28.4158512 18.2315907,32.1241302 C18.2315907,35.8316651 19.6775442,39.3248744 22.3030326,41.9436651 C24.9277767,44.5639442 28.4157767,46.0158512 32.1233116,46.0158512 C35.8315907,46.0158512 39.3240558,44.5691535 41.9443349,41.9436651 C44.5638698,39.3181767 46.0150326,35.8316651 46.0150326,32.1241302 C46.0150326,28.4158512 44.5690791,24.9218977 41.9443349,22.303107 L41.9443349,22.303107 Z" id="Fill-5" fill="#393939"></path>
            </g>
        </g>
    </g>
</svg>