<?xml version="1.0" encoding="UTF-8"?>
<svg width="33px" height="33px" viewBox="0 0 33 33" version="1.1" xmlns="http://www.w3.org/2000/svg" xmlns:xlink="http://www.w3.org/1999/xlink">
    <!-- Generator: Sketch 43.2 (39069) - http://www.bohemiancoding.com/sketch -->
    <title>my_bascket_active_ico</title>
    <desc>Created with Sketch.</desc>
    <defs></defs>
    <g id="Symbols" stroke="none" stroke-width="1" fill="none" fill-rule="evenodd">
        <g id="my_bascket_active_ico">
            <g id="Page-1">
                <path d="M32.8333333,16.5 C32.8333333,25.5206667 25.5206667,32.8333333 16.5,32.8333333 C7.47933333,32.8333333 0.166666667,25.5206667 0.166666667,16.5 C0.166666667,7.47933333 7.47933333,0.166666667 16.5,0.166666667 C25.5206667,0.166666667 32.8333333,7.47933333 32.8333333,16.5" id="Fill-1" fill="#FFFFFF"></path>
                <path d="M32.8333333,16.5 C32.8333333,25.5206667 25.5206667,32.8333333 16.5,32.8333333 C7.47933333,32.8333333 0.166666667,25.5206667 0.166666667,16.5 C0.166666667,7.47933333 7.47933333,0.166666667 16.5,0.166666667 C25.5206667,0.166666667 32.8333333,7.47933333 32.8333333,16.5 Z" id="Stroke-3" stroke="#BCBCBC"></path>
                <path d="M17.4821,13.0075 L15.4821,13.0075 L15.4821,12.1505 C15.4821,11.5915 15.9227667,11.1398333 16.4827667,11.1398333 C17.0421,11.1398333 17.4821,11.5915 17.4821,12.1505 L17.4821,13.0075 Z M22.7287667,22.1611667 L21.2884333,13.4498333 C21.2557667,13.2351667 21.0727667,13.0075 20.8581,13.0075 L18.4821,13.0075 L18.4821,12.1505 C18.4821,11.1081667 17.5251,10.2581667 16.4824333,10.2581667 C15.4397667,10.2581667 14.4821,11.1081667 14.4821,12.1505 L14.4821,13.0075 L12.1271,13.0075 C11.9124333,13.0075 11.7297667,13.2351667 11.6974333,13.4498333 L10.2557667,22.1978333 C10.2354333,22.3265 10.2667667,22.4411667 10.3524333,22.5381667 C10.4387667,22.6348333 10.5574333,22.6741667 10.6861,22.6741667 L22.2984333,22.6741667 L22.3094333,22.6741667 C22.5571,22.6741667 22.7504333,22.5141667 22.7504333,22.2668333 C22.7504333,22.2135 22.7391,22.2041667 22.7287667,22.1611667 L22.7287667,22.1611667 Z" id="Fill-5" fill="#00CDBC"></path>
            </g>
        </g>
    </g>
</svg>