<?xml version="1.0" encoding="UTF-8"?>
<svg width="29px" height="29px" viewBox="0 0 29 29" version="1.1" xmlns="http://www.w3.org/2000/svg" xmlns:xlink="http://www.w3.org/1999/xlink">
    <!-- Generator: Sketch 43.2 (39069) - http://www.bohemiancoding.com/sketch -->
    <title>passive_like_round_ico</title>
    <desc>Created with Sketch.</desc>
    <defs></defs>
    <g id="Symbols" stroke="none" stroke-width="1" fill="none" fill-rule="evenodd">
        <g id="passive_like_round_ico">
            <g id="Group">
                <g id="Page-1">
                    <path d="M28.9271357,14.5 C28.9271357,22.4678593 22.4678593,28.9271357 14.5,28.9271357 C6.5321407,28.9271357 0.0728643216,22.4678593 0.0728643216,14.5 C0.0728643216,6.5321407 6.5321407,0.0728643216 14.5,0.0728643216 C22.4678593,0.0728643216 28.9271357,6.5321407 28.9271357,14.5" id="Fill-1" fill="#FFFFFF"></path>
                    <path d="M28.9271357,14.5 C28.9271357,22.4678593 22.4678593,28.9271357 14.5,28.9271357 C6.5321407,28.9271357 0.0728643216,22.4678593 0.0728643216,14.5 C0.0728643216,6.5321407 6.5321407,0.0728643216 14.5,0.0728643216 C22.4678593,0.0728643216 28.9271357,6.5321407 28.9271357,14.5 Z" id="Stroke-3" stroke="#B7B7B7"></path>
                    <path d="M14.4997085,19.7980377 C2.94998492,13.4974598 11.303005,5.66454523 14.4997085,10.9397764 C17.6968492,5.66454523 26.050598,13.4974598 14.4997085,19.7980377" id="Fill-5" fill="#D8D8D8"></path>
                </g>
            </g>
        </g>
    </g>
</svg>