<?xml version="1.0" encoding="UTF-8"?>
<svg width="32px" height="32px" viewBox="0 0 32 32" version="1.1" xmlns="http://www.w3.org/2000/svg" xmlns:xlink="http://www.w3.org/1999/xlink">
    <!-- Generator: Sketch 43.2 (39069) - http://www.bohemiancoding.com/sketch -->
    <title>preview_ico</title>
    <desc>Created with Sketch.</desc>
    <defs></defs>
    <g id="Symbols" stroke="none" stroke-width="1" fill="none" fill-rule="evenodd">
        <g id="preview_ico">
            <g id="Group">
                <g id="Page-1">
                    <path d="M31.8518519,15.9259259 C31.8518519,24.7214815 24.7217778,31.8518519 15.9259259,31.8518519 C7.13007407,31.8518519 0,24.7214815 0,15.9259259 C0,7.13037037 7.13007407,0 15.9259259,0 C24.7217778,0 31.8518519,7.13037037 31.8518519,15.9259259" id="Fill-1" fill="#393939"></path>
                    <path d="M20.4707852,17.4939259 C19.4183407,18.3312593 17.7611556,19.3291852 15.8260444,19.3291852 C13.736563,19.3291852 11.6989333,18.1831111 9.76322963,15.9214815 C10.0690074,15.5617778 10.6281185,14.9597037 11.3783407,14.3611852 C12.4301926,13.5235556 14.0873778,12.5256296 16.0227852,12.5256296 C18.1122667,12.5256296 20.1501926,13.6717037 22.0853037,15.9333333 C21.7801185,16.2933333 21.2207111,16.8980741 20.4707852,17.4939259 M23.2133037,15.5828148 C20.9756741,12.8311111 18.5596741,11.4340741 16.0257481,11.4340741 C15.0216,11.4340741 14.0058963,11.6577778 13.0020444,12.0962963 C12.2127111,12.4441481 11.4293037,12.9247407 10.6764148,13.5262222 C9.40352593,14.5454815 8.6536,15.5617778 8.62337778,15.6038519 C8.47819259,15.8035556 8.48441481,16.0755556 8.63848889,16.269037 C10.8728593,19.024 13.2921185,20.4177778 15.8260444,20.4177778 C16.8301926,20.4177778 17.8461926,20.1940741 18.8500444,19.7555556 C19.6390815,19.4077037 20.4224889,18.9271111 21.1753778,18.3256296 C22.448563,17.3063704 23.1981926,16.2903704 23.2287111,16.248 C23.3736,16.0482963 23.3676741,15.7762963 23.2133037,15.5828148" id="Fill-3" fill="#FFFFFF"></path>
                    <path d="M17.9308444,15.3831111 C17.6312889,15.3831111 17.3865481,15.6281481 17.3865481,15.9274074 C17.3865481,16.7348148 16.7302519,17.3908148 15.9231407,17.3908148 C15.115437,17.3908148 14.459437,16.7348148 14.459437,15.9274074 C14.459437,15.12 15.115437,14.4637037 15.9231407,14.4637037 C16.2221037,14.4637037 16.467437,14.218963 16.467437,13.9197037 C16.467437,13.6201481 16.2221037,13.3754074 15.9231407,13.3754074 C14.5139556,13.3754074 13.3708444,14.5214815 13.3708444,15.9274074 C13.3708444,17.3336296 14.5139556,18.4794074 15.9231407,18.4794074 C17.3320296,18.4794074 18.4751407,17.3336296 18.4751407,15.9274074 C18.4751407,15.6281481 18.2301037,15.3831111 17.9308444,15.3831111" id="Fill-5" fill="#FFFFFF"></path>
                </g>
            </g>
        </g>
    </g>
</svg>