<?xml version="1.0" encoding="UTF-8"?>
<svg width="18px" height="19px" viewBox="0 0 18 19" version="1.1" xmlns="http://www.w3.org/2000/svg" xmlns:xlink="http://www.w3.org/1999/xlink">
    <!-- Generator: Sketch 43.2 (39069) - http://www.bohemiancoding.com/sketch -->
    <title>print_ico</title>
    <desc>Created with Sketch.</desc>
    <defs>
        <polygon id="path-1" points="0 18 17.4642 18 17.4642 0.5358 0 0.5358"></polygon>
    </defs>
    <g id="Symbols" stroke="none" stroke-width="1" fill="none" fill-rule="evenodd">
        <g id="print_ico">
            <g id="Page-1">
                <g id="Group-3" transform="translate(0.000000, 0.064440)">
                    <mask id="mask-2" fill="white">
                        <use xlink:href="#path-1"></use>
                    </mask>
                    <g id="Clip-2"></g>
                    <path d="M16.51056,14.35578 L13.33656,14.35578 L13.33656,11.57898 L14.60256,11.57898 C14.87016,11.57898 15.07956,11.36958 15.07956,11.10258 C15.07956,10.83498 14.87016,10.62558 14.60256,10.62558 L2.87676,10.62558 C2.60976,10.62558 2.39976,10.83498 2.39976,11.10258 C2.39976,11.36958 2.60976,11.57898 2.87676,11.57898 L4.14336,11.57898 L4.14336,14.35578 L0.95376,14.35578 L0.95376,4.17978 L16.51056,4.17978 L16.51056,14.35578 Z M5.08116,17.04618 L12.38316,17.04618 L12.38316,11.57898 L5.08116,11.57898 L5.08116,17.04618 Z M5.08116,3.22638 L12.38316,3.22638 L12.38316,1.48938 L5.08116,1.48938 L5.08116,3.22638 Z M17.46456,3.70338 C17.46456,3.43578 17.25456,3.22638 16.98756,3.22638 L13.33656,3.22638 L13.33656,1.01238 C13.33656,0.74478 13.12716,0.53538 12.86016,0.53538 L4.60416,0.53538 C4.33716,0.53538 4.12776,0.74478 4.12776,1.01238 L4.12776,3.22638 L0.47676,3.22638 C0.20976,3.22638 -0.00024,3.43578 -0.00024,3.70338 L-0.00024,14.83278 C-0.00024,15.08658 0.22296,15.30918 0.47676,15.30918 L4.12776,15.30918 L4.12776,17.52318 C4.12776,17.79078 4.33716,18.00018 4.60416,18.00018 L12.86016,18.00018 C13.12716,18.00018 13.33656,17.79078 13.33656,17.52318 L13.33656,15.30918 L16.98756,15.30918 C17.25456,15.30918 17.46456,15.09978 17.46456,14.83278 L17.46456,3.70338 Z" id="Fill-1" fill="#393939" mask="url(#mask-2)"></path>
                </g>
                <path d="M13.66992,6.51648 L12.04992,6.51648 C11.78232,6.51648 11.57292,6.72588 11.57292,6.99288 C11.57292,7.26048 11.78232,7.46988 12.04992,7.46988 L13.66992,7.46988 C13.93692,7.46988 14.14692,7.26048 14.14692,6.99288 C14.14692,6.72588 13.93692,6.51648 13.66992,6.51648" id="Fill-4" fill="#393939"></path>
            </g>
        </g>
    </g>
</svg>