<?xml version="1.0" encoding="UTF-8"?>
<svg width="34px" height="29px" viewBox="0 0 34 29" version="1.1" xmlns="http://www.w3.org/2000/svg" xmlns:xlink="http://www.w3.org/1999/xlink">
    <!-- Generator: Sketch 43.2 (39069) - http://www.bohemiancoding.com/sketch -->
    <title>receipt_ico copy</title>
    <desc>Created with Sketch.</desc>
    <defs></defs>
    <g id="Symbols" stroke="none" stroke-width="1" fill="none" fill-rule="evenodd">
        <g id="receipt_ico-copy" fill="#393939">
            <g id="Page-1">
                <path d="M32.2616186,26.5464558 C32.2616186,26.9952 31.8977116,27.359107 31.4497116,27.359107 L2.59613023,27.359107 C2.14813023,27.359107 1.78422326,26.9952 1.78422326,26.5464558 L1.78422326,13.2352 C1.78422326,12.7886884 2.14813023,12.4240372 2.59613023,12.4240372 L18.6779907,12.4240372 L13.9583628,17.1436651 C13.8861767,17.2158512 13.8303628,17.3051535 13.7968744,17.4026419 L12.6322233,20.9025488 C12.5518512,21.1406884 12.6136186,21.4048744 12.7914791,21.5812465 C12.9179907,21.7085023 13.0884093,21.7762233 13.2618047,21.7762233 C13.3317581,21.7762233 13.4024558,21.7650605 13.4724093,21.7427349 L16.9700837,20.5758512 C17.0690605,20.543107 17.1576186,20.4887814 17.231293,20.4158512 L25.2208744,12.4240372 L31.4497116,12.4240372 C31.8977116,12.4240372 32.2616186,12.7886884 32.2616186,13.2352 L32.2616186,26.5464558 Z M28.2854326,4.69417674 L29.679293,6.08729302 L16.4015256,19.3650605 L14.3125953,20.0623628 L15.0076651,17.9712 L28.2854326,4.69417674 Z M30.9258047,2.05454884 C31.1163163,1.86254884 31.4288744,1.86254884 31.619386,2.05454884 L32.3189209,2.75333953 C32.4119442,2.84636279 32.4625488,2.96989767 32.4625488,3.10087442 C32.4625488,3.23259535 32.4119442,3.35538605 32.3189209,3.4484093 L30.6184558,5.14813023 L29.4255256,3.95445581 L29.2253395,3.75426977 L30.9258047,2.05454884 Z M31.4497116,11.0949209 L26.5492465,11.0949209 L33.2588279,4.38757209 C33.6026419,4.04375814 33.7916651,3.58682791 33.7916651,3.10087442 C33.7916651,2.6164093 33.6026419,2.15873488 33.2588279,1.8164093 L32.5585488,1.11613023 C31.8485953,0.405432558 30.6958512,0.405432558 29.9858977,1.11613023 L20.0048744,11.0949209 L2.59613023,11.0949209 C1.41585116,11.0949209 0.455851163,12.0549209 0.455851163,13.2352 L0.455851163,26.5464558 C0.455851163,27.7267349 1.41585116,28.6867349 2.59613023,28.6867349 L31.4497116,28.6867349 C32.6299907,28.6867349 33.5899907,27.7267349 33.5899907,26.5464558 L33.5899907,13.2352 C33.5899907,12.0549209 32.6299907,11.0949209 31.4497116,11.0949209 L31.4497116,11.0949209 Z" id="Fill-5"></path>
                <path d="M29.8241116,24.538493 L29.4289488,24.538493 C29.0613209,24.538493 28.7636465,24.8361674 28.7636465,25.2030512 C28.7636465,25.5706791 29.0613209,25.8676093 29.4289488,25.8676093 L29.8241116,25.8676093 C30.1902512,25.8676093 30.489414,25.5706791 30.489414,25.2030512 C30.489414,24.8361674 30.1902512,24.538493 29.8241116,24.538493" id="Fill-7"></path>
                <path d="M26.7885023,24.538493 L11.6778047,24.538493 C11.3101767,24.538493 11.0132465,24.8361674 11.0132465,25.2030512 C11.0132465,25.5706791 11.3101767,25.8676093 11.6778047,25.8676093 L26.7885023,25.8676093 C27.155386,25.8676093 27.4530605,25.5706791 27.4530605,25.2030512 C27.4530605,24.8361674 27.155386,24.538493 26.7885023,24.538493" id="Fill-9"></path>
                <path d="M29.8241116,20.7129302 L19.925693,20.7129302 C19.5595535,20.7129302 19.2626233,21.0098605 19.2626233,21.376 C19.2626233,21.7428837 19.5595535,22.039814 19.925693,22.039814 L29.8241116,22.039814 C30.1902512,22.039814 30.489414,21.7428837 30.489414,21.376 C30.489414,21.0098605 30.1902512,20.7129302 29.8241116,20.7129302" id="Fill-11"></path>
                <path d="M7.38809302,22.4599814 L7.38809302,19.9014698 C7.98269767,20.1559814 8.456,20.494586 8.456,21.2596093 C8.456,21.9509581 8.04223256,22.3386791 7.38809302,22.4599814 L7.38809302,22.4599814 Z M6.81804651,18.3245395 C6.17506977,18.0811907 5.65339535,17.8274233 5.65339535,17.1360744 C5.65339535,16.5050047 6.13860465,16.2021209 6.81804651,16.1172837 L6.81804651,18.3245395 Z M7.46102326,18.5559814 L7.46102326,16.0934698 C8.30939535,16.1530047 8.62418605,16.5429581 8.91665116,16.5429581 C9.28055814,16.5429581 9.45023256,16.0815628 9.45023256,15.8508651 C9.45023256,15.2555163 8.2855814,15.0010047 7.46102326,14.9779349 L7.46102326,14.6497488 C7.46102326,14.5038884 7.27869767,14.3706791 7.09637209,14.3706791 C6.89097674,14.3706791 6.74511628,14.5038884 6.74511628,14.6497488 L6.74511628,15.0010047 C5.59311628,15.122307 4.44037209,15.7295628 4.44037209,17.2573767 C4.44037209,18.810493 5.65339535,19.246586 6.74511628,19.6350512 L6.74511628,22.4845395 C5.50827907,22.3877953 5.18009302,21.5386791 4.77972093,21.5386791 C4.4775814,21.5386791 4.22306977,21.9390512 4.22306977,22.2300279 C4.22306977,22.8238884 5.24111628,23.6372837 6.74511628,23.6618419 L6.74511628,24.0369116 C6.74511628,24.1827721 6.89097674,24.3159814 7.09711628,24.3159814 C7.27944186,24.3159814 7.46102326,24.1827721 7.46102326,24.0369116 L7.46102326,23.6238884 C8.77004651,23.442307 9.66753488,22.618493 9.66753488,21.1264 C9.66753488,19.4765395 8.51627907,18.9429581 7.46102326,18.5559814 L7.46102326,18.5559814 Z" id="Fill-13"></path>
            </g>
        </g>
    </g>
</svg>