<?xml version="1.0" encoding="UTF-8"?>
<svg width="64px" height="64px" viewBox="0 0 64 64" version="1.1" xmlns="http://www.w3.org/2000/svg" xmlns:xlink="http://www.w3.org/1999/xlink">
    <!-- Generator: Sketch 43.2 (39069) - http://www.bohemiancoding.com/sketch -->
    <title>receipt_ico</title>
    <desc>Created with Sketch.</desc>
    <defs></defs>
    <g id="Symbols" stroke="none" stroke-width="1" fill="none" fill-rule="evenodd">
        <g id="receipt_ico">
            <g id="Page-1">
                <path d="M63.8749767,32.1235349 C63.8749767,49.6587907 49.6595349,63.8749767 32.1235349,63.8749767 C14.5875349,63.8749767 0.372093023,49.6587907 0.372093023,32.1235349 C0.372093023,14.5882791 14.5875349,0.372093023 32.1235349,0.372093023 C49.6595349,0.372093023 63.8749767,14.5882791 63.8749767,32.1235349" id="Fill-1" fill="#FFFFFF"></path>
                <path d="M63.8749767,32.1235349 C63.8749767,49.6587907 49.6595349,63.8749767 32.1235349,63.8749767 C14.5875349,63.8749767 0.372093023,49.6587907 0.372093023,32.1235349 C0.372093023,14.5882791 14.5875349,0.372093023 32.1235349,0.372093023 C49.6595349,0.372093023 63.8749767,14.5882791 63.8749767,32.1235349 Z" id="Stroke-3" stroke="#E2E2E2"></path>
                <path d="M47.2616186,42.5464558 C47.2616186,42.9952 46.8977116,43.359107 46.4497116,43.359107 L17.5961302,43.359107 C17.1481302,43.359107 16.7842233,42.9952 16.7842233,42.5464558 L16.7842233,29.2352 C16.7842233,28.7886884 17.1481302,28.4240372 17.5961302,28.4240372 L33.6779907,28.4240372 L28.9583628,33.1436651 C28.8861767,33.2158512 28.8303628,33.3051535 28.7968744,33.4026419 L27.6322233,36.9025488 C27.5518512,37.1406884 27.6136186,37.4048744 27.7914791,37.5812465 C27.9179907,37.7085023 28.0884093,37.7762233 28.2618047,37.7762233 C28.3317581,37.7762233 28.4024558,37.7650605 28.4724093,37.7427349 L31.9700837,36.5758512 C32.0690605,36.543107 32.1576186,36.4887814 32.231293,36.4158512 L40.2208744,28.4240372 L46.4497116,28.4240372 C46.8977116,28.4240372 47.2616186,28.7886884 47.2616186,29.2352 L47.2616186,42.5464558 Z M43.2854326,20.6941767 L44.679293,22.087293 L31.4015256,35.3650605 L29.3125953,36.0623628 L30.0076651,33.9712 L43.2854326,20.6941767 Z M45.9258047,18.0545488 C46.1163163,17.8625488 46.4288744,17.8625488 46.619386,18.0545488 L47.3189209,18.7533395 C47.4119442,18.8463628 47.4625488,18.9698977 47.4625488,19.1008744 C47.4625488,19.2325953 47.4119442,19.355386 47.3189209,19.4484093 L45.6184558,21.1481302 L44.4255256,19.9544558 L44.2253395,19.7542698 L45.9258047,18.0545488 Z M46.4497116,27.0949209 L41.5492465,27.0949209 L48.2588279,20.3875721 C48.6026419,20.0437581 48.7916651,19.5868279 48.7916651,19.1008744 C48.7916651,18.6164093 48.6026419,18.1587349 48.2588279,17.8164093 L47.5585488,17.1161302 C46.8485953,16.4054326 45.6958512,16.4054326 44.9858977,17.1161302 L35.0048744,27.0949209 L17.5961302,27.0949209 C16.4158512,27.0949209 15.4558512,28.0549209 15.4558512,29.2352 L15.4558512,42.5464558 C15.4558512,43.7267349 16.4158512,44.6867349 17.5961302,44.6867349 L46.4497116,44.6867349 C47.6299907,44.6867349 48.5899907,43.7267349 48.5899907,42.5464558 L48.5899907,29.2352 C48.5899907,28.0549209 47.6299907,27.0949209 46.4497116,27.0949209 L46.4497116,27.0949209 Z" id="Fill-5" fill="#393939"></path>
                <path d="M44.8241116,40.538493 L44.4289488,40.538493 C44.0613209,40.538493 43.7636465,40.8361674 43.7636465,41.2030512 C43.7636465,41.5706791 44.0613209,41.8676093 44.4289488,41.8676093 L44.8241116,41.8676093 C45.1902512,41.8676093 45.489414,41.5706791 45.489414,41.2030512 C45.489414,40.8361674 45.1902512,40.538493 44.8241116,40.538493" id="Fill-7" fill="#393939"></path>
                <path d="M41.7885023,40.538493 L26.6778047,40.538493 C26.3101767,40.538493 26.0132465,40.8361674 26.0132465,41.2030512 C26.0132465,41.5706791 26.3101767,41.8676093 26.6778047,41.8676093 L41.7885023,41.8676093 C42.155386,41.8676093 42.4530605,41.5706791 42.4530605,41.2030512 C42.4530605,40.8361674 42.155386,40.538493 41.7885023,40.538493" id="Fill-9" fill="#393939"></path>
                <path d="M44.8241116,36.7129302 L34.925693,36.7129302 C34.5595535,36.7129302 34.2626233,37.0098605 34.2626233,37.376 C34.2626233,37.7428837 34.5595535,38.039814 34.925693,38.039814 L44.8241116,38.039814 C45.1902512,38.039814 45.489414,37.7428837 45.489414,37.376 C45.489414,37.0098605 45.1902512,36.7129302 44.8241116,36.7129302" id="Fill-11" fill="#393939"></path>
                <path d="M22.388093,38.4599814 L22.388093,35.9014698 C22.9826977,36.1559814 23.456,36.494586 23.456,37.2596093 C23.456,37.9509581 23.0422326,38.3386791 22.388093,38.4599814 L22.388093,38.4599814 Z M21.8180465,34.3245395 C21.1750698,34.0811907 20.6533953,33.8274233 20.6533953,33.1360744 C20.6533953,32.5050047 21.1386047,32.2021209 21.8180465,32.1172837 L21.8180465,34.3245395 Z M22.4610233,34.5559814 L22.4610233,32.0934698 C23.3093953,32.1530047 23.624186,32.5429581 23.9166512,32.5429581 C24.2805581,32.5429581 24.4502326,32.0815628 24.4502326,31.8508651 C24.4502326,31.2555163 23.2855814,31.0010047 22.4610233,30.9779349 L22.4610233,30.6497488 C22.4610233,30.5038884 22.2786977,30.3706791 22.0963721,30.3706791 C21.8909767,30.3706791 21.7451163,30.5038884 21.7451163,30.6497488 L21.7451163,31.0010047 C20.5931163,31.122307 19.4403721,31.7295628 19.4403721,33.2573767 C19.4403721,34.810493 20.6533953,35.246586 21.7451163,35.6350512 L21.7451163,38.4845395 C20.5082791,38.3877953 20.180093,37.5386791 19.7797209,37.5386791 C19.4775814,37.5386791 19.2230698,37.9390512 19.2230698,38.2300279 C19.2230698,38.8238884 20.2411163,39.6372837 21.7451163,39.6618419 L21.7451163,40.0369116 C21.7451163,40.1827721 21.8909767,40.3159814 22.0971163,40.3159814 C22.2794419,40.3159814 22.4610233,40.1827721 22.4610233,40.0369116 L22.4610233,39.6238884 C23.7700465,39.442307 24.6675349,38.618493 24.6675349,37.1264 C24.6675349,35.4765395 23.5162791,34.9429581 22.4610233,34.5559814 L22.4610233,34.5559814 Z" id="Fill-13" fill="#393939"></path>
            </g>
        </g>
    </g>
</svg>