<?xml version="1.0" encoding="UTF-8"?>
<svg width="20px" height="21px" viewBox="0 0 20 21" version="1.1" xmlns="http://www.w3.org/2000/svg" xmlns:xlink="http://www.w3.org/1999/xlink">
    <!-- Generator: Sketch 43.2 (39069) - http://www.bohemiancoding.com/sketch -->
    <title>search_ico</title>
    <desc>Created with Sketch.</desc>
    <defs></defs>
    <g id="Symbols" stroke="none" stroke-width="1" fill="none" fill-rule="evenodd">
        <g id="search_ico" fill="#00CDBC">
            <path d="M8.29100113,15.1959823 C4.48289123,15.1959823 1.38533636,12.0979803 1.38533636,8.2907647 C1.38533636,4.48310197 4.48289123,1.38509994 8.29100113,1.38509994 C12.099111,1.38509994 15.1962187,4.48310197 15.1962187,8.2907647 C15.1962187,12.0979803 12.099111,15.1959823 8.29100113,15.1959823 L8.29100113,15.1959823 Z M14.3774483,13.9278048 L14.6368076,13.620151 C15.8911228,12.1288351 16.5815551,10.2359594 16.5815551,8.2907647 C16.5815551,3.71933357 12.8624323,0.00021074475 8.29100113,0.00021074475 C3.71912283,0.00021074475 0,3.71933357 0,8.2907647 C0,12.8617487 3.71912283,16.5813187 8.29100113,16.5813187 C10.0018781,16.5813187 11.6438907,16.0626001 13.039512,15.0815065 L13.3529791,14.8610511 L18.8089148,20.5347592 C19.0651439,20.8008261 19.5212585,20.8102166 19.7882197,20.5539876 C20.06323,20.2897094 20.0712791,19.8501401 19.8070009,19.5751298 L14.3774483,13.9278048 Z" id="Page-1"></path>
        </g>
    </g>
</svg>