<?xml version="1.0" encoding="UTF-8"?>
<svg width="33px" height="33px" viewBox="0 0 33 33" version="1.1" xmlns="http://www.w3.org/2000/svg" xmlns:xlink="http://www.w3.org/1999/xlink">
    <!-- Generator: Sketch 43.2 (39069) - http://www.bohemiancoding.com/sketch -->
    <title>share_round</title>
    <desc>Created with Sketch.</desc>
    <defs></defs>
    <g id="Symbols" stroke="none" stroke-width="1" fill="none" fill-rule="evenodd">
        <g id="share_round">
            <g id="Group">
                <g id="Page-1">
                    <path d="M32.8333333,16.5 C32.8333333,25.5206667 25.5206667,32.8333333 16.5,32.8333333 C7.47933333,32.8333333 0.166666667,25.5206667 0.166666667,16.5 C0.166666667,7.47933333 7.47933333,0.166666667 16.5,0.166666667 C25.5206667,0.166666667 32.8333333,7.47933333 32.8333333,16.5" id="Fill-1" fill="#FFFFFF"></path>
                    <path d="M32.8333333,16.5 C32.8333333,25.5206667 25.5206667,32.8333333 16.5,32.8333333 C7.47933333,32.8333333 0.166666667,25.5206667 0.166666667,16.5 C0.166666667,7.47933333 7.47933333,0.166666667 16.5,0.166666667 C25.5206667,0.166666667 32.8333333,7.47933333 32.8333333,16.5 Z" id="Stroke-3" stroke="#BCBCBC"></path>
                    <path d="M13.2093333,15.1976667 C13.7936667,15.1976667 14.264,15.668 14.264,16.2523333 C14.264,16.8366667 13.7936667,17.307 13.2093333,17.307 C12.6246667,17.307 12.1543333,16.8366667 12.1543333,16.2523333 C12.1543333,15.668 12.6393333,15.1976667 13.2093333,15.1976667 M19.281,9.14033333 C19.8653333,9.14033333 20.3353333,9.61066667 20.3353333,10.195 C20.3353333,10.7793333 19.8653333,11.2496667 19.281,11.2496667 C18.6966667,11.2496667 18.2266667,10.7793333 18.2266667,10.195 C18.2266667,9.61066667 18.6966667,9.14033333 19.281,9.14033333 M19.281,21.2693333 C19.8653333,21.2693333 20.3353333,21.7396667 20.3353333,22.324 C20.3353333,22.9083333 19.8653333,23.3786667 19.281,23.3786667 C18.6966667,23.3786667 18.2266667,22.9083333 18.2266667,22.324 C18.2266667,21.7396667 18.6966667,21.2693333 19.281,21.2693333 M13.2093333,18.4616667 C13.608,18.4616667 13.9793333,18.3476667 14.3066667,18.1623333 L17.3566667,21.2123333 C17.1713333,21.54 17.0576667,21.9106667 17.0576667,22.31 C17.0576667,23.5353333 18.0553333,24.519 19.2666667,24.519 C20.4783333,24.519 21.476,23.5213333 21.476,22.31 C21.476,21.084 20.4783333,20.1006667 19.2666667,20.1006667 C18.868,20.1006667 18.4966667,20.2146667 18.1693333,20.3996667 L15.1333333,17.3496667 C15.3183333,17.022 15.433,16.6513333 15.433,16.2523333 C15.433,15.8533333 15.3183333,15.4826667 15.1333333,15.155 L18.1693333,12.1193333 C18.4966667,12.3043333 18.868,12.4183333 19.2666667,12.4183333 C20.4926667,12.4183333 21.476,11.4206667 21.476,10.209 C21.476,8.99766667 20.4783333,8 19.2666667,8 C18.0553333,8 17.0576667,8.99766667 17.0576667,10.209 C17.0576667,10.6083333 17.1713333,10.979 17.3566667,11.3066667 L14.3066667,14.3283333 C13.993,14.143 13.608,14.043 13.2093333,14.043 C11.9833333,14.043 11,15.041 11,16.2523333 C11,17.464 11.9976667,18.4616667 13.2093333,18.4616667" id="Fill-5" fill="#393939"></path>
                </g>
            </g>
        </g>
    </g>
</svg>