<?xml version="1.0" encoding="UTF-8"?>
<svg width="11px" height="17px" viewBox="0 0 11 17" version="1.1" xmlns="http://www.w3.org/2000/svg" xmlns:xlink="http://www.w3.org/1999/xlink">
    <!-- Generator: Sketch 43.2 (39069) - http://www.bohemiancoding.com/sketch -->
    <title>share_ico</title>
    <desc>Created with Sketch.</desc>
    <defs></defs>
    <g id="Symbols" stroke="none" stroke-width="1" fill="none" fill-rule="evenodd">
        <g id="share_ico" fill="#393939">
            <path d="M2.20933333,7.19766667 C2.79366667,7.19766667 3.264,7.668 3.264,8.25233333 C3.264,8.83666667 2.79366667,9.307 2.20933333,9.307 C1.62466667,9.307 1.15433333,8.83666667 1.15433333,8.25233333 C1.15433333,7.668 1.63933333,7.19766667 2.20933333,7.19766667 M8.281,1.14033333 C8.86533333,1.14033333 9.33533333,1.61066667 9.33533333,2.195 C9.33533333,2.77933333 8.86533333,3.24966667 8.281,3.24966667 C7.69666667,3.24966667 7.22666667,2.77933333 7.22666667,2.195 C7.22666667,1.61066667 7.69666667,1.14033333 8.281,1.14033333 M8.281,13.2693333 C8.86533333,13.2693333 9.33533333,13.7396667 9.33533333,14.324 C9.33533333,14.9083333 8.86533333,15.3786667 8.281,15.3786667 C7.69666667,15.3786667 7.22666667,14.9083333 7.22666667,14.324 C7.22666667,13.7396667 7.69666667,13.2693333 8.281,13.2693333 M2.20933333,10.4616667 C2.608,10.4616667 2.97933333,10.3476667 3.30666667,10.1623333 L6.35666667,13.2123333 C6.17133333,13.54 6.05766667,13.9106667 6.05766667,14.31 C6.05766667,15.5353333 7.05533333,16.519 8.26666667,16.519 C9.47833333,16.519 10.476,15.5213333 10.476,14.31 C10.476,13.084 9.47833333,12.1006667 8.26666667,12.1006667 C7.868,12.1006667 7.49666667,12.2146667 7.16933333,12.3996667 L4.13333333,9.34966667 C4.31833333,9.022 4.433,8.65133333 4.433,8.25233333 C4.433,7.85333333 4.31833333,7.48266667 4.13333333,7.155 L7.16933333,4.11933333 C7.49666667,4.30433333 7.868,4.41833333 8.26666667,4.41833333 C9.49266667,4.41833333 10.476,3.42066667 10.476,2.209 C10.476,0.997666667 9.47833333,0 8.26666667,0 C7.05533333,0 6.05766667,0.997666667 6.05766667,2.209 C6.05766667,2.60833333 6.17133333,2.979 6.35666667,3.30666667 L3.30666667,6.32833333 C2.993,6.143 2.608,6.043 2.20933333,6.043 C0.983333333,6.043 0,7.041 0,8.25233333 C0,9.464 0.997666667,10.4616667 2.20933333,10.4616667" id="Fill-5-Copy"></path>
        </g>
    </g>
</svg>