<?xml version="1.0" encoding="UTF-8"?>
<svg width="13px" height="13px" viewBox="0 0 13 13" version="1.1" xmlns="http://www.w3.org/2000/svg" xmlns:xlink="http://www.w3.org/1999/xlink">
    <!-- Generator: Sketch 43.2 (39069) - http://www.bohemiancoding.com/sketch -->
    <title>time_ico</title>
    <desc>Created with Sketch.</desc>
    <defs></defs>
    <g id="Symbols" stroke="none" stroke-width="1" fill="none" fill-rule="evenodd">
        <g id="time_ico" fill="#D8D8D8">
            <path d="M9.30996685,7.73617 L6.55427981,7.73617 C6.54496315,7.73617 6.53629648,7.73390704 6.52705204,7.73357 C6.51785574,7.73400333 6.50921315,7.73617 6.49982426,7.73617 C6.25159648,7.73617 6.05031315,7.53488667 6.05031315,7.28661074 L6.05031315,2.69751444 C6.05031315,2.44923852 6.25159648,2.24795519 6.49982426,2.24795519 C6.74810019,2.24795519 6.94938352,2.44923852 6.94938352,2.69751444 L6.94938352,6.83707556 L9.30979833,6.83707556 C9.55807426,6.83707556 9.75935759,7.03838296 9.75935759,7.28661074 C9.75935759,7.53488667 9.55824278,7.73617 9.30996685,7.73617 M6.49987241,-9.62962963e-06 C2.91013907,-9.62962963e-06 -7.22222217e-06,2.91023296 -7.22222217e-06,6.49989407 C-7.22222217e-06,10.0895552 2.91013907,12.9999904 6.49987241,12.9999904 C10.0896539,12.9999904 12.9999928,10.0895552 12.9999928,6.49989407 C12.9999928,2.91023296 10.0896539,-9.62962963e-06 6.49987241,-9.62962963e-06" id="Fill-1"></path>
        </g>
    </g>
</svg>