<?xml version="1.0" encoding="UTF-8"?>
<svg width="20px" height="26px" viewBox="0 0 20 26" version="1.1" xmlns="http://www.w3.org/2000/svg" xmlns:xlink="http://www.w3.org/1999/xlink">
    <!-- Generator: Sketch 43.2 (39069) - http://www.bohemiancoding.com/sketch -->
    <title>wo_profile_black_ico</title>
    <desc>Created with Sketch.</desc>
    <defs>
        <polygon id="path-1" points="9.98048148 24.8553333 19.9607407 24.8553333 19.9607407 -0.000222222222 9.98048148 -0.000222222222 0.000222222222 -0.000222222222 0.000222222222 24.8553333"></polygon>
    </defs>
    <g id="Symbols" stroke="none" stroke-width="1" fill="none" fill-rule="evenodd">
        <g id="wo_profile_black_ico">
            <g id="Page-1">
                <mask id="mask-2" fill="white">
                    <use xlink:href="#path-1"></use>
                </mask>
                <g id="Clip-2"></g>
                <path d="M10.0513333,24.8553333 L9.90985185,24.8553333 L0.000222222222,24.8553333 C0.000222222222,17.6086667 6.36392593,17.6101481 7.778,15.7153333 L8.02540741,14.3923704 C7.60837037,14.1745926 7.22318519,13.8842222 6.87207407,13.5427407 C4.2417037,13.1864444 1.23874074,12.6242222 1.23874074,12.6242222 C7.618,9.61903704 0.622444444,0.373111111 9.95133333,0.00422222222 L9.95133333,-0.000222222222 C9.9617037,0.000518518519 9.97059259,0.00125925926 9.98022222,0.002 L10.0083704,-0.000222222222 L10.0083704,0.00422222222 C19.3387407,0.373111111 12.3424444,9.61903704 18.7224444,12.6242222 C18.7224444,12.6242222 15.7187407,13.1864444 13.0891111,13.5427407 C12.7528148,13.8701481 12.3839259,14.1494074 11.9868889,14.3642222 L12.258,15.8101481 C13.8076296,17.6123704 19.960963,17.7301481 19.960963,24.8553333 L10.0513333,24.8553333 Z" id="Fill-1" fill="#393939" mask="url(#mask-2)"></path>
            </g>
        </g>
    </g>
</svg>