<?xml version="1.0" encoding="UTF-8"?>
<svg width="41px" height="41px" viewBox="0 0 41 41" version="1.1" xmlns="http://www.w3.org/2000/svg" xmlns:xlink="http://www.w3.org/1999/xlink">
    <!-- Generator: Sketch 43.2 (39069) - http://www.bohemiancoding.com/sketch -->
    <title>youtube_round_ico</title>
    <desc>Created with Sketch.</desc>
    <defs></defs>
    <g id="Symbols" stroke="none" stroke-width="1" fill="none" fill-rule="evenodd">
        <g id="youtube_round_ico">
            <g id="Page-1">
                <path d="M40.5,20.5 C40.5,31.546 31.546,40.5 20.5,40.5 C9.454,40.5 0.5,31.546 0.5,20.5 C0.5,9.454 9.454,0.5 20.5,0.5 C31.546,0.5 40.5,9.454 40.5,20.5" id="Fill-1" fill="#FFFFFF"></path>
                <path d="M40.5,20.5 C40.5,31.546 31.546,40.5 20.5,40.5 C9.454,40.5 0.5,31.546 0.5,20.5 C0.5,9.454 9.454,0.5 20.5,0.5 C31.546,0.5 40.5,9.454 40.5,20.5 Z" id="Stroke-3" stroke="#C6C6C6"></path>
                <path d="M16.3184,18.3867 L17.5054,18.3867 L17.5064,14.2827 L18.9094,10.7657 L17.6104,10.7657 L16.8654,13.3767 L16.1084,10.7577 L14.8234,10.7577 L16.3154,14.2837 L16.3184,18.3867 Z M19.7994,16.9477 C19.7994,17.2517 20.0254,17.4987 20.3014,17.4987 C20.5764,17.4987 20.8004,17.2517 20.8004,16.9477 L20.8004,14.0987 C20.8004,13.7967 20.5764,13.5487 20.3014,13.5487 C20.0254,13.5487 19.7994,13.7967 19.7994,14.0987 L19.7994,16.9477 Z M18.8144,14.8217 C18.8144,14.3087 18.8574,13.9077 18.9424,13.6177 C19.0284,13.3297 19.1824,13.0977 19.4054,12.9237 C19.6284,12.7467 19.9124,12.6587 20.2584,12.6587 C20.5494,12.6587 20.7994,12.7167 21.0074,12.8277 C21.2164,12.9417 21.3794,13.0877 21.4904,13.2677 C21.6044,13.4497 21.6814,13.6347 21.7224,13.8247 C21.7654,14.0187 21.7864,14.3087 21.7864,14.7007 L21.7864,16.0547 C21.7864,16.5517 21.7654,16.9157 21.7274,17.1477 C21.6894,17.3807 21.6074,17.5967 21.4794,17.7987 C21.3534,17.9987 21.1924,18.1477 20.9954,18.2437 C20.7974,18.3397 20.5694,18.3877 20.3114,18.3877 C20.0254,18.3877 19.7844,18.3477 19.5854,18.2647 C19.3844,18.1827 19.2304,18.0587 19.1204,17.8937 C19.0084,17.7287 18.9314,17.5297 18.8834,17.2937 C18.8364,17.0597 18.8134,16.7077 18.8134,16.2387 L18.8144,14.8217 Z M22.6294,17.8437 C22.6864,17.9857 22.7764,18.1017 22.9004,18.1887 C23.0204,18.2727 23.1754,18.3157 23.3624,18.3157 C23.5244,18.3157 23.6694,18.2717 23.7944,18.1807 C23.9194,18.0907 24.0244,17.9547 24.1104,17.7757 L24.0894,18.2187 L25.3484,18.2187 L25.3484,12.8667 L24.3574,12.8667 L24.3574,17.0327 C24.3574,17.2577 24.1724,17.4427 23.9444,17.4427 C23.7174,17.4427 23.5324,17.2577 23.5324,17.0327 L23.5324,12.8667 L22.4994,12.8667 L22.4994,16.4777 C22.4994,16.9367 22.5064,17.2427 22.5204,17.3987 C22.5354,17.5527 22.5704,17.6997 22.6294,17.8437 L22.6294,17.8437 Z M26.9704,26.5527 L26.1244,26.5577 C26.1244,26.5917 26.1234,26.6297 26.1224,26.6727 L26.1224,27.1447 C26.1224,27.3977 25.9134,27.6037 25.6594,27.6037 L25.4934,27.6037 C25.2394,27.6037 25.0304,27.3977 25.0304,27.1447 L25.0304,27.0917 L25.0304,26.5737 L25.0304,25.9017 L26.9694,25.9017 L26.9694,25.1727 C26.9694,24.6397 26.9564,24.1067 26.9114,23.8017 C26.7724,22.8377 25.4204,22.6847 24.7344,23.1787 C24.5204,23.3317 24.3564,23.5387 24.2614,23.8157 C24.1664,24.0927 24.1174,24.4717 24.1174,24.9517 L24.1174,26.5567 C24.1184,29.2237 27.3564,28.8467 26.9704,26.5527 L26.9704,26.5527 Z M23.4374,26.9097 L23.4344,24.2197 C23.4334,23.1947 22.6674,22.5807 21.6264,23.4097 L21.6304,21.4087 L20.5034,21.4117 L20.4984,28.3157 L21.4244,28.3017 L21.5094,27.8717 C22.6944,28.9587 23.4394,28.2137 23.4374,26.9097 L23.4374,26.9097 Z M19.8264,23.2077 L18.6974,23.2077 L18.6974,26.4407 C18.6974,26.9077 18.7254,27.1427 18.6954,27.2247 C18.6034,27.4757 18.1904,27.7407 18.0294,27.2517 C18.0034,27.1647 18.0274,26.9077 18.0264,26.4627 L18.0224,23.2077 L16.8994,23.2077 L16.9024,26.4107 C16.9044,26.9037 16.8914,27.2687 16.9064,27.4357 C16.9344,27.7297 16.9234,28.0727 17.1964,28.2677 C17.7044,28.6327 18.6774,28.2127 18.9224,27.6897 L18.9194,28.3577 L19.8264,28.3587 L19.8264,23.2077 Z M15.7664,28.3597 L15.7654,22.3077 L17.1204,22.3077 L17.1204,21.4097 L13.5104,21.4057 L13.5104,22.2867 L14.6374,22.2897 L14.6374,28.3597 L15.7664,28.3597 Z M28.6184,21.9907 L28.6184,27.7367 C28.6184,29.1137 27.4224,30.2417 25.9624,30.2417 L15.0384,30.2417 C13.5764,30.2417 12.3814,29.1137 12.3814,27.7367 L12.3814,21.9907 C12.3814,20.6117 13.5764,19.4827 15.0384,19.4827 L25.9624,19.4827 C27.4224,19.4827 28.6184,20.6117 28.6184,21.9907 L28.6184,21.9907 Z M22.1044,23.6797 C21.8334,23.6797 21.6114,23.8617 21.6114,24.0837 L21.6114,27.1057 C21.6114,27.3267 21.8334,27.5087 22.1044,27.5087 C22.3774,27.5087 22.5994,27.3267 22.5994,27.1057 L22.5994,24.0837 C22.5994,23.8617 22.3774,23.6797 22.1044,23.6797 L22.1044,23.6797 Z M26.1154,25.0097 L25.0464,25.0097 L25.0504,24.3897 C25.0504,24.1137 25.2774,23.8877 25.5544,23.8877 L25.6234,23.8877 C25.9004,23.8877 26.1284,24.1137 26.1284,24.3897 L26.1154,25.0097 Z" id="Fill-5" fill="#393939"></path>
            </g>
        </g>
    </g>
</svg>