<?xml version="1.0" encoding="UTF-8"?>
<svg width="36px" height="36px" viewBox="0 0 36 36" version="1.1" xmlns="http://www.w3.org/2000/svg" xmlns:xlink="http://www.w3.org/1999/xlink">
    <!-- Generator: Sketch 43.2 (39069) - http://www.bohemiancoding.com/sketch -->
    <title>zoom_ico</title>
    <desc>Created with Sketch.</desc>
    <defs></defs>
    <g id="Symbols" stroke="none" stroke-width="1" fill="none" fill-rule="evenodd">
        <g id="zoom_ico">
            <g id="Page-1">
                <path d="M35.8181818,18 C35.8181818,27.8407273 27.8410909,35.8181818 18,35.8181818 C8.15890909,35.8181818 0.181818182,27.8407273 0.181818182,18 C0.181818182,8.15927273 8.15890909,0.181818182 18,0.181818182 C27.8410909,0.181818182 35.8181818,8.15927273 35.8181818,18" id="Fill-1" fill="#FFFFFF"></path>
                <path d="M35.8181818,18 C35.8181818,27.8407273 27.8410909,35.8181818 18,35.8181818 C8.15890909,35.8181818 0.181818182,27.8407273 0.181818182,18 C0.181818182,8.15927273 8.15890909,0.181818182 18,0.181818182 C27.8410909,0.181818182 35.8181818,8.15927273 35.8181818,18 Z" id="Stroke-3" stroke="#E2E2E2"></path>
                <path d="M14.7244364,16.8796 L16.2768,16.8796 L16.2768,18.4323273 C16.2768,18.6756 16.4746182,18.8734182 16.7182545,18.8734182 C16.9618909,18.8734182 17.1600727,18.6756 17.1600727,18.4323273 L17.1600727,16.8796 L18.7120727,16.8796 C18.9557091,16.8796 19.1538909,16.6814182 19.1538909,16.4381455 C19.1538909,16.1945091 18.9557091,15.9966909 18.7120727,15.9966909 L17.1600727,15.9966909 L17.1600727,14.4443273 C17.1600727,14.2006909 16.9618909,14.0028727 16.7182545,14.0028727 C16.4746182,14.0028727 16.2768,14.2006909 16.2768,14.4443273 L16.2768,15.9966909 L14.7244364,15.9966909 C14.4808,15.9966909 14.2826182,16.1945091 14.2826182,16.4381455 C14.2826182,16.6814182 14.4808,16.8796 14.7244364,16.8796" id="Fill-5" fill="#393939"></path>
                <path d="M16.7184,11.1832364 C19.6158545,11.1832364 21.9729455,13.5403273 21.9729455,16.4381455 C21.9729455,19.3359636 19.6158545,21.6930545 16.7184,21.6930545 C13.8205818,21.6930545 11.4631273,19.3359636 11.4631273,16.4381455 C11.4631273,13.5403273 13.8205818,11.1832364 16.7184,11.1832364 M25.2969455,24.9523273 L21.1693091,20.6603273 C22.2584,19.5134182 22.8565818,18.0206909 22.8565818,16.4381455 C22.8565818,13.0537818 20.1031273,10.2999636 16.7184,10.2999636 C13.3333091,10.2999636 10.5798545,13.0537818 10.5798545,16.4381455 C10.5798545,19.8228727 13.3333091,22.5766909 16.7184,22.5766909 C18.0940364,22.5766909 19.4369455,22.1086909 20.5169455,21.2559636 L24.6598545,25.5646909 C24.7438545,25.6519636 24.8569455,25.6999636 24.9784,25.6999636 C25.0929455,25.6999636 25.2016727,25.6563273 25.2845818,25.5770545 C25.4598545,25.4079636 25.4656727,25.1283273 25.2969455,24.9523273" id="Fill-7" fill="#393939"></path>
            </g>
        </g>
    </g>
</svg>