<?xml version="1.0" encoding="UTF-8"?>
<svg width="16px" height="16px" viewBox="0 0 16 16" version="1.1" xmlns="http://www.w3.org/2000/svg" xmlns:xlink="http://www.w3.org/1999/xlink">
    <!-- Generator: Sketch 43.2 (39069) - http://www.bohemiancoding.com/sketch -->
    <title>zoom_ico copy</title>
    <desc>Created with Sketch.</desc>
    <defs></defs>
    <g id="Symbols" stroke="none" stroke-width="1" fill="none" fill-rule="evenodd">
        <g id="zoom_ico-copy" fill="#393939">
            <g id="Page-1">
                <path d="M4.72443636,6.8796 L6.2768,6.8796 L6.2768,8.43232727 C6.2768,8.6756 6.47461818,8.87341818 6.71825455,8.87341818 C6.96189091,8.87341818 7.16007273,8.6756 7.16007273,8.43232727 L7.16007273,6.8796 L8.71207273,6.8796 C8.95570909,6.8796 9.15389091,6.68141818 9.15389091,6.43814545 C9.15389091,6.19450909 8.95570909,5.99669091 8.71207273,5.99669091 L7.16007273,5.99669091 L7.16007273,4.44432727 C7.16007273,4.20069091 6.96189091,4.00287273 6.71825455,4.00287273 C6.47461818,4.00287273 6.2768,4.20069091 6.2768,4.44432727 L6.2768,5.99669091 L4.72443636,5.99669091 C4.4808,5.99669091 4.28261818,6.19450909 4.28261818,6.43814545 C4.28261818,6.68141818 4.4808,6.8796 4.72443636,6.8796" id="Fill-5"></path>
                <path d="M6.7184,1.18323636 C9.61585455,1.18323636 11.9729455,3.54032727 11.9729455,6.43814545 C11.9729455,9.33596364 9.61585455,11.6930545 6.7184,11.6930545 C3.82058182,11.6930545 1.46312727,9.33596364 1.46312727,6.43814545 C1.46312727,3.54032727 3.82058182,1.18323636 6.7184,1.18323636 M15.2969455,14.9523273 L11.1693091,10.6603273 C12.2584,9.51341818 12.8565818,8.02069091 12.8565818,6.43814545 C12.8565818,3.05378182 10.1031273,0.299963636 6.7184,0.299963636 C3.33330909,0.299963636 0.579854545,3.05378182 0.579854545,6.43814545 C0.579854545,9.82287273 3.33330909,12.5766909 6.7184,12.5766909 C8.09403636,12.5766909 9.43694545,12.1086909 10.5169455,11.2559636 L14.6598545,15.5646909 C14.7438545,15.6519636 14.8569455,15.6999636 14.9784,15.6999636 C15.0929455,15.6999636 15.2016727,15.6563273 15.2845818,15.5770545 C15.4598545,15.4079636 15.4656727,15.1283273 15.2969455,14.9523273" id="Fill-7"></path>
            </g>
        </g>
    </g>
</svg>