<svg xmlns="http://www.w3.org/2000/svg" width="21" height="13.345" viewBox="0 0 21 13.345"><path d="M.004 6.681C-.126 3.241 2.887.061 6.331.02c1.755-.15 3.463.532 4.791 1.644A30.95 30.95 0 0 1 9.431 3.41c-1.17-.71-2.577-1.252-3.944-.771-2.204.627-3.539 3.23-2.724 5.387.676 2.252 3.415 3.488 5.562 2.542 1.111-.397 1.845-1.424 2.166-2.525-1.274-.025-2.549-.01-3.822-.045-.003-.759-.007-1.515-.003-2.272 2.124-.003 4.252-.01 6.38.01.131 1.857-.144 3.845-1.351 5.335-1.653 2.128-4.708 2.752-7.193 1.918C1.865 12.122-.053 9.465.004 6.681zm17.184-2.867h1.896c.003.634.009 1.271.013 1.905.634.006 1.271.01 1.904.013V7.63l-1.904.01c-.007.637-.01 1.271-.013 1.908-.634-.003-1.269 0-1.899 0-.006-.637-.006-1.271-.013-1.905-.635-.007-1.272-.01-1.905-.013V5.731c.634-.003 1.268-.006 1.904-.013.004-.633.01-1.27.017-1.904z" fill="#fff"/></svg>